<?xml version="1.0" encoding="utf-8"?>
<!-- Generator: Adobe Illustrator 21.0.0, SVG Export Plug-In . SVG Version: 6.00 Build 0)  -->
<svg version="1.1" id="Layer_1" xmlns="http://www.w3.org/2000/svg" xmlns:xlink="http://www.w3.org/1999/xlink" x="0px" y="0px"
	 viewBox="0 0 132.5 40.4" style="enable-background:new 0 0 490.1 105.6;" xml:space="preserve">
<g stroke="none" stroke-width="1" fill="none" fill-rule="evenodd">
    <path d="M23.2305157,18.7198009 C23.2305157,20.3129426 22.6100316,21.6547457 21.4454384,22.3528527 C20.9537434,22.650116 15.5945178,25.7715055 15.1689646,26.0086173 C13.9814089,26.6657913 12.5143109,26.5370022 11.1333219,25.7418041 C10.5887136,25.4315621 5.71294646,22.6266544 5.25719264,22.3528527 C4.09409692,21.6547457 3.47086731,20.3129426 3.47486077,18.7198009 C3.47486077,18.0935762 3.47760628,16.9060206 3.48135015,15.5020692 C3.47760628,14.1003641 3.47486077,12.9135572 3.47486077,12.2868333 C3.47086731,10.690447 4.09409692,9.35188858 5.25719264,8.65203442 C6.21737059,8.07198411 10.4591757,5.6239921 13.3499428,3.95372675 L13.3506915,3.95747062 L13.3554338,3.95372675 C16.2474488,5.6239921 20.4887547,8.07198411 21.4454384,8.65203442 C22.6100316,9.35188858 23.2305157,10.690447 23.2305157,12.2868333 C23.2305157,12.9135572 23.2237768,14.1003641 23.2217801,15.5020692 C23.2237768,16.9060206 23.2305157,18.0935762 23.2305157,18.7198009 L23.2305157,18.7198009 Z" fill="#FEFEFE"></path>
    <path d="M41.7849874,11.1779489 C40.9950307,10.5197765 39.9856833,10.0809949 38.9326574,10.0809949 C38.1427007,10.0809949 37.0896748,10.5417405 37.0896748,11.4632318 C37.0896748,12.4286511 38.2525209,12.8015406 38.9985495,13.0431451 L40.0952539,13.3721065 C42.3992317,14.0522429 44.1763221,15.215089 44.1763221,17.8917067 C44.1763221,19.5372625 43.7814686,21.2267464 42.4651238,22.3456645 C41.1704934,23.4428681 39.4373311,23.9033641 37.7695616,23.9033641 C35.6852242,23.9033641 33.6450645,23.2015132 31.955331,22.0167031 L33.7985632,18.5498791 C34.8735531,19.4933345 36.1462195,20.2615767 37.616063,20.2615767 C38.6254104,20.2615767 39.7004004,19.7566533 39.7004004,18.5940568 C39.7004004,17.3872826 38.0111661,16.9702154 37.0896748,16.7068966 C34.3908435,15.9391536 32.613753,15.2370531 32.613753,12.0337976 C32.613753,8.67679389 35.0053374,6.48288587 38.3181634,6.48288587 C39.9856833,6.48288587 42.0263422,7.00927404 43.4961857,7.84315876 L41.7849874,11.1779489 Z" fill="#FFFFFF"></path>
    <polygon fill="#FFFFFF" points="55.3211752 6.92149276 60.6526961 6.92149276 54.0704729 14.7544183 61.245226 23.4646574 55.6723502 23.4646574 50.1214385 16.2901539 50.0775104 16.2901539 50.0775104 23.4646574 45.7770513 23.4646574 45.7770513 6.92149276 50.0775104 6.92149276 50.0775104 13.7450708 50.1214385 13.7450708"></polygon>
    <polygon fill="#FFFFFF" points="60.1470241 6.92149276 65.3030823 6.92149276 68.3967671 11.419129 71.4902024 6.92149276 76.6462606 6.92149276 70.5467471 15.5221613 70.5467471 23.4646574 66.246288 23.4646574 66.246288 15.5221613"></polygon>
    <polygon fill="#FFFFFF" points="81.4938988 19.8224955 86.649957 19.8224955 86.649957 23.4647822 77.1934397 23.4647822 77.1934397 6.92161755 81.4938988 6.92161755"></polygon>
    <polygon fill="#FFFFFF" points="87.6145527 23.4648321 91.9147622 23.4648321 91.9147622 6.92166747 87.6145527 6.92166747"></polygon>
    <path d="M110.783095,14.2276557 C110.739167,16.6412041 110.563455,18.7038271 109.093861,20.7659509 C107.470019,23.0260006 105.034756,24.0131344 102.270283,24.0131344 C97.0702963,24.0131344 93.4499737,20.4809175 93.4499737,15.2809312 C93.4499737,9.90548221 97.0922603,6.37301576 102.423781,6.37301576 C105.824463,6.37301576 108.457403,7.90900096 109.883568,11.0024362 L105.802499,12.7138841 C105.210219,11.1339709 103.959517,10.0809449 102.226355,10.0809449 C99.3959885,10.0809449 97.9258954,12.7795267 97.9258954,15.3028953 C97.9258954,17.8699424 99.4618806,20.4809175 102.291997,20.4809175 C104.156944,20.4809175 105.583109,19.5154982 105.758571,17.6066235 L102.248319,17.6066235 L102.248319,14.2276557 L110.783095,14.2276557 Z" fill="#FFFFFF"></path>
    <polygon fill="#FFFFFF" points="122.827101 13.3062892 122.827101 6.92149276 127.12731 6.92149276 127.12731 23.4646574 122.827101 23.4646574 122.827101 16.6850074 116.618017 16.6850074 116.618017 23.4646574 112.317558 23.4646574 112.317558 6.92149276 116.618017 6.92149276 116.618017 13.3062892"></polygon>
    <polygon fill="#FFFFFF" points="136.077881 23.4647073 131.777671 23.4647073 131.777671 10.5638293 128.222991 10.5638293 128.222991 6.92154268 139.632311 6.92154268 139.632311 10.5638293 136.077881 10.5638293"></polygon>
    <polygon fill="#ED1A3A" points="19.500922 12.0880837 16.7808754 11.7346624 13.3507414 15.1480738 16.4274541 15.1480738"></polygon>
    <polygon fill="#92407D" points="16.4258817 21.2666561 16.7808006 18.6100057 13.3531625 15.1454281 13.3531625 18.2074148"></polygon>
    <polygon fill="#F38D36" points="16.4275789 9.02889241 16.7810002 11.7347123 13.3506167 15.1501204 13.3506167 12.0881337"></polygon>
    <polygon fill="#FEDC0F" points="10.2761503 9.02889241 9.90575676 11.7337139 13.3501175 15.1453782 13.3501175 12.0883832"></polygon>
    <polygon fill="#577E9F" points="10.2779723 21.2666561 9.90583164 18.6100057 13.3536866 15.1501703 13.3536866 18.2071652"></polygon>
    <polygon fill="#92C282" points="7.20280718 12.0883333 9.90588156 11.7364095 13.3532374 15.1475746 10.2762751 15.1475746"></polygon>
    <polygon fill="#00ADC4" points="7.20280718 18.2098858 9.90588156 18.6102303 13.3507414 15.147899 10.2780223 15.147899"></polygon>
    <polygon fill="#C1325C" points="19.500922 18.2074648 16.7808754 18.6100556 13.3532374 15.1474747 16.4259565 15.1474747"></polygon>
    <path d="M24.147115,6.2278035 C23.1697153,5.65524093 13.3580295,0.00374387033 13.3507914,-1.87715476e-13 C13.344302,0.00374387033 3.53660967,5.65524093 2.55496687,6.2278035 C0.663064395,7.32999893 -9.98365417e-05,8.84801356 -9.98365417e-05,10.9448305 L-9.98365417e-05,15.5021191 L-9.98365417e-05,20.0621532 C-9.98365417e-05,22.1574726 0.663064395,23.6747384 2.55496687,24.7796794 C2.93634246,25.0008173 10.2328962,29.2331379 10.5641039,29.4228274 C12.3808794,30.4686151 14.0306782,30.6485705 15.9290701,29.5566083 C16.4027945,29.2833058 23.8633297,24.9436609 24.147115,24.7796794 C26.0422622,23.6747384 26.7039289,22.1574726 26.7039289,20.0621532 L26.7039289,15.5021191 L26.7039289,10.9448305 C26.7039289,8.84801356 26.0422622,7.32999893 24.147115,6.2278035 M23.2306156,18.7198509 C23.2306156,20.3129925 22.6101315,21.6547956 21.4452886,22.352653 C20.9538432,22.6501659 15.5943681,25.7715554 15.1690644,26.0086672 C13.9815087,26.6658412 12.5144107,26.5370521 11.1331722,25.741854 C10.5885638,25.4313624 5.71304629,22.6267043 5.25729248,22.352653 C4.09394717,21.6547956 3.47096715,20.3129925 3.47471102,18.7198509 C3.47471102,18.0936261 3.47770611,16.9060705 3.48120039,15.5021191 C3.47770611,14.100414 3.47471102,12.9136071 3.47471102,12.2866337 C3.47096715,10.6904969 4.09394717,9.3519385 5.25729248,8.65208434 C6.21747042,8.07203403 10.4590259,5.62404202 13.349793,3.95377666 L13.3507914,3.95727094 L13.3555336,3.95377666 C16.2475486,5.62404202 20.4888545,8.07203403 21.4452886,8.65208434 C22.6101315,9.3519385 23.2306156,10.6904969 23.2306156,12.2866337 C23.2306156,12.9136071 23.223627,14.100414 23.2218799,15.5021191 C23.223627,16.9060705 23.2306156,18.0936261 23.2306156,18.7198509" fill="#BAC3C4"></path>
</g>
</svg>