<svg width="480" height="360" viewBox="0 0 480 360" fill="none" xmlns="http://www.w3.org/2000/svg">
<path d="M196.467 20.3976C214.367 16.2976 232.167 13.7976 249.667 12.6976C243.967 12.3976 238.267 12.1976 232.467 12.1976C124.867 12.1976 35.3673 70.6976 17.2673 147.698C43.4673 89.9976 109.967 39.9976 196.467 20.3976Z" fill="#DC291E"/>
<path d="M369.267 158.498C370.667 167.298 368.367 176.198 363.167 184.798C380.567 165.498 387.467 145.998 380.067 129.898C366.667 100.798 310.667 92.1976 245.967 106.098C311.667 104.598 364.267 125.798 369.267 158.498Z" fill="url(#paint0_linear)"/>
<path d="M85.2673 206.698C81.6673 216.598 81.5673 226.198 85.4673 234.698C101.667 269.998 180.867 275.198 262.167 246.298C277.767 240.798 292.267 234.398 305.467 227.398C285.367 235.698 261.667 242.098 235.867 245.398C164.767 254.398 101.867 237.398 85.2673 206.698Z" fill="url(#paint1_linear)"/>
<path d="M305.567 227.398C332.867 216.098 353.367 200.998 363.267 184.798C349.667 199.698 329.867 214.498 305.567 227.398Z" fill="#E1863A"/>
<path d="M85.2674 206.698C96.4674 175.498 141.667 140.298 203.367 118.298C217.767 113.198 232.067 109.098 245.967 106.098C235.767 106.298 225.367 107.098 214.667 108.498C135.167 118.698 75.4674 157.498 81.2674 195.298C81.9674 199.298 83.2674 203.098 85.2674 206.698Z" fill="#E1593A"/>
<path d="M471.467 127.798C450.667 51.8976 356.767 5.69763 249.667 12.6976C362.367 19.2976 451.067 90.0976 451.067 176.598C451.067 267.398 353.167 340.998 232.467 340.998C111.767 340.998 13.8674 267.398 13.8674 176.598C13.8674 166.698 15.0674 157.098 17.2674 147.698C4.76741 175.098 1.36743 204.198 9.16743 232.598C33.3674 320.898 156.467 368.898 284.167 339.998C411.767 311.098 495.667 216.098 471.467 127.798Z" fill="url(#paint2_linear)"/>
<path d="M232.467 340.898C353.167 340.898 451.067 267.298 451.067 176.498C451.067 90.0976 362.367 19.1976 249.667 12.5976C232.167 13.6976 214.367 16.2976 196.467 20.2976C109.867 39.8976 43.4674 89.8976 17.2674 147.598C15.0674 156.998 13.8674 166.598 13.8674 176.498C13.8674 267.298 111.767 340.898 232.467 340.898ZM214.767 108.498C225.467 107.098 235.867 106.398 246.067 106.098C310.867 92.0976 366.767 100.798 380.167 129.898C387.567 145.998 380.667 165.498 363.267 184.798C353.467 200.998 332.867 215.998 305.567 227.398C292.367 234.398 277.867 240.698 262.267 246.298C180.867 275.198 101.767 269.998 85.5674 234.698C81.6674 226.198 81.7675 216.598 85.3675 206.698C83.4675 203.098 82.0674 199.298 81.4674 195.298C75.5674 157.498 135.267 118.698 214.767 108.498Z" fill="url(#paint3_linear)"/>
<defs>
<linearGradient id="paint0_linear" x1="268.5" y1="106.5" x2="383" y2="195" gradientUnits="userSpaceOnUse">
<stop stop-color="#DC4F1E"/>
<stop offset="1" stop-color="#DC711E"/>
</linearGradient>
<linearGradient id="paint1_linear" x1="54" y1="217" x2="272.5" y2="277" gradientUnits="userSpaceOnUse">
<stop stop-color="#DC4D1E"/>
<stop offset="1" stop-color="#DC721E"/>
</linearGradient>
<linearGradient id="paint2_linear" x1="67" y1="38" x2="419" y2="302" gradientUnits="userSpaceOnUse">
<stop stop-color="#E1483A"/>
<stop offset="1" stop-color="#E1993A"/>
</linearGradient>
<linearGradient id="paint3_linear" x1="62.0002" y1="68" x2="359" y2="331" gradientUnits="userSpaceOnUse">
<stop stop-color="#FA4F38"/>
<stop offset="0.385417" stop-color="#FA8838"/>
<stop offset="1" stop-color="#FACC38"/>
</linearGradient>
</defs>
</svg>
