<svg id="Ebene_6" data-name="Ebene 6" xmlns="http://www.w3.org/2000/svg" xmlns:xlink="http://www.w3.org/1999/xlink" viewBox="0 0 27.35 27.44">
    <defs>
        <style>
        .cls-1 {
            fill: #333131;
        }

        .cls-2 {
            opacity: 0.25;
            fill: url(#linear-gradient);
        }

        .cls-3 {
            fill: #3f3f3f;
        }

        .cls-4 {
            fill: #ff7f00;
        }

        .cls-5 {
            fill: #666;
        }
        </style>
        <linearGradient id="linear-gradient" x1="13.68" y1="21.81" x2="13.68" y2="-1.34" gradientUnits="userSpaceOnUse">
            <stop offset="0" stop-color="#fff" />
            <stop offset="1" />
        </linearGradient>
    </defs>
    <title>Vektor-Smart Objekt</title>
    <path class="cls-1" d="M22.66,26.27c-2.24,0-2.4-2.9-2.4-2.9a9.08,9.08,0,0,0,3.23-5.72C25.22,6.8,16,7.13,16,7.13S6.83,6.8,8.57,17.66a9.08,9.08,0,0,0,3.23,5.72s-.17,2.9-2.4,2.9c-1.92,0-6,1.35-7.08,5a5,5,0,0,0,2.52.7h22a5,5,0,0,0,2.83-.88C28.48,27.58,24.54,26.27,22.66,26.27Z" transform="translate(-2.32 -4.56)" />
    <ellipse class="cls-2" cx="13.68" cy="11.21" rx="7.79" ry="8.64" />
    <path class="cls-3" d="M23.8,12.92c-1.35-4-1.73-6.27-7.77-6.37h0C10,6.66,9.6,8.9,8.25,12.92h0a.66.66,0,0,1-.83.44h0A.66.66,0,0,1,7,12.53H7c1.11-3.94,2.48-7.42,9-7.31h0c6.55-.11,7.93,3.37,9,7.31h0a.66.66,0,0,1-.44.83h0a.67.67,0,0,1-.2,0h0a.66.66,0,0,1-.63-.47Z" transform="translate(-2.32 -4.56)" />
    <path class="cls-4" d="M5,15.9,5,17.07A3.25,3.25,0,0,0,8.19,20.2l-.61-7.88A3.24,3.24,0,0,0,5,15.9Z" transform="translate(-2.32 -4.56)" />
    <path class="cls-5" d="M8.59,20.17h0A1.11,1.11,0,0,0,9.53,19l-.44-5.68a1.1,1.1,0,0,0-1.11-1H7.76l-.18,0,.61,7.88h.19Z" transform="translate(-2.32 -4.56)" />
    <path class="cls-4" d="M27.17,15.9l-.09,1.17a3.24,3.24,0,0,1-3.14,3.13l.61-7.88A3.24,3.24,0,0,1,27.17,15.9Z" transform="translate(-2.32 -4.56)" />
    <path class="cls-5" d="M23.54,20.17h0A1.11,1.11,0,0,1,22.6,19L23,13.31a1.1,1.1,0,0,1,1.11-1h.22l.18,0-.61,7.88h-.18Z" transform="translate(-2.32 -4.56)" />
    <path class="cls-5" d="M8.82,9.24a1.33,1.33,0,0,1-.05-1.88h0A10,10,0,0,1,16,4.56h0a10,10,0,0,1,7.26,2.8h0a1.33,1.33,0,0,1-.05,1.88h0a1.33,1.33,0,0,1-1.87-.05h0a7.43,7.43,0,0,0-5.33-2h0a7.42,7.42,0,0,0-5.34,2h0a1.32,1.32,0,0,1-1,.41h0a1.32,1.32,0,0,1-.91-.36Z" transform="translate(-2.32 -4.56)" />
</svg>