<svg id="faveSVG" class="faveSVG" viewBox="0 0 600 600" xmlns="http://www.w3.org/2000/svg">
    <path class="outline" d="M299.64,180.06C254.2,95.52,123.26,90.77,87.58,197,42.14,332.24,189.85,374.17,299.64,484.42,409.43,374.17,557.14,332.24,511.7,197,476,90.77,345.08,95.52,299.64,180.06Z" fill="none" stroke="#b4b4b4" stroke-miterlimit="10" stroke-width="35" />
    <circle class="purplePop" cx="490" cy="410" r="123" fill="none" stroke="#CC3CF6" stroke-miterlimit="10" stroke-linecap="square" stroke-width="0" />
    <circle class="greenPop" cx="206" cy="483" r="123" fill="none" stroke="#3BF686" stroke-miterlimit="10" stroke-linecap="square" stroke-width="0" />
    <circle class="bluePop" cx="340" cy="120" r="123" fill="none" stroke="#3D45F6" stroke-miterlimit="10" stroke-linecap="square" stroke-width="0" />
    <circle class="yellowPop" cx="112" cy="336" r="123" fill="none" stroke="#F6CD3F" stroke-miterlimit="10" stroke-linecap="square" stroke-width="0" />
    <circle class="redPop" cx="128" cy="124" r="123" fill="none" stroke="#F6463E" stroke-miterlimit="10" stroke-linecap="square" stroke-width="0" />
    <circle class="redPop2" cx="485" cy="130" r="123" fill="none" stroke="#F6463E" stroke-miterlimit="10" stroke-linecap="square" stroke-width="0" />
    <circle class="redPop3" cx="480" cy="436" r="123" fill="none" stroke="#F6463E" stroke-miterlimit="10" stroke-linecap="square" stroke-width="0" />
    <path class="heart" d="M299.64,180.06C254.2,95.52,123.26,90.77,87.58,197,42.14,332.24,189.85,374.17,299.64,484.42,409.43,374.17,557.14,332.24,511.7,197,476,90.77,345.08,95.52,299.64,180.06Z" transform-origin="20px 20px" fill="#f6463e" stroke="#f6463e" stroke-miterlimit="10" stroke-width="21" />
</svg>