<svg width="24" height="24" viewBox="0 0 24 24" fill="none" xmlns="http://www.w3.org/2000/svg">
<circle cx="12" cy="12" r="8.5" fill="white"/>
<path d="M15.1446 7.32272L9.63852 8.18009C9.27327 8.23697 9.00392 8.5515 9.00392 8.92116L9.00387 14.358C9.00387 14.509 8.87048 14.6248 8.7199 14.6134C7.09594 14.49 6.19139 15.2363 6.62498 16.3438C7.1325 17.64 10.0049 16.6629 10.0049 15.0009L10.0049 10.4005C10.0049 10.278 10.0937 10.1735 10.2146 10.1538L14.7187 9.41732C14.8708 9.39245 15.009 9.50987 15.009 9.66405V13.3096C15.009 13.4607 14.8756 13.5765 14.725 13.5651C13.1011 13.4417 12.1965 14.188 12.6301 15.2954C13.1376 16.5917 16.01 15.6146 16.01 13.9526V8.06345C16.01 7.60323 15.5994 7.25191 15.1446 7.32272Z" fill="#353535"/>
</svg>
