<svg width="940" height="16" viewBox="0 0 940 16" fill="none" xmlns="http://www.w3.org/2000/svg">
<mask id="mask0" mask-type="alpha" maskUnits="userSpaceOnUse" x="0" y="0" width="940" height="16">
<rect width="940" height="16" fill="#C4C4C4"/>
</mask>
<g mask="url(#mask0)">
<path d="M-1 2H9L-1 13H-11L-1 2Z" fill="#FFE279"/>
<path d="M19 2H29L19 13H9L19 2Z" fill="#FFE279"/>
<path d="M39 2H49L39 13H29L39 2Z" fill="#FFE279"/>
<path d="M59 2H69L59 13H49L59 2Z" fill="#FFE279"/>
<path d="M79 2H89L79 13H69L79 2Z" fill="#FFE279"/>
<path d="M99 2H109L99 13H89L99 2Z" fill="#FFE279"/>
<path d="M119 2H129L119 13H109L119 2Z" fill="#FFE279"/>
<path d="M139 2H149L139 13H129L139 2Z" fill="#FFE279"/>
<path d="M159 2H169L159 13H149L159 2Z" fill="#FFE279"/>
<path d="M179 2H189L179 13H169L179 2Z" fill="#FFE279"/>
<path d="M199 2H209L199 13H189L199 2Z" fill="#FFE279"/>
<path d="M219 2H229L219 13H209L219 2Z" fill="#FFE279"/>
<path d="M239 2H249L239 13H229L239 2Z" fill="#FFE279"/>
<path d="M259 2H269L259 13H249L259 2Z" fill="#FFE279"/>
<path d="M279 2H289L279 13H269L279 2Z" fill="#FFE279"/>
<path d="M299 2H309L299 13H289L299 2Z" fill="#FFE279"/>
<path d="M319 2H329L319 13H309L319 2Z" fill="#FFE279"/>
<path d="M339 2H349L339 13H329L339 2Z" fill="#FFE279"/>
<path d="M359 2H369L359 13H349L359 2Z" fill="#FFE279"/>
<path d="M379 2H389L379 13H369L379 2Z" fill="#FFE279"/>
<path d="M399 2H409L399 13H389L399 2Z" fill="#FFE279"/>
<path d="M419 2H429L419 13H409L419 2Z" fill="#FFE279"/>
<path d="M439 2H449L439 13H429L439 2Z" fill="#FFE279"/>
<path d="M459 2H469L459 13H449L459 2Z" fill="#FFE279"/>
<path d="M479 2H489L479 13H469L479 2Z" fill="#FFE279"/>
<path d="M499 2H509L499 13H489L499 2Z" fill="#FFE279"/>
<path d="M519 2H529L519 13H509L519 2Z" fill="#FFE279"/>
<path d="M539 2H549L539 13H529L539 2Z" fill="#FFE279"/>
<path d="M559 2H569L559 13H549L559 2Z" fill="#FFE279"/>
<path d="M579 2H589L579 13H569L579 2Z" fill="#FFE279"/>
<path d="M599 2H609L599 13H589L599 2Z" fill="#FFE279"/>
<path d="M619 2H629L619 13H609L619 2Z" fill="#FFE279"/>
<path d="M639 2H649L639 13H629L639 2Z" fill="#FFE279"/>
<path d="M659 2H669L659 13H649L659 2Z" fill="#FFE279"/>
<path d="M679 2H689L679 13H669L679 2Z" fill="#FFE279"/>
<path d="M699 2H709L699 13H689L699 2Z" fill="#FFE279"/>
<path d="M719 2H729L719 13H709L719 2Z" fill="#FFE279"/>
<path d="M739 2H749L739 13H729L739 2Z" fill="#FFE279"/>
<path d="M759 2H769L759 13H749L759 2Z" fill="#FFE279"/>
<path d="M779 2H789L779 13H769L779 2Z" fill="#FFE279"/>
<path d="M799 2H809L799 13H789L799 2Z" fill="#FFE279"/>
<path d="M819 2H829L819 13H809L819 2Z" fill="#FFE279"/>
<path d="M839 2H849L839 13H829L839 2Z" fill="#FFE279"/>
<path d="M859 2H869L859 13H849L859 2Z" fill="#FFE279"/>
<path d="M879 2H889L879 13H869L879 2Z" fill="#FFE279"/>
<path d="M899 2H909L899 13H889L899 2Z" fill="#FFE279"/>
<path d="M919 2H929L919 13H909L919 2Z" fill="#FFE279"/>
<path d="M939 2H949L939 13H929L939 2Z" fill="#FFE279"/>
<path d="M939 2H949L939 13H929L939 2Z" fill="#FFE279"/>
<path d="M959 2H969L959 13H949L959 2Z" fill="#FFE279"/>
<path d="M979 2H989L979 13H969L979 2Z" fill="#FFE279"/>
<path d="M999 2H1009L999 13H989L999 2Z" fill="#FFE279"/>
<path d="M1019 2H1029L1019 13H1009L1019 2Z" fill="#FFE279"/>
<path d="M1039 2H1049L1039 13H1029L1039 2Z" fill="#FFE279"/>
<path d="M1059 2H1069L1059 13H1049L1059 2Z" fill="#FFE279"/>
<path d="M1079 2H1089L1079 13H1069L1079 2Z" fill="#FFE279"/>
<path d="M1099 2H1109L1099 13H1089L1099 2Z" fill="#FFE279"/>
<path d="M-181 2H-171L-181 13H-191L-181 2Z" fill="#FFE279"/>
<path d="M-161 2H-151L-161 13H-171L-161 2Z" fill="#FFE279"/>
<path d="M-141 2H-131L-141 13H-151L-141 2Z" fill="#FFE279"/>
<path d="M-121 2H-111L-121 13H-131L-121 2Z" fill="#FFE279"/>
<path d="M-101 2H-91L-101 13H-111L-101 2Z" fill="#FFE279"/>
<path d="M-81 2H-71L-81 13H-91L-81 2Z" fill="#FFE279"/>
<path d="M-61 2H-51L-61 13H-71L-61 2Z" fill="#FFE279"/>
<path d="M-41 2H-31L-41 13H-51L-41 2Z" fill="#FFE279"/>
<path d="M-21 2H-11L-21 13H-31L-21 2Z" fill="#FFE279"/>
<path d="M-1 2H9L-1 13H-11L-1 2Z" fill="#FFE279"/>
<path d="M1099 2H1109L1099 13H1089L1099 2Z" fill="#FFE279"/>
<path d="M1119 2H1129L1119 13H1109L1119 2Z" fill="#FFE279"/>
<path d="M1139 2H1149L1139 13H1129L1139 2Z" fill="#FFE279"/>
<path d="M453.624 11H456.407C458.75 11 460.279 9.526 460.279 7.161V7.139C460.279 4.785 458.75 3.3 456.407 3.3H453.624V11ZM455.318 9.581V4.719H456.407C457.771 4.719 458.541 5.632 458.541 7.139V7.161C458.541 8.679 457.793 9.581 456.407 9.581H455.318ZM461.118 11H462.79L463.241 9.603H466.354L466.805 11H468.488L465.782 3.3H463.824L461.118 11ZM464.77 4.884H464.825L465.925 8.283H463.67L464.77 4.884ZM470.01 11H471.594V5.962H471.605L474.949 11H476.467V3.3H474.883V8.305H474.872L471.55 3.3H470.01V11ZM482.3 11.143C483.345 11.143 484.39 10.857 485.226 10.373V6.765H481.926V8.041H483.675V9.482C483.29 9.658 482.828 9.757 482.333 9.757C480.859 9.757 480.023 8.778 480.023 7.249V7.227C480.023 5.654 480.837 4.576 482.443 4.576C483.147 4.576 483.818 4.785 484.412 5.225L485.325 4.026C484.5 3.465 483.521 3.146 482.432 3.146C479.847 3.146 478.296 4.818 478.296 7.238V7.26C478.296 9.603 479.847 11.143 482.3 11.143ZM487.224 11H492.746V9.548H488.918V7.744H492.229V6.446H488.918V4.752H492.68V3.3H487.224V11ZM494.627 11H496.31V8.195H498.07L499.247 11H501.04L499.61 7.92C500.6 7.491 500.974 6.644 500.974 5.775V5.753C500.974 4.51 500.237 3.3 498.015 3.3H494.627V11ZM496.31 6.897V4.686H498.026C498.917 4.686 499.291 5.126 499.291 5.786V5.808C499.291 6.457 498.917 6.897 498.026 6.897H496.31ZM503.199 8.569H504.013L504.178 7.249C504.409 5.566 504.53 4.466 504.53 3.3H502.693C502.693 4.477 502.814 5.577 503.034 7.249L503.199 8.569ZM502.715 11H504.497V9.295H502.715V11Z" fill="#B7BBBB"/>
<path d="M453.624 11H447.624V17H453.624V11ZM453.624 3.3V-2.7H447.624V3.3H453.624ZM455.318 9.581H449.318V15.581H455.318V9.581ZM455.318 4.719V-1.281H449.318V4.719H455.318ZM453.624 17H456.407V5H453.624V17ZM456.407 17C458.848 17 461.432 16.2095 463.43 14.2447C465.44 12.2672 466.279 9.66667 466.279 7.161H454.279C454.279 7.02033 454.354 6.33926 455.014 5.69003C455.661 5.0535 456.309 5 456.407 5V17ZM466.279 7.161V7.139H454.279V7.161H466.279ZM466.279 7.139C466.279 4.63271 465.436 2.03746 463.434 0.0637594C461.442 -1.89931 458.861 -2.7 456.407 -2.7V9.3C456.297 9.3 455.651 9.24181 455.01 8.60974C454.358 7.96704 454.279 7.29129 454.279 7.139H466.279ZM456.407 -2.7H453.624V9.3H456.407V-2.7ZM447.624 3.3V11H459.624V3.3H447.624ZM461.318 9.581V4.719H449.318V9.581H461.318ZM455.318 10.719H456.407V-1.281H455.318V10.719ZM456.407 10.719C455.674 10.719 454.433 10.4197 453.462 9.30538C452.593 8.30769 452.541 7.34147 452.541 7.139H464.541C464.541 5.42953 464.105 3.25331 462.51 1.42237C460.813 -0.525177 458.504 -1.281 456.407 -1.281V10.719ZM452.541 7.139V7.161H464.541V7.139H452.541ZM452.541 7.161C452.541 7.01435 452.574 6.03218 453.462 5.00838C454.463 3.85462 455.731 3.581 456.407 3.581V15.581C458.47 15.581 460.805 14.8564 462.526 12.8721C464.135 11.0178 464.541 8.82565 464.541 7.161H452.541ZM456.407 3.581H455.318V15.581H456.407V3.581ZM461.118 11L455.458 9.0107L452.65 17H461.118V11ZM462.79 11V17H467.158L468.5 12.8433L462.79 11ZM463.241 9.603V3.603H458.873L457.531 7.75967L463.241 9.603ZM466.354 9.603L472.064 7.75967L470.722 3.603H466.354V9.603ZM466.805 11L461.095 12.8433L462.437 17H466.805V11ZM468.488 11V17H476.956L474.149 9.01069L468.488 11ZM465.782 3.3L471.443 1.31069L470.033 -2.7H465.782V3.3ZM463.824 3.3V-2.7H459.573L458.164 1.31069L463.824 3.3ZM464.77 4.884V-1.116H460.406L459.062 3.03659L464.77 4.884ZM464.825 4.884L470.534 3.03659L469.19 -1.116H464.825V4.884ZM465.925 8.283V14.283H474.173L471.634 6.43559L465.925 8.283ZM463.67 8.283L457.962 6.43559L455.422 14.283H463.67V8.283ZM461.118 17H462.79V5H461.118V17ZM468.5 12.8433L468.951 11.4463L457.531 7.75967L457.08 9.15667L468.5 12.8433ZM463.241 15.603H466.354V3.603H463.241V15.603ZM460.644 11.4463L461.095 12.8433L472.515 9.15667L472.064 7.75967L460.644 11.4463ZM466.805 17H468.488V5H466.805V17ZM474.149 9.01069L471.443 1.31069L460.122 5.2893L462.828 12.9893L474.149 9.01069ZM465.782 -2.7H463.824V9.3H465.782V-2.7ZM458.164 1.31069L455.458 9.0107L466.779 12.9893L469.485 5.2893L458.164 1.31069ZM464.77 10.884H464.825V-1.116H464.77V10.884ZM459.117 6.73141L460.217 10.1304L471.634 6.43559L470.534 3.03659L459.117 6.73141ZM465.925 2.283H463.67V14.283H465.925V2.283ZM469.379 10.1304L470.479 6.73141L459.062 3.03659L457.962 6.43559L469.379 10.1304ZM470.01 11H464.01V17H470.01V11ZM471.594 11V17H477.594V11H471.594ZM471.594 5.962V-0.0380003H465.594V5.962H471.594ZM471.605 5.962L476.604 2.64388L474.824 -0.0380003H471.605V5.962ZM474.949 11L469.95 14.3181L471.73 17H474.949V11ZM476.467 11V17H482.467V11H476.467ZM476.467 3.3H482.467V-2.7H476.467V3.3ZM474.883 3.3V-2.7H468.883V3.3H474.883ZM474.883 8.305V14.305H480.883V8.305H474.883ZM474.872 8.305L469.873 11.6231L471.653 14.305H474.872V8.305ZM471.55 3.3L476.549 -0.0180532L474.769 -2.7H471.55V3.3ZM470.01 3.3V-2.7H464.01V3.3H470.01ZM470.01 17H471.594V5H470.01V17ZM477.594 11V5.962H465.594V11H477.594ZM471.594 11.962H471.605V-0.0380003H471.594V11.962ZM466.606 9.28012L469.95 14.3181L479.948 7.68188L476.604 2.64388L466.606 9.28012ZM474.949 17H476.467V5H474.949V17ZM482.467 11V3.3H470.467V11H482.467ZM476.467 -2.7H474.883V9.3H476.467V-2.7ZM468.883 3.3V8.305H480.883V3.3H468.883ZM474.883 2.305H474.872V14.305H474.883V2.305ZM479.871 4.98695L476.549 -0.0180532L466.551 6.61805L469.873 11.6231L479.871 4.98695ZM471.55 -2.7H470.01V9.3H471.55V-2.7ZM464.01 3.3V11H476.01V3.3H464.01ZM485.226 10.373L488.232 15.5656L491.226 13.8323V10.373H485.226ZM485.226 6.765H491.226V0.765H485.226V6.765ZM481.926 6.765V0.765H475.926V6.765H481.926ZM481.926 8.041H475.926V14.041H481.926V8.041ZM483.675 8.041H489.675V2.041H483.675V8.041ZM483.675 9.482L486.169 14.9388L489.675 13.3364V9.482H483.675ZM484.412 5.225L480.84 10.0463L485.598 13.5707L489.185 8.85994L484.412 5.225ZM485.325 4.026L490.098 7.66094L493.934 2.62425L488.699 -0.935557L485.325 4.026ZM482.3 17.143C484.38 17.143 486.465 16.5887 488.232 15.5656L482.219 5.18044C482.257 5.15893 482.281 5.14842 482.291 5.14441C482.301 5.14031 482.303 5.13998 482.299 5.14103C482.295 5.14204 482.291 5.14289 482.288 5.14331C482.285 5.14373 482.288 5.143 482.3 5.143V17.143ZM491.226 10.373V6.765H479.226V10.373H491.226ZM485.226 0.765H481.926V12.765H485.226V0.765ZM475.926 6.765V8.041H487.926V6.765H475.926ZM481.926 14.041H483.675V2.041H481.926V14.041ZM477.675 8.041V9.482H489.675V8.041H477.675ZM481.18 4.02515C481.651 3.81009 482.05 3.757 482.333 3.757V15.757C483.605 15.757 484.929 15.5059 486.169 14.9388L481.18 4.02515ZM482.333 3.757C482.989 3.757 484.146 4.02173 485.08 5.05715C485.938 6.00879 486.023 6.96362 486.023 7.249H474.023C474.023 9.06338 474.525 11.2722 476.17 13.0956C477.891 15.0028 480.203 15.757 482.333 15.757V3.757ZM486.023 7.249V7.227H474.023V7.249H486.023ZM486.023 7.227C486.023 7.40653 485.977 8.30387 485.163 9.24273C484.239 10.3088 483.068 10.576 482.443 10.576V-1.424C480.212 -1.424 477.831 -0.617832 476.098 1.38051C474.475 3.25163 474.023 5.47447 474.023 7.227H486.023ZM482.443 10.576C482.195 10.576 481.911 10.5383 481.614 10.4417C481.315 10.3446 481.053 10.2042 480.84 10.0463L487.983 0.403654C486.325 -0.824429 484.394 -1.424 482.443 -1.424V10.576ZM489.185 8.85994L490.098 7.66094L480.551 0.39106L479.638 1.59006L489.185 8.85994ZM488.699 -0.935557C486.89 -2.16514 484.738 -2.854 482.432 -2.854V9.146C482.385 9.146 482.303 9.13823 482.202 9.10712C482.103 9.07632 482.017 9.03246 481.951 8.98756L488.699 -0.935557ZM482.432 -2.854C479.812 -2.854 477.143 -1.97641 475.123 0.0704831C473.12 2.10094 472.296 4.73466 472.296 7.238H484.296C484.296 7.32134 484.247 7.90906 483.665 8.49852C483.068 9.1044 482.467 9.146 482.432 9.146V-2.854ZM472.296 7.238V7.26H484.296V7.238H472.296ZM472.296 7.26C472.296 9.78913 473.163 12.3978 475.187 14.3735C477.198 16.3371 479.804 17.143 482.3 17.143V5.143C482.342 5.143 482.946 5.17886 483.569 5.78678C484.204 6.40674 484.296 7.07387 484.296 7.26H472.296ZM487.224 11H481.224V17H487.224V11ZM492.746 11V17H498.746V11H492.746ZM492.746 9.548H498.746V3.548H492.746V9.548ZM488.918 9.548H482.918V15.548H488.918V9.548ZM488.918 7.744V1.744H482.918V7.744H488.918ZM492.229 7.744V13.744H498.229V7.744H492.229ZM492.229 6.446H498.229V0.446H492.229V6.446ZM488.918 6.446H482.918V12.446H488.918V6.446ZM488.918 4.752V-1.248H482.918V4.752H488.918ZM492.68 4.752V10.752H498.68V4.752H492.68ZM492.68 3.3H498.68V-2.7H492.68V3.3ZM487.224 3.3V-2.7H481.224V3.3H487.224ZM487.224 17H492.746V5H487.224V17ZM498.746 11V9.548H486.746V11H498.746ZM492.746 3.548H488.918V15.548H492.746V3.548ZM494.918 9.548V7.744H482.918V9.548H494.918ZM488.918 13.744H492.229V1.744H488.918V13.744ZM498.229 7.744V6.446H486.229V7.744H498.229ZM492.229 0.446H488.918V12.446H492.229V0.446ZM494.918 6.446V4.752H482.918V6.446H494.918ZM488.918 10.752H492.68V-1.248H488.918V10.752ZM498.68 4.752V3.3H486.68V4.752H498.68ZM492.68 -2.7H487.224V9.3H492.68V-2.7ZM481.224 3.3V11H493.224V3.3H481.224ZM494.627 11H488.627V17H494.627V11ZM496.31 11V17H502.31V11H496.31ZM496.31 8.195V2.195H490.31V8.195H496.31ZM498.07 8.195L503.603 5.87345L502.059 2.195H498.07V8.195ZM499.247 11L493.715 13.3216L495.258 17H499.247V11ZM501.04 11V17H510.441L506.482 8.47333L501.04 11ZM499.61 7.92L497.225 2.41467L491.576 4.86258L494.168 10.4467L499.61 7.92ZM494.627 3.3V-2.7H488.627V3.3H494.627ZM496.31 6.897H490.31V12.897H496.31V6.897ZM496.31 4.686V-1.314H490.31V4.686H496.31ZM494.627 17H496.31V5H494.627V17ZM502.31 11V8.195H490.31V11H502.31ZM496.31 14.195H498.07V2.195H496.31V14.195ZM492.538 10.5166L493.715 13.3216L504.78 8.67845L503.603 5.87345L492.538 10.5166ZM499.247 17H501.04V5H499.247V17ZM506.482 8.47333L505.052 5.39333L494.168 10.4467L495.598 13.5267L506.482 8.47333ZM501.996 13.4253C505.64 11.8461 506.974 8.49039 506.974 5.775H494.974C494.974 5.36892 495.061 4.71185 495.475 3.99877C495.924 3.22619 496.584 2.69221 497.225 2.41467L501.996 13.4253ZM506.974 5.775V5.753H494.974V5.775H506.974ZM506.974 5.753C506.974 3.98266 506.435 1.6659 504.551 -0.201249C502.649 -2.08716 500.197 -2.7 498.015 -2.7V9.3C498.055 9.3 497.083 9.29216 496.104 8.322C495.144 7.3706 494.974 6.28034 494.974 5.753H506.974ZM498.015 -2.7H494.627V9.3H498.015V-2.7ZM488.627 3.3V11H500.627V3.3H488.627ZM502.31 6.897V4.686H490.31V6.897H502.31ZM496.31 10.686H498.026V-1.314H496.31V10.686ZM498.026 10.686C497.56 10.686 496.171 10.5704 494.884 9.36115C493.539 8.09708 493.291 6.57346 493.291 5.786H505.291C505.291 4.33853 504.856 2.26492 503.101 0.615853C501.405 -0.9784 499.383 -1.314 498.026 -1.314V10.686ZM493.291 5.786V5.808H505.291V5.786H493.291ZM493.291 5.808C493.291 4.98842 493.554 3.46374 494.9 2.20856C496.182 1.01274 497.559 0.897 498.026 0.897V12.897C499.384 12.897 501.394 12.5613 503.086 10.9832C504.841 9.34576 505.291 7.27657 505.291 5.808H493.291ZM498.026 0.897H496.31V12.897H498.026V0.897ZM503.199 8.569L497.245 9.31321L497.902 14.569H503.199V8.569ZM504.013 8.569V14.569H509.31L509.967 9.31321L504.013 8.569ZM504.178 7.249L498.234 6.43312L498.229 6.46893L498.224 6.50479L504.178 7.249ZM504.53 3.3H510.53V-2.7H504.53V3.3ZM502.693 3.3V-2.7H496.693V3.3H502.693ZM503.034 7.249L508.988 6.50479L508.985 6.48552L508.983 6.46627L503.034 7.249ZM502.715 11H496.715V17H502.715V11ZM504.497 11V17H510.497V11H504.497ZM504.497 9.295H510.497V3.295H504.497V9.295ZM502.715 9.295V3.295H496.715V9.295H502.715ZM503.199 14.569H504.013V2.569H503.199V14.569ZM509.967 9.31321L510.132 7.99321L498.224 6.50479L498.059 7.82479L509.967 9.31321ZM510.122 8.06488C510.358 6.34869 510.53 4.90373 510.53 3.3H498.53C498.53 4.02827 498.46 4.78331 498.234 6.43312L510.122 8.06488ZM504.53 -2.7H502.693V9.3H504.53V-2.7ZM496.693 3.3C496.693 4.90501 496.864 6.34604 497.085 8.03173L508.983 6.46627C508.765 4.80796 508.693 4.04899 508.693 3.3H496.693ZM497.08 7.99321L497.245 9.31321L509.153 7.82479L508.988 6.50479L497.08 7.99321ZM502.715 17H504.497V5H502.715V17ZM510.497 11V9.295H498.497V11H510.497ZM504.497 3.295H502.715V15.295H504.497V3.295ZM496.715 9.295V11H508.715V9.295H496.715Z" fill="white"/>
<path d="M273.624 11H276.407C278.75 11 280.279 9.526 280.279 7.161V7.139C280.279 4.785 278.75 3.3 276.407 3.3H273.624V11ZM275.318 9.581V4.719H276.407C277.771 4.719 278.541 5.632 278.541 7.139V7.161C278.541 8.679 277.793 9.581 276.407 9.581H275.318ZM281.118 11H282.79L283.241 9.603H286.354L286.805 11H288.488L285.782 3.3H283.824L281.118 11ZM284.77 4.884H284.825L285.925 8.283H283.67L284.77 4.884ZM290.01 11H291.594V5.962H291.605L294.949 11H296.467V3.3H294.883V8.305H294.872L291.55 3.3H290.01V11ZM302.3 11.143C303.345 11.143 304.39 10.857 305.226 10.373V6.765H301.926V8.041H303.675V9.482C303.29 9.658 302.828 9.757 302.333 9.757C300.859 9.757 300.023 8.778 300.023 7.249V7.227C300.023 5.654 300.837 4.576 302.443 4.576C303.147 4.576 303.818 4.785 304.412 5.225L305.325 4.026C304.5 3.465 303.521 3.146 302.432 3.146C299.847 3.146 298.296 4.818 298.296 7.238V7.26C298.296 9.603 299.847 11.143 302.3 11.143ZM307.224 11H312.746V9.548H308.918V7.744H312.229V6.446H308.918V4.752H312.68V3.3H307.224V11ZM314.627 11H316.31V8.195H318.07L319.247 11H321.04L319.61 7.92C320.6 7.491 320.974 6.644 320.974 5.775V5.753C320.974 4.51 320.237 3.3 318.015 3.3H314.627V11ZM316.31 6.897V4.686H318.026C318.917 4.686 319.291 5.126 319.291 5.786V5.808C319.291 6.457 318.917 6.897 318.026 6.897H316.31ZM323.199 8.569H324.013L324.178 7.249C324.409 5.566 324.53 4.466 324.53 3.3H322.693C322.693 4.477 322.814 5.577 323.034 7.249L323.199 8.569ZM322.715 11H324.497V9.295H322.715V11Z" fill="#B7BBBB"/>
<path d="M273.624 11H267.624V17H273.624V11ZM273.624 3.3V-2.7H267.624V3.3H273.624ZM275.318 9.581H269.318V15.581H275.318V9.581ZM275.318 4.719V-1.281H269.318V4.719H275.318ZM273.624 17H276.407V5H273.624V17ZM276.407 17C278.848 17 281.432 16.2095 283.43 14.2447C285.44 12.2672 286.279 9.66667 286.279 7.161H274.279C274.279 7.02033 274.354 6.33926 275.014 5.69003C275.661 5.0535 276.309 5 276.407 5V17ZM286.279 7.161V7.139H274.279V7.161H286.279ZM286.279 7.139C286.279 4.63271 285.436 2.03746 283.434 0.0637594C281.442 -1.89931 278.861 -2.7 276.407 -2.7V9.3C276.297 9.3 275.651 9.24181 275.01 8.60974C274.358 7.96704 274.279 7.29129 274.279 7.139H286.279ZM276.407 -2.7H273.624V9.3H276.407V-2.7ZM267.624 3.3V11H279.624V3.3H267.624ZM281.318 9.581V4.719H269.318V9.581H281.318ZM275.318 10.719H276.407V-1.281H275.318V10.719ZM276.407 10.719C275.674 10.719 274.433 10.4197 273.462 9.30538C272.593 8.30769 272.541 7.34147 272.541 7.139H284.541C284.541 5.42953 284.105 3.25331 282.51 1.42237C280.813 -0.525177 278.504 -1.281 276.407 -1.281V10.719ZM272.541 7.139V7.161H284.541V7.139H272.541ZM272.541 7.161C272.541 7.01435 272.574 6.03218 273.462 5.00838C274.463 3.85462 275.731 3.581 276.407 3.581V15.581C278.47 15.581 280.805 14.8564 282.526 12.8721C284.135 11.0178 284.541 8.82565 284.541 7.161H272.541ZM276.407 3.581H275.318V15.581H276.407V3.581ZM281.118 11L275.458 9.0107L272.65 17H281.118V11ZM282.79 11V17H287.158L288.5 12.8433L282.79 11ZM283.241 9.603V3.603H278.873L277.531 7.75967L283.241 9.603ZM286.354 9.603L292.064 7.75967L290.722 3.603H286.354V9.603ZM286.805 11L281.095 12.8433L282.437 17H286.805V11ZM288.488 11V17H296.956L294.149 9.01069L288.488 11ZM285.782 3.3L291.443 1.31069L290.033 -2.7H285.782V3.3ZM283.824 3.3V-2.7H279.573L278.164 1.31069L283.824 3.3ZM284.77 4.884V-1.116H280.406L279.062 3.03659L284.77 4.884ZM284.825 4.884L290.534 3.03659L289.19 -1.116H284.825V4.884ZM285.925 8.283V14.283H294.173L291.634 6.43559L285.925 8.283ZM283.67 8.283L277.962 6.43559L275.422 14.283H283.67V8.283ZM281.118 17H282.79V5H281.118V17ZM288.5 12.8433L288.951 11.4463L277.531 7.75967L277.08 9.15667L288.5 12.8433ZM283.241 15.603H286.354V3.603H283.241V15.603ZM280.644 11.4463L281.095 12.8433L292.515 9.15667L292.064 7.75967L280.644 11.4463ZM286.805 17H288.488V5H286.805V17ZM294.149 9.01069L291.443 1.31069L280.122 5.2893L282.828 12.9893L294.149 9.01069ZM285.782 -2.7H283.824V9.3H285.782V-2.7ZM278.164 1.31069L275.458 9.0107L286.779 12.9893L289.485 5.2893L278.164 1.31069ZM284.77 10.884H284.825V-1.116H284.77V10.884ZM279.117 6.73141L280.217 10.1304L291.634 6.43559L290.534 3.03659L279.117 6.73141ZM285.925 2.283H283.67V14.283H285.925V2.283ZM289.379 10.1304L290.479 6.73141L279.062 3.03659L277.962 6.43559L289.379 10.1304ZM290.01 11H284.01V17H290.01V11ZM291.594 11V17H297.594V11H291.594ZM291.594 5.962V-0.0380003H285.594V5.962H291.594ZM291.605 5.962L296.604 2.64388L294.824 -0.0380003H291.605V5.962ZM294.949 11L289.95 14.3181L291.73 17H294.949V11ZM296.467 11V17H302.467V11H296.467ZM296.467 3.3H302.467V-2.7H296.467V3.3ZM294.883 3.3V-2.7H288.883V3.3H294.883ZM294.883 8.305V14.305H300.883V8.305H294.883ZM294.872 8.305L289.873 11.6231L291.653 14.305H294.872V8.305ZM291.55 3.3L296.549 -0.0180532L294.769 -2.7H291.55V3.3ZM290.01 3.3V-2.7H284.01V3.3H290.01ZM290.01 17H291.594V5H290.01V17ZM297.594 11V5.962H285.594V11H297.594ZM291.594 11.962H291.605V-0.0380003H291.594V11.962ZM286.606 9.28012L289.95 14.3181L299.948 7.68188L296.604 2.64388L286.606 9.28012ZM294.949 17H296.467V5H294.949V17ZM302.467 11V3.3H290.467V11H302.467ZM296.467 -2.7H294.883V9.3H296.467V-2.7ZM288.883 3.3V8.305H300.883V3.3H288.883ZM294.883 2.305H294.872V14.305H294.883V2.305ZM299.871 4.98695L296.549 -0.0180532L286.551 6.61805L289.873 11.6231L299.871 4.98695ZM291.55 -2.7H290.01V9.3H291.55V-2.7ZM284.01 3.3V11H296.01V3.3H284.01ZM305.226 10.373L308.232 15.5656L311.226 13.8323V10.373H305.226ZM305.226 6.765H311.226V0.765H305.226V6.765ZM301.926 6.765V0.765H295.926V6.765H301.926ZM301.926 8.041H295.926V14.041H301.926V8.041ZM303.675 8.041H309.675V2.041H303.675V8.041ZM303.675 9.482L306.169 14.9388L309.675 13.3364V9.482H303.675ZM304.412 5.225L300.84 10.0463L305.598 13.5707L309.185 8.85994L304.412 5.225ZM305.325 4.026L310.098 7.66094L313.934 2.62425L308.699 -0.935557L305.325 4.026ZM302.3 17.143C304.38 17.143 306.465 16.5887 308.232 15.5656L302.219 5.18044C302.257 5.15893 302.281 5.14842 302.291 5.14441C302.301 5.14031 302.303 5.13998 302.299 5.14103C302.295 5.14204 302.291 5.14289 302.288 5.14331C302.285 5.14373 302.288 5.143 302.3 5.143V17.143ZM311.226 10.373V6.765H299.226V10.373H311.226ZM305.226 0.765H301.926V12.765H305.226V0.765ZM295.926 6.765V8.041H307.926V6.765H295.926ZM301.926 14.041H303.675V2.041H301.926V14.041ZM297.675 8.041V9.482H309.675V8.041H297.675ZM301.18 4.02515C301.651 3.81009 302.05 3.757 302.333 3.757V15.757C303.605 15.757 304.929 15.5059 306.169 14.9388L301.18 4.02515ZM302.333 3.757C302.989 3.757 304.146 4.02173 305.08 5.05715C305.938 6.00879 306.023 6.96362 306.023 7.249H294.023C294.023 9.06338 294.525 11.2722 296.17 13.0956C297.891 15.0028 300.203 15.757 302.333 15.757V3.757ZM306.023 7.249V7.227H294.023V7.249H306.023ZM306.023 7.227C306.023 7.40653 305.977 8.30387 305.163 9.24273C304.239 10.3088 303.068 10.576 302.443 10.576V-1.424C300.212 -1.424 297.831 -0.617832 296.098 1.38051C294.475 3.25163 294.023 5.47447 294.023 7.227H306.023ZM302.443 10.576C302.195 10.576 301.911 10.5383 301.614 10.4417C301.315 10.3446 301.053 10.2042 300.84 10.0463L307.983 0.403654C306.325 -0.824429 304.394 -1.424 302.443 -1.424V10.576ZM309.185 8.85994L310.098 7.66094L300.551 0.39106L299.638 1.59006L309.185 8.85994ZM308.699 -0.935557C306.89 -2.16514 304.738 -2.854 302.432 -2.854V9.146C302.385 9.146 302.303 9.13823 302.202 9.10712C302.103 9.07632 302.017 9.03246 301.951 8.98756L308.699 -0.935557ZM302.432 -2.854C299.812 -2.854 297.143 -1.97641 295.123 0.0704831C293.12 2.10094 292.296 4.73466 292.296 7.238H304.296C304.296 7.32134 304.247 7.90906 303.665 8.49852C303.068 9.1044 302.467 9.146 302.432 9.146V-2.854ZM292.296 7.238V7.26H304.296V7.238H292.296ZM292.296 7.26C292.296 9.78913 293.163 12.3978 295.187 14.3735C297.198 16.3371 299.804 17.143 302.3 17.143V5.143C302.342 5.143 302.946 5.17886 303.569 5.78678C304.204 6.40674 304.296 7.07387 304.296 7.26H292.296ZM307.224 11H301.224V17H307.224V11ZM312.746 11V17H318.746V11H312.746ZM312.746 9.548H318.746V3.548H312.746V9.548ZM308.918 9.548H302.918V15.548H308.918V9.548ZM308.918 7.744V1.744H302.918V7.744H308.918ZM312.229 7.744V13.744H318.229V7.744H312.229ZM312.229 6.446H318.229V0.446H312.229V6.446ZM308.918 6.446H302.918V12.446H308.918V6.446ZM308.918 4.752V-1.248H302.918V4.752H308.918ZM312.68 4.752V10.752H318.68V4.752H312.68ZM312.68 3.3H318.68V-2.7H312.68V3.3ZM307.224 3.3V-2.7H301.224V3.3H307.224ZM307.224 17H312.746V5H307.224V17ZM318.746 11V9.548H306.746V11H318.746ZM312.746 3.548H308.918V15.548H312.746V3.548ZM314.918 9.548V7.744H302.918V9.548H314.918ZM308.918 13.744H312.229V1.744H308.918V13.744ZM318.229 7.744V6.446H306.229V7.744H318.229ZM312.229 0.446H308.918V12.446H312.229V0.446ZM314.918 6.446V4.752H302.918V6.446H314.918ZM308.918 10.752H312.68V-1.248H308.918V10.752ZM318.68 4.752V3.3H306.68V4.752H318.68ZM312.68 -2.7H307.224V9.3H312.68V-2.7ZM301.224 3.3V11H313.224V3.3H301.224ZM314.627 11H308.627V17H314.627V11ZM316.31 11V17H322.31V11H316.31ZM316.31 8.195V2.195H310.31V8.195H316.31ZM318.07 8.195L323.603 5.87345L322.059 2.195H318.07V8.195ZM319.247 11L313.715 13.3216L315.258 17H319.247V11ZM321.04 11V17H330.441L326.482 8.47333L321.04 11ZM319.61 7.92L317.225 2.41467L311.576 4.86258L314.168 10.4467L319.61 7.92ZM314.627 3.3V-2.7H308.627V3.3H314.627ZM316.31 6.897H310.31V12.897H316.31V6.897ZM316.31 4.686V-1.314H310.31V4.686H316.31ZM314.627 17H316.31V5H314.627V17ZM322.31 11V8.195H310.31V11H322.31ZM316.31 14.195H318.07V2.195H316.31V14.195ZM312.538 10.5166L313.715 13.3216L324.78 8.67845L323.603 5.87345L312.538 10.5166ZM319.247 17H321.04V5H319.247V17ZM326.482 8.47333L325.052 5.39333L314.168 10.4467L315.598 13.5267L326.482 8.47333ZM321.996 13.4253C325.64 11.8461 326.974 8.49039 326.974 5.775H314.974C314.974 5.36892 315.061 4.71185 315.475 3.99877C315.924 3.22619 316.584 2.69221 317.225 2.41467L321.996 13.4253ZM326.974 5.775V5.753H314.974V5.775H326.974ZM326.974 5.753C326.974 3.98266 326.435 1.6659 324.551 -0.201249C322.649 -2.08716 320.197 -2.7 318.015 -2.7V9.3C318.055 9.3 317.083 9.29216 316.104 8.322C315.144 7.3706 314.974 6.28034 314.974 5.753H326.974ZM318.015 -2.7H314.627V9.3H318.015V-2.7ZM308.627 3.3V11H320.627V3.3H308.627ZM322.31 6.897V4.686H310.31V6.897H322.31ZM316.31 10.686H318.026V-1.314H316.31V10.686ZM318.026 10.686C317.56 10.686 316.171 10.5704 314.884 9.36115C313.539 8.09708 313.291 6.57346 313.291 5.786H325.291C325.291 4.33853 324.856 2.26492 323.101 0.615853C321.405 -0.9784 319.383 -1.314 318.026 -1.314V10.686ZM313.291 5.786V5.808H325.291V5.786H313.291ZM313.291 5.808C313.291 4.98842 313.554 3.46374 314.9 2.20856C316.182 1.01274 317.559 0.897 318.026 0.897V12.897C319.384 12.897 321.394 12.5613 323.086 10.9832C324.841 9.34576 325.291 7.27657 325.291 5.808H313.291ZM318.026 0.897H316.31V12.897H318.026V0.897ZM323.199 8.569L317.245 9.31321L317.902 14.569H323.199V8.569ZM324.013 8.569V14.569H329.31L329.967 9.31321L324.013 8.569ZM324.178 7.249L318.234 6.43312L318.229 6.46893L318.224 6.50479L324.178 7.249ZM324.53 3.3H330.53V-2.7H324.53V3.3ZM322.693 3.3V-2.7H316.693V3.3H322.693ZM323.034 7.249L328.988 6.50479L328.985 6.48552L328.983 6.46627L323.034 7.249ZM322.715 11H316.715V17H322.715V11ZM324.497 11V17H330.497V11H324.497ZM324.497 9.295H330.497V3.295H324.497V9.295ZM322.715 9.295V3.295H316.715V9.295H322.715ZM323.199 14.569H324.013V2.569H323.199V14.569ZM329.967 9.31321L330.132 7.99321L318.224 6.50479L318.059 7.82479L329.967 9.31321ZM330.122 8.06488C330.358 6.34869 330.53 4.90373 330.53 3.3H318.53C318.53 4.02827 318.46 4.78331 318.234 6.43312L330.122 8.06488ZM324.53 -2.7H322.693V9.3H324.53V-2.7ZM316.693 3.3C316.693 4.90501 316.864 6.34604 317.085 8.03173L328.983 6.46627C328.765 4.80796 328.693 4.04899 328.693 3.3H316.693ZM317.08 7.99321L317.245 9.31321L329.153 7.82479L328.988 6.50479L317.08 7.99321ZM322.715 17H324.497V5H322.715V17ZM330.497 11V9.295H318.497V11H330.497ZM324.497 3.295H322.715V15.295H324.497V3.295ZM316.715 9.295V11H328.715V9.295H316.715Z" fill="white"/>
<path d="M93.6242 11H96.4072C98.7502 11 100.279 9.526 100.279 7.161V7.139C100.279 4.785 98.7502 3.3 96.4072 3.3H93.6242V11ZM95.3182 9.581V4.719H96.4072C97.7712 4.719 98.5412 5.632 98.5412 7.139V7.161C98.5412 8.679 97.7932 9.581 96.4072 9.581H95.3182ZM101.118 11H102.79L103.241 9.603H106.354L106.805 11H108.488L105.782 3.3H103.824L101.118 11ZM104.77 4.884H104.825L105.925 8.283H103.67L104.77 4.884ZM110.01 11H111.594V5.962H111.605L114.949 11H116.467V3.3H114.883V8.305H114.872L111.55 3.3H110.01V11ZM122.3 11.143C123.345 11.143 124.39 10.857 125.226 10.373V6.765H121.926V8.041H123.675V9.482C123.29 9.658 122.828 9.757 122.333 9.757C120.859 9.757 120.023 8.778 120.023 7.249V7.227C120.023 5.654 120.837 4.576 122.443 4.576C123.147 4.576 123.818 4.785 124.412 5.225L125.325 4.026C124.5 3.465 123.521 3.146 122.432 3.146C119.847 3.146 118.296 4.818 118.296 7.238V7.26C118.296 9.603 119.847 11.143 122.3 11.143ZM127.224 11H132.746V9.548H128.918V7.744H132.229V6.446H128.918V4.752H132.68V3.3H127.224V11ZM134.627 11H136.31V8.195H138.07L139.247 11H141.04L139.61 7.92C140.6 7.491 140.974 6.644 140.974 5.775V5.753C140.974 4.51 140.237 3.3 138.015 3.3H134.627V11ZM136.31 6.897V4.686H138.026C138.917 4.686 139.291 5.126 139.291 5.786V5.808C139.291 6.457 138.917 6.897 138.026 6.897H136.31ZM143.199 8.569H144.013L144.178 7.249C144.409 5.566 144.53 4.466 144.53 3.3H142.693C142.693 4.477 142.814 5.577 143.034 7.249L143.199 8.569ZM142.715 11H144.497V9.295H142.715V11Z" fill="#B7BBBB"/>
<path d="M93.6242 11H87.6242V17H93.6242V11ZM93.6242 3.3V-2.7H87.6242V3.3H93.6242ZM95.3182 9.581H89.3182V15.581H95.3182V9.581ZM95.3182 4.719V-1.281H89.3182V4.719H95.3182ZM93.6242 17H96.4072V5H93.6242V17ZM96.4072 17C98.8483 17 101.432 16.2095 103.43 14.2447C105.44 12.2672 106.279 9.66667 106.279 7.161H94.2792C94.2792 7.02033 94.3542 6.33926 95.0142 5.69003C95.6613 5.0535 96.3092 5 96.4072 5V17ZM106.279 7.161V7.139H94.2792V7.161H106.279ZM106.279 7.139C106.279 4.63271 105.436 2.03746 103.434 0.0637594C101.442 -1.89931 98.8605 -2.7 96.4072 -2.7V9.3C96.297 9.3 95.651 9.24181 95.0098 8.60974C94.3578 7.96704 94.2792 7.29129 94.2792 7.139H106.279ZM96.4072 -2.7H93.6242V9.3H96.4072V-2.7ZM87.6242 3.3V11H99.6242V3.3H87.6242ZM101.318 9.581V4.719H89.3182V9.581H101.318ZM95.3182 10.719H96.4072V-1.281H95.3182V10.719ZM96.4072 10.719C95.6743 10.719 94.4328 10.4197 93.462 9.30538C92.5927 8.30769 92.5412 7.34147 92.5412 7.139H104.541C104.541 5.42953 104.105 3.25331 102.51 1.42237C100.813 -0.525177 98.5042 -1.281 96.4072 -1.281V10.719ZM92.5412 7.139V7.161H104.541V7.139H92.5412ZM92.5412 7.161C92.5412 7.01435 92.5736 6.03218 93.4618 5.00838C94.4628 3.85462 95.7305 3.581 96.4072 3.581V15.581C98.47 15.581 100.805 14.8564 102.526 12.8721C104.135 11.0178 104.541 8.82565 104.541 7.161H92.5412ZM96.4072 3.581H95.3182V15.581H96.4072V3.581ZM101.118 11L95.4575 9.0107L92.6499 17H101.118V11ZM102.79 11V17H107.158L108.5 12.8433L102.79 11ZM103.241 9.603V3.603H98.8733L97.5313 7.75967L103.241 9.603ZM106.354 9.603L112.064 7.75967L110.722 3.603H106.354V9.603ZM106.805 11L101.095 12.8433L102.437 17H106.805V11ZM108.488 11V17H116.956L114.149 9.01069L108.488 11ZM105.782 3.3L111.443 1.31069L110.033 -2.7H105.782V3.3ZM103.824 3.3V-2.7H99.573L98.1635 1.31069L103.824 3.3ZM104.77 4.884V-1.116H100.406L99.0617 3.03659L104.77 4.884ZM104.825 4.884L110.534 3.03659L109.19 -1.116H104.825V4.884ZM105.925 8.283V14.283H114.173L111.634 6.43559L105.925 8.283ZM103.67 8.283L97.9617 6.43559L95.422 14.283H103.67V8.283ZM101.118 17H102.79V5H101.118V17ZM108.5 12.8433L108.951 11.4463L97.5313 7.75967L97.0803 9.15667L108.5 12.8433ZM103.241 15.603H106.354V3.603H103.241V15.603ZM100.644 11.4463L101.095 12.8433L112.515 9.15667L112.064 7.75967L100.644 11.4463ZM106.805 17H108.488V5H106.805V17ZM114.149 9.01069L111.443 1.31069L100.122 5.2893L102.828 12.9893L114.149 9.01069ZM105.782 -2.7H103.824V9.3H105.782V-2.7ZM98.1635 1.31069L95.4575 9.0107L106.779 12.9893L109.485 5.2893L98.1635 1.31069ZM104.77 10.884H104.825V-1.116H104.77V10.884ZM99.1167 6.73141L100.217 10.1304L111.634 6.43559L110.534 3.03659L99.1167 6.73141ZM105.925 2.283H103.67V14.283H105.925V2.283ZM109.379 10.1304L110.479 6.73141L99.0617 3.03659L97.9617 6.43559L109.379 10.1304ZM110.01 11H104.01V17H110.01V11ZM111.594 11V17H117.594V11H111.594ZM111.594 5.962V-0.0380003H105.594V5.962H111.594ZM111.605 5.962L116.604 2.64388L114.824 -0.0380003H111.605V5.962ZM114.949 11L109.95 14.3181L111.73 17H114.949V11ZM116.467 11V17H122.467V11H116.467ZM116.467 3.3H122.467V-2.7H116.467V3.3ZM114.883 3.3V-2.7H108.883V3.3H114.883ZM114.883 8.305V14.305H120.883V8.305H114.883ZM114.872 8.305L109.873 11.6231L111.653 14.305H114.872V8.305ZM111.55 3.3L116.549 -0.0180532L114.769 -2.7H111.55V3.3ZM110.01 3.3V-2.7H104.01V3.3H110.01ZM110.01 17H111.594V5H110.01V17ZM117.594 11V5.962H105.594V11H117.594ZM111.594 11.962H111.605V-0.0380003H111.594V11.962ZM106.606 9.28012L109.95 14.3181L119.948 7.68188L116.604 2.64388L106.606 9.28012ZM114.949 17H116.467V5H114.949V17ZM122.467 11V3.3H110.467V11H122.467ZM116.467 -2.7H114.883V9.3H116.467V-2.7ZM108.883 3.3V8.305H120.883V3.3H108.883ZM114.883 2.305H114.872V14.305H114.883V2.305ZM119.871 4.98695L116.549 -0.0180532L106.551 6.61805L109.873 11.6231L119.871 4.98695ZM111.55 -2.7H110.01V9.3H111.55V-2.7ZM104.01 3.3V11H116.01V3.3H104.01ZM125.226 10.373L128.232 15.5656L131.226 13.8323V10.373H125.226ZM125.226 6.765H131.226V0.765H125.226V6.765ZM121.926 6.765V0.765H115.926V6.765H121.926ZM121.926 8.041H115.926V14.041H121.926V8.041ZM123.675 8.041H129.675V2.041H123.675V8.041ZM123.675 9.482L126.169 14.9388L129.675 13.3364V9.482H123.675ZM124.412 5.225L120.84 10.0463L125.598 13.5707L129.185 8.85994L124.412 5.225ZM125.325 4.026L130.098 7.66094L133.934 2.62425L128.699 -0.935557L125.325 4.026ZM122.3 17.143C124.38 17.143 126.465 16.5887 128.232 15.5656L122.219 5.18044C122.257 5.15893 122.281 5.14842 122.291 5.14441C122.301 5.14031 122.303 5.13998 122.299 5.14103C122.295 5.14204 122.291 5.14289 122.288 5.14331C122.285 5.14373 122.288 5.143 122.3 5.143V17.143ZM131.226 10.373V6.765H119.226V10.373H131.226ZM125.226 0.765H121.926V12.765H125.226V0.765ZM115.926 6.765V8.041H127.926V6.765H115.926ZM121.926 14.041H123.675V2.041H121.926V14.041ZM117.675 8.041V9.482H129.675V8.041H117.675ZM121.18 4.02515C121.651 3.81009 122.05 3.757 122.333 3.757V15.757C123.605 15.757 124.929 15.5059 126.169 14.9388L121.18 4.02515ZM122.333 3.757C122.989 3.757 124.146 4.02173 125.08 5.05715C125.938 6.00879 126.023 6.96362 126.023 7.249H114.023C114.023 9.06338 114.525 11.2722 116.17 13.0956C117.891 15.0028 120.203 15.757 122.333 15.757V3.757ZM126.023 7.249V7.227H114.023V7.249H126.023ZM126.023 7.227C126.023 7.40653 125.977 8.30387 125.163 9.24273C124.239 10.3088 123.068 10.576 122.443 10.576V-1.424C120.212 -1.424 117.831 -0.617832 116.098 1.38051C114.475 3.25163 114.023 5.47447 114.023 7.227H126.023ZM122.443 10.576C122.195 10.576 121.911 10.5383 121.614 10.4417C121.315 10.3446 121.053 10.2042 120.84 10.0463L127.983 0.403654C126.325 -0.824429 124.394 -1.424 122.443 -1.424V10.576ZM129.185 8.85994L130.098 7.66094L120.551 0.39106L119.638 1.59006L129.185 8.85994ZM128.699 -0.935557C126.89 -2.16514 124.738 -2.854 122.432 -2.854V9.146C122.385 9.146 122.303 9.13823 122.202 9.10712C122.103 9.07632 122.017 9.03246 121.951 8.98756L128.699 -0.935557ZM122.432 -2.854C119.812 -2.854 117.143 -1.97641 115.123 0.0704831C113.12 2.10094 112.296 4.73466 112.296 7.238H124.296C124.296 7.32134 124.247 7.90906 123.665 8.49852C123.068 9.1044 122.467 9.146 122.432 9.146V-2.854ZM112.296 7.238V7.26H124.296V7.238H112.296ZM112.296 7.26C112.296 9.78913 113.163 12.3978 115.187 14.3735C117.198 16.3371 119.804 17.143 122.3 17.143V5.143C122.342 5.143 122.946 5.17886 123.569 5.78678C124.204 6.40674 124.296 7.07387 124.296 7.26H112.296ZM127.224 11H121.224V17H127.224V11ZM132.746 11V17H138.746V11H132.746ZM132.746 9.548H138.746V3.548H132.746V9.548ZM128.918 9.548H122.918V15.548H128.918V9.548ZM128.918 7.744V1.744H122.918V7.744H128.918ZM132.229 7.744V13.744H138.229V7.744H132.229ZM132.229 6.446H138.229V0.446H132.229V6.446ZM128.918 6.446H122.918V12.446H128.918V6.446ZM128.918 4.752V-1.248H122.918V4.752H128.918ZM132.68 4.752V10.752H138.68V4.752H132.68ZM132.68 3.3H138.68V-2.7H132.68V3.3ZM127.224 3.3V-2.7H121.224V3.3H127.224ZM127.224 17H132.746V5H127.224V17ZM138.746 11V9.548H126.746V11H138.746ZM132.746 3.548H128.918V15.548H132.746V3.548ZM134.918 9.548V7.744H122.918V9.548H134.918ZM128.918 13.744H132.229V1.744H128.918V13.744ZM138.229 7.744V6.446H126.229V7.744H138.229ZM132.229 0.446H128.918V12.446H132.229V0.446ZM134.918 6.446V4.752H122.918V6.446H134.918ZM128.918 10.752H132.68V-1.248H128.918V10.752ZM138.68 4.752V3.3H126.68V4.752H138.68ZM132.68 -2.7H127.224V9.3H132.68V-2.7ZM121.224 3.3V11H133.224V3.3H121.224ZM134.627 11H128.627V17H134.627V11ZM136.31 11V17H142.31V11H136.31ZM136.31 8.195V2.195H130.31V8.195H136.31ZM138.07 8.195L143.603 5.87345L142.059 2.195H138.07V8.195ZM139.247 11L133.715 13.3216L135.258 17H139.247V11ZM141.04 11V17H150.441L146.482 8.47333L141.04 11ZM139.61 7.92L137.225 2.41467L131.576 4.86258L134.168 10.4467L139.61 7.92ZM134.627 3.3V-2.7H128.627V3.3H134.627ZM136.31 6.897H130.31V12.897H136.31V6.897ZM136.31 4.686V-1.314H130.31V4.686H136.31ZM134.627 17H136.31V5H134.627V17ZM142.31 11V8.195H130.31V11H142.31ZM136.31 14.195H138.07V2.195H136.31V14.195ZM132.538 10.5166L133.715 13.3216L144.78 8.67845L143.603 5.87345L132.538 10.5166ZM139.247 17H141.04V5H139.247V17ZM146.482 8.47333L145.052 5.39333L134.168 10.4467L135.598 13.5267L146.482 8.47333ZM141.996 13.4253C145.64 11.8461 146.974 8.49039 146.974 5.775H134.974C134.974 5.36892 135.061 4.71185 135.475 3.99877C135.924 3.22619 136.584 2.69221 137.225 2.41467L141.996 13.4253ZM146.974 5.775V5.753H134.974V5.775H146.974ZM146.974 5.753C146.974 3.98266 146.435 1.6659 144.551 -0.201249C142.649 -2.08716 140.197 -2.7 138.015 -2.7V9.3C138.055 9.3 137.083 9.29216 136.104 8.322C135.144 7.3706 134.974 6.28034 134.974 5.753H146.974ZM138.015 -2.7H134.627V9.3H138.015V-2.7ZM128.627 3.3V11H140.627V3.3H128.627ZM142.31 6.897V4.686H130.31V6.897H142.31ZM136.31 10.686H138.026V-1.314H136.31V10.686ZM138.026 10.686C137.56 10.686 136.171 10.5704 134.884 9.36115C133.539 8.09708 133.291 6.57346 133.291 5.786H145.291C145.291 4.33853 144.856 2.26492 143.101 0.615853C141.405 -0.9784 139.383 -1.314 138.026 -1.314V10.686ZM133.291 5.786V5.808H145.291V5.786H133.291ZM133.291 5.808C133.291 4.98842 133.554 3.46374 134.9 2.20856C136.182 1.01274 137.559 0.897 138.026 0.897V12.897C139.384 12.897 141.394 12.5613 143.086 10.9832C144.841 9.34576 145.291 7.27657 145.291 5.808H133.291ZM138.026 0.897H136.31V12.897H138.026V0.897ZM143.199 8.569L137.245 9.31321L137.902 14.569H143.199V8.569ZM144.013 8.569V14.569H149.31L149.967 9.31321L144.013 8.569ZM144.178 7.249L138.234 6.43312L138.229 6.46893L138.224 6.50479L144.178 7.249ZM144.53 3.3H150.53V-2.7H144.53V3.3ZM142.693 3.3V-2.7H136.693V3.3H142.693ZM143.034 7.249L148.988 6.50479L148.985 6.48552L148.983 6.46627L143.034 7.249ZM142.715 11H136.715V17H142.715V11ZM144.497 11V17H150.497V11H144.497ZM144.497 9.295H150.497V3.295H144.497V9.295ZM142.715 9.295V3.295H136.715V9.295H142.715ZM143.199 14.569H144.013V2.569H143.199V14.569ZM149.967 9.31321L150.132 7.99321L138.224 6.50479L138.059 7.82479L149.967 9.31321ZM150.122 8.06488C150.358 6.34869 150.53 4.90373 150.53 3.3H138.53C138.53 4.02827 138.46 4.78331 138.234 6.43312L150.122 8.06488ZM144.53 -2.7H142.693V9.3H144.53V-2.7ZM136.693 3.3C136.693 4.90501 136.864 6.34604 137.085 8.03173L148.983 6.46627C148.765 4.80796 148.693 4.04899 148.693 3.3H136.693ZM137.08 7.99321L137.245 9.31321L149.153 7.82479L148.988 6.50479L137.08 7.99321ZM142.715 17H144.497V5H142.715V17ZM150.497 11V9.295H138.497V11H150.497ZM144.497 3.295H142.715V15.295H144.497V3.295ZM136.715 9.295V11H148.715V9.295H136.715Z" fill="white"/>
<path d="M633.624 11H636.407C638.75 11 640.279 9.526 640.279 7.161V7.139C640.279 4.785 638.75 3.3 636.407 3.3H633.624V11ZM635.318 9.581V4.719H636.407C637.771 4.719 638.541 5.632 638.541 7.139V7.161C638.541 8.679 637.793 9.581 636.407 9.581H635.318ZM641.118 11H642.79L643.241 9.603H646.354L646.805 11H648.488L645.782 3.3H643.824L641.118 11ZM644.77 4.884H644.825L645.925 8.283H643.67L644.77 4.884ZM650.01 11H651.594V5.962H651.605L654.949 11H656.467V3.3H654.883V8.305H654.872L651.55 3.3H650.01V11ZM662.3 11.143C663.345 11.143 664.39 10.857 665.226 10.373V6.765H661.926V8.041H663.675V9.482C663.29 9.658 662.828 9.757 662.333 9.757C660.859 9.757 660.023 8.778 660.023 7.249V7.227C660.023 5.654 660.837 4.576 662.443 4.576C663.147 4.576 663.818 4.785 664.412 5.225L665.325 4.026C664.5 3.465 663.521 3.146 662.432 3.146C659.847 3.146 658.296 4.818 658.296 7.238V7.26C658.296 9.603 659.847 11.143 662.3 11.143ZM667.224 11H672.746V9.548H668.918V7.744H672.229V6.446H668.918V4.752H672.68V3.3H667.224V11ZM674.627 11H676.31V8.195H678.07L679.247 11H681.04L679.61 7.92C680.6 7.491 680.974 6.644 680.974 5.775V5.753C680.974 4.51 680.237 3.3 678.015 3.3H674.627V11ZM676.31 6.897V4.686H678.026C678.917 4.686 679.291 5.126 679.291 5.786V5.808C679.291 6.457 678.917 6.897 678.026 6.897H676.31ZM683.199 8.569H684.013L684.178 7.249C684.409 5.566 684.53 4.466 684.53 3.3H682.693C682.693 4.477 682.814 5.577 683.034 7.249L683.199 8.569ZM682.715 11H684.497V9.295H682.715V11Z" fill="#B7BBBB"/>
<path d="M633.624 11H627.624V17H633.624V11ZM633.624 3.3V-2.7H627.624V3.3H633.624ZM635.318 9.581H629.318V15.581H635.318V9.581ZM635.318 4.719V-1.281H629.318V4.719H635.318ZM633.624 17H636.407V5H633.624V17ZM636.407 17C638.848 17 641.432 16.2095 643.43 14.2447C645.44 12.2672 646.279 9.66667 646.279 7.161H634.279C634.279 7.02033 634.354 6.33926 635.014 5.69003C635.661 5.0535 636.309 5 636.407 5V17ZM646.279 7.161V7.139H634.279V7.161H646.279ZM646.279 7.139C646.279 4.63271 645.436 2.03746 643.434 0.0637594C641.442 -1.89931 638.861 -2.7 636.407 -2.7V9.3C636.297 9.3 635.651 9.24181 635.01 8.60974C634.358 7.96704 634.279 7.29129 634.279 7.139H646.279ZM636.407 -2.7H633.624V9.3H636.407V-2.7ZM627.624 3.3V11H639.624V3.3H627.624ZM641.318 9.581V4.719H629.318V9.581H641.318ZM635.318 10.719H636.407V-1.281H635.318V10.719ZM636.407 10.719C635.674 10.719 634.433 10.4197 633.462 9.30538C632.593 8.30769 632.541 7.34147 632.541 7.139H644.541C644.541 5.42953 644.105 3.25331 642.51 1.42237C640.813 -0.525177 638.504 -1.281 636.407 -1.281V10.719ZM632.541 7.139V7.161H644.541V7.139H632.541ZM632.541 7.161C632.541 7.01435 632.574 6.03218 633.462 5.00838C634.463 3.85462 635.731 3.581 636.407 3.581V15.581C638.47 15.581 640.805 14.8564 642.526 12.8721C644.135 11.0178 644.541 8.82565 644.541 7.161H632.541ZM636.407 3.581H635.318V15.581H636.407V3.581ZM641.118 11L635.458 9.0107L632.65 17H641.118V11ZM642.79 11V17H647.158L648.5 12.8433L642.79 11ZM643.241 9.603V3.603H638.873L637.531 7.75967L643.241 9.603ZM646.354 9.603L652.064 7.75967L650.722 3.603H646.354V9.603ZM646.805 11L641.095 12.8433L642.437 17H646.805V11ZM648.488 11V17H656.956L654.149 9.01069L648.488 11ZM645.782 3.3L651.443 1.31069L650.033 -2.7H645.782V3.3ZM643.824 3.3V-2.7H639.573L638.164 1.31069L643.824 3.3ZM644.77 4.884V-1.116H640.406L639.062 3.03659L644.77 4.884ZM644.825 4.884L650.534 3.03659L649.19 -1.116H644.825V4.884ZM645.925 8.283V14.283H654.173L651.634 6.43559L645.925 8.283ZM643.67 8.283L637.962 6.43559L635.422 14.283H643.67V8.283ZM641.118 17H642.79V5H641.118V17ZM648.5 12.8433L648.951 11.4463L637.531 7.75967L637.08 9.15667L648.5 12.8433ZM643.241 15.603H646.354V3.603H643.241V15.603ZM640.644 11.4463L641.095 12.8433L652.515 9.15667L652.064 7.75967L640.644 11.4463ZM646.805 17H648.488V5H646.805V17ZM654.149 9.01069L651.443 1.31069L640.122 5.2893L642.828 12.9893L654.149 9.01069ZM645.782 -2.7H643.824V9.3H645.782V-2.7ZM638.164 1.31069L635.458 9.0107L646.779 12.9893L649.485 5.2893L638.164 1.31069ZM644.77 10.884H644.825V-1.116H644.77V10.884ZM639.117 6.73141L640.217 10.1304L651.634 6.43559L650.534 3.03659L639.117 6.73141ZM645.925 2.283H643.67V14.283H645.925V2.283ZM649.379 10.1304L650.479 6.73141L639.062 3.03659L637.962 6.43559L649.379 10.1304ZM650.01 11H644.01V17H650.01V11ZM651.594 11V17H657.594V11H651.594ZM651.594 5.962V-0.0380003H645.594V5.962H651.594ZM651.605 5.962L656.604 2.64388L654.824 -0.0380003H651.605V5.962ZM654.949 11L649.95 14.3181L651.73 17H654.949V11ZM656.467 11V17H662.467V11H656.467ZM656.467 3.3H662.467V-2.7H656.467V3.3ZM654.883 3.3V-2.7H648.883V3.3H654.883ZM654.883 8.305V14.305H660.883V8.305H654.883ZM654.872 8.305L649.873 11.6231L651.653 14.305H654.872V8.305ZM651.55 3.3L656.549 -0.0180532L654.769 -2.7H651.55V3.3ZM650.01 3.3V-2.7H644.01V3.3H650.01ZM650.01 17H651.594V5H650.01V17ZM657.594 11V5.962H645.594V11H657.594ZM651.594 11.962H651.605V-0.0380003H651.594V11.962ZM646.606 9.28012L649.95 14.3181L659.948 7.68188L656.604 2.64388L646.606 9.28012ZM654.949 17H656.467V5H654.949V17ZM662.467 11V3.3H650.467V11H662.467ZM656.467 -2.7H654.883V9.3H656.467V-2.7ZM648.883 3.3V8.305H660.883V3.3H648.883ZM654.883 2.305H654.872V14.305H654.883V2.305ZM659.871 4.98695L656.549 -0.0180532L646.551 6.61805L649.873 11.6231L659.871 4.98695ZM651.55 -2.7H650.01V9.3H651.55V-2.7ZM644.01 3.3V11H656.01V3.3H644.01ZM665.226 10.373L668.232 15.5656L671.226 13.8323V10.373H665.226ZM665.226 6.765H671.226V0.765H665.226V6.765ZM661.926 6.765V0.765H655.926V6.765H661.926ZM661.926 8.041H655.926V14.041H661.926V8.041ZM663.675 8.041H669.675V2.041H663.675V8.041ZM663.675 9.482L666.169 14.9388L669.675 13.3364V9.482H663.675ZM664.412 5.225L660.84 10.0463L665.598 13.5707L669.185 8.85994L664.412 5.225ZM665.325 4.026L670.098 7.66094L673.934 2.62425L668.699 -0.935557L665.325 4.026ZM662.3 17.143C664.38 17.143 666.465 16.5887 668.232 15.5656L662.219 5.18044C662.257 5.15893 662.281 5.14842 662.291 5.14441C662.301 5.14031 662.303 5.13998 662.299 5.14103C662.295 5.14204 662.291 5.14289 662.288 5.14331C662.285 5.14373 662.288 5.143 662.3 5.143V17.143ZM671.226 10.373V6.765H659.226V10.373H671.226ZM665.226 0.765H661.926V12.765H665.226V0.765ZM655.926 6.765V8.041H667.926V6.765H655.926ZM661.926 14.041H663.675V2.041H661.926V14.041ZM657.675 8.041V9.482H669.675V8.041H657.675ZM661.18 4.02515C661.651 3.81009 662.05 3.757 662.333 3.757V15.757C663.605 15.757 664.929 15.5059 666.169 14.9388L661.18 4.02515ZM662.333 3.757C662.989 3.757 664.146 4.02173 665.08 5.05715C665.938 6.00879 666.023 6.96362 666.023 7.249H654.023C654.023 9.06338 654.525 11.2722 656.17 13.0956C657.891 15.0028 660.203 15.757 662.333 15.757V3.757ZM666.023 7.249V7.227H654.023V7.249H666.023ZM666.023 7.227C666.023 7.40653 665.977 8.30387 665.163 9.24273C664.239 10.3088 663.068 10.576 662.443 10.576V-1.424C660.212 -1.424 657.831 -0.617832 656.098 1.38051C654.475 3.25163 654.023 5.47447 654.023 7.227H666.023ZM662.443 10.576C662.195 10.576 661.911 10.5383 661.614 10.4417C661.315 10.3446 661.053 10.2042 660.84 10.0463L667.983 0.403654C666.325 -0.824429 664.394 -1.424 662.443 -1.424V10.576ZM669.185 8.85994L670.098 7.66094L660.551 0.39106L659.638 1.59006L669.185 8.85994ZM668.699 -0.935557C666.89 -2.16514 664.738 -2.854 662.432 -2.854V9.146C662.385 9.146 662.303 9.13823 662.202 9.10712C662.103 9.07632 662.017 9.03246 661.951 8.98756L668.699 -0.935557ZM662.432 -2.854C659.812 -2.854 657.143 -1.97641 655.123 0.0704831C653.12 2.10094 652.296 4.73466 652.296 7.238H664.296C664.296 7.32134 664.247 7.90906 663.665 8.49852C663.068 9.1044 662.467 9.146 662.432 9.146V-2.854ZM652.296 7.238V7.26H664.296V7.238H652.296ZM652.296 7.26C652.296 9.78913 653.163 12.3978 655.187 14.3735C657.198 16.3371 659.804 17.143 662.3 17.143V5.143C662.342 5.143 662.946 5.17886 663.569 5.78678C664.204 6.40674 664.296 7.07387 664.296 7.26H652.296ZM667.224 11H661.224V17H667.224V11ZM672.746 11V17H678.746V11H672.746ZM672.746 9.548H678.746V3.548H672.746V9.548ZM668.918 9.548H662.918V15.548H668.918V9.548ZM668.918 7.744V1.744H662.918V7.744H668.918ZM672.229 7.744V13.744H678.229V7.744H672.229ZM672.229 6.446H678.229V0.446H672.229V6.446ZM668.918 6.446H662.918V12.446H668.918V6.446ZM668.918 4.752V-1.248H662.918V4.752H668.918ZM672.68 4.752V10.752H678.68V4.752H672.68ZM672.68 3.3H678.68V-2.7H672.68V3.3ZM667.224 3.3V-2.7H661.224V3.3H667.224ZM667.224 17H672.746V5H667.224V17ZM678.746 11V9.548H666.746V11H678.746ZM672.746 3.548H668.918V15.548H672.746V3.548ZM674.918 9.548V7.744H662.918V9.548H674.918ZM668.918 13.744H672.229V1.744H668.918V13.744ZM678.229 7.744V6.446H666.229V7.744H678.229ZM672.229 0.446H668.918V12.446H672.229V0.446ZM674.918 6.446V4.752H662.918V6.446H674.918ZM668.918 10.752H672.68V-1.248H668.918V10.752ZM678.68 4.752V3.3H666.68V4.752H678.68ZM672.68 -2.7H667.224V9.3H672.68V-2.7ZM661.224 3.3V11H673.224V3.3H661.224ZM674.627 11H668.627V17H674.627V11ZM676.31 11V17H682.31V11H676.31ZM676.31 8.195V2.195H670.31V8.195H676.31ZM678.07 8.195L683.603 5.87345L682.059 2.195H678.07V8.195ZM679.247 11L673.715 13.3216L675.258 17H679.247V11ZM681.04 11V17H690.441L686.482 8.47333L681.04 11ZM679.61 7.92L677.225 2.41467L671.576 4.86258L674.168 10.4467L679.61 7.92ZM674.627 3.3V-2.7H668.627V3.3H674.627ZM676.31 6.897H670.31V12.897H676.31V6.897ZM676.31 4.686V-1.314H670.31V4.686H676.31ZM674.627 17H676.31V5H674.627V17ZM682.31 11V8.195H670.31V11H682.31ZM676.31 14.195H678.07V2.195H676.31V14.195ZM672.538 10.5166L673.715 13.3216L684.78 8.67845L683.603 5.87345L672.538 10.5166ZM679.247 17H681.04V5H679.247V17ZM686.482 8.47333L685.052 5.39333L674.168 10.4467L675.598 13.5267L686.482 8.47333ZM681.996 13.4253C685.64 11.8461 686.974 8.49039 686.974 5.775H674.974C674.974 5.36892 675.061 4.71185 675.475 3.99877C675.924 3.22619 676.584 2.69221 677.225 2.41467L681.996 13.4253ZM686.974 5.775V5.753H674.974V5.775H686.974ZM686.974 5.753C686.974 3.98266 686.435 1.6659 684.551 -0.201249C682.649 -2.08716 680.197 -2.7 678.015 -2.7V9.3C678.055 9.3 677.083 9.29216 676.104 8.322C675.144 7.3706 674.974 6.28034 674.974 5.753H686.974ZM678.015 -2.7H674.627V9.3H678.015V-2.7ZM668.627 3.3V11H680.627V3.3H668.627ZM682.31 6.897V4.686H670.31V6.897H682.31ZM676.31 10.686H678.026V-1.314H676.31V10.686ZM678.026 10.686C677.56 10.686 676.171 10.5704 674.884 9.36115C673.539 8.09708 673.291 6.57346 673.291 5.786H685.291C685.291 4.33853 684.856 2.26492 683.101 0.615853C681.405 -0.9784 679.383 -1.314 678.026 -1.314V10.686ZM673.291 5.786V5.808H685.291V5.786H673.291ZM673.291 5.808C673.291 4.98842 673.554 3.46374 674.9 2.20856C676.182 1.01274 677.559 0.897 678.026 0.897V12.897C679.384 12.897 681.394 12.5613 683.086 10.9832C684.841 9.34576 685.291 7.27657 685.291 5.808H673.291ZM678.026 0.897H676.31V12.897H678.026V0.897ZM683.199 8.569L677.245 9.31321L677.902 14.569H683.199V8.569ZM684.013 8.569V14.569H689.31L689.967 9.31321L684.013 8.569ZM684.178 7.249L678.234 6.43312L678.229 6.46893L678.224 6.50479L684.178 7.249ZM684.53 3.3H690.53V-2.7H684.53V3.3ZM682.693 3.3V-2.7H676.693V3.3H682.693ZM683.034 7.249L688.988 6.50479L688.985 6.48552L688.983 6.46627L683.034 7.249ZM682.715 11H676.715V17H682.715V11ZM684.497 11V17H690.497V11H684.497ZM684.497 9.295H690.497V3.295H684.497V9.295ZM682.715 9.295V3.295H676.715V9.295H682.715ZM683.199 14.569H684.013V2.569H683.199V14.569ZM689.967 9.31321L690.132 7.99321L678.224 6.50479L678.059 7.82479L689.967 9.31321ZM690.122 8.06488C690.358 6.34869 690.53 4.90373 690.53 3.3H678.53C678.53 4.02827 678.46 4.78331 678.234 6.43312L690.122 8.06488ZM684.53 -2.7H682.693V9.3H684.53V-2.7ZM676.693 3.3C676.693 4.90501 676.864 6.34604 677.085 8.03173L688.983 6.46627C688.765 4.80796 688.693 4.04899 688.693 3.3H676.693ZM677.08 7.99321L677.245 9.31321L689.153 7.82479L688.988 6.50479L677.08 7.99321ZM682.715 17H684.497V5H682.715V17ZM690.497 11V9.295H678.497V11H690.497ZM684.497 3.295H682.715V15.295H684.497V3.295ZM676.715 9.295V11H688.715V9.295H676.715Z" fill="white"/>
<path d="M813.624 11H816.407C818.75 11 820.279 9.526 820.279 7.161V7.139C820.279 4.785 818.75 3.3 816.407 3.3H813.624V11ZM815.318 9.581V4.719H816.407C817.771 4.719 818.541 5.632 818.541 7.139V7.161C818.541 8.679 817.793 9.581 816.407 9.581H815.318ZM821.118 11H822.79L823.241 9.603H826.354L826.805 11H828.488L825.782 3.3H823.824L821.118 11ZM824.77 4.884H824.825L825.925 8.283H823.67L824.77 4.884ZM830.01 11H831.594V5.962H831.605L834.949 11H836.467V3.3H834.883V8.305H834.872L831.55 3.3H830.01V11ZM842.3 11.143C843.345 11.143 844.39 10.857 845.226 10.373V6.765H841.926V8.041H843.675V9.482C843.29 9.658 842.828 9.757 842.333 9.757C840.859 9.757 840.023 8.778 840.023 7.249V7.227C840.023 5.654 840.837 4.576 842.443 4.576C843.147 4.576 843.818 4.785 844.412 5.225L845.325 4.026C844.5 3.465 843.521 3.146 842.432 3.146C839.847 3.146 838.296 4.818 838.296 7.238V7.26C838.296 9.603 839.847 11.143 842.3 11.143ZM847.224 11H852.746V9.548H848.918V7.744H852.229V6.446H848.918V4.752H852.68V3.3H847.224V11ZM854.627 11H856.31V8.195H858.07L859.247 11H861.04L859.61 7.92C860.6 7.491 860.974 6.644 860.974 5.775V5.753C860.974 4.51 860.237 3.3 858.015 3.3H854.627V11ZM856.31 6.897V4.686H858.026C858.917 4.686 859.291 5.126 859.291 5.786V5.808C859.291 6.457 858.917 6.897 858.026 6.897H856.31ZM863.199 8.569H864.013L864.178 7.249C864.409 5.566 864.53 4.466 864.53 3.3H862.693C862.693 4.477 862.814 5.577 863.034 7.249L863.199 8.569ZM862.715 11H864.497V9.295H862.715V11Z" fill="#B7BBBB"/>
<path d="M813.624 11H807.624V17H813.624V11ZM813.624 3.3V-2.7H807.624V3.3H813.624ZM815.318 9.581H809.318V15.581H815.318V9.581ZM815.318 4.719V-1.281H809.318V4.719H815.318ZM813.624 17H816.407V5H813.624V17ZM816.407 17C818.848 17 821.432 16.2095 823.43 14.2447C825.44 12.2672 826.279 9.66667 826.279 7.161H814.279C814.279 7.02033 814.354 6.33926 815.014 5.69003C815.661 5.0535 816.309 5 816.407 5V17ZM826.279 7.161V7.139H814.279V7.161H826.279ZM826.279 7.139C826.279 4.63271 825.436 2.03746 823.434 0.0637594C821.442 -1.89931 818.861 -2.7 816.407 -2.7V9.3C816.297 9.3 815.651 9.24181 815.01 8.60974C814.358 7.96704 814.279 7.29129 814.279 7.139H826.279ZM816.407 -2.7H813.624V9.3H816.407V-2.7ZM807.624 3.3V11H819.624V3.3H807.624ZM821.318 9.581V4.719H809.318V9.581H821.318ZM815.318 10.719H816.407V-1.281H815.318V10.719ZM816.407 10.719C815.674 10.719 814.433 10.4197 813.462 9.30538C812.593 8.30769 812.541 7.34147 812.541 7.139H824.541C824.541 5.42953 824.105 3.25331 822.51 1.42237C820.813 -0.525177 818.504 -1.281 816.407 -1.281V10.719ZM812.541 7.139V7.161H824.541V7.139H812.541ZM812.541 7.161C812.541 7.01435 812.574 6.03218 813.462 5.00838C814.463 3.85462 815.731 3.581 816.407 3.581V15.581C818.47 15.581 820.805 14.8564 822.526 12.8721C824.135 11.0178 824.541 8.82565 824.541 7.161H812.541ZM816.407 3.581H815.318V15.581H816.407V3.581ZM821.118 11L815.458 9.0107L812.65 17H821.118V11ZM822.79 11V17H827.158L828.5 12.8433L822.79 11ZM823.241 9.603V3.603H818.873L817.531 7.75967L823.241 9.603ZM826.354 9.603L832.064 7.75967L830.722 3.603H826.354V9.603ZM826.805 11L821.095 12.8433L822.437 17H826.805V11ZM828.488 11V17H836.956L834.149 9.01069L828.488 11ZM825.782 3.3L831.443 1.31069L830.033 -2.7H825.782V3.3ZM823.824 3.3V-2.7H819.573L818.164 1.31069L823.824 3.3ZM824.77 4.884V-1.116H820.406L819.062 3.03659L824.77 4.884ZM824.825 4.884L830.534 3.03659L829.19 -1.116H824.825V4.884ZM825.925 8.283V14.283H834.173L831.634 6.43559L825.925 8.283ZM823.67 8.283L817.962 6.43559L815.422 14.283H823.67V8.283ZM821.118 17H822.79V5H821.118V17ZM828.5 12.8433L828.951 11.4463L817.531 7.75967L817.08 9.15667L828.5 12.8433ZM823.241 15.603H826.354V3.603H823.241V15.603ZM820.644 11.4463L821.095 12.8433L832.515 9.15667L832.064 7.75967L820.644 11.4463ZM826.805 17H828.488V5H826.805V17ZM834.149 9.01069L831.443 1.31069L820.122 5.2893L822.828 12.9893L834.149 9.01069ZM825.782 -2.7H823.824V9.3H825.782V-2.7ZM818.164 1.31069L815.458 9.0107L826.779 12.9893L829.485 5.2893L818.164 1.31069ZM824.77 10.884H824.825V-1.116H824.77V10.884ZM819.117 6.73141L820.217 10.1304L831.634 6.43559L830.534 3.03659L819.117 6.73141ZM825.925 2.283H823.67V14.283H825.925V2.283ZM829.379 10.1304L830.479 6.73141L819.062 3.03659L817.962 6.43559L829.379 10.1304ZM830.01 11H824.01V17H830.01V11ZM831.594 11V17H837.594V11H831.594ZM831.594 5.962V-0.0380003H825.594V5.962H831.594ZM831.605 5.962L836.604 2.64388L834.824 -0.0380003H831.605V5.962ZM834.949 11L829.95 14.3181L831.73 17H834.949V11ZM836.467 11V17H842.467V11H836.467ZM836.467 3.3H842.467V-2.7H836.467V3.3ZM834.883 3.3V-2.7H828.883V3.3H834.883ZM834.883 8.305V14.305H840.883V8.305H834.883ZM834.872 8.305L829.873 11.6231L831.653 14.305H834.872V8.305ZM831.55 3.3L836.549 -0.0180532L834.769 -2.7H831.55V3.3ZM830.01 3.3V-2.7H824.01V3.3H830.01ZM830.01 17H831.594V5H830.01V17ZM837.594 11V5.962H825.594V11H837.594ZM831.594 11.962H831.605V-0.0380003H831.594V11.962ZM826.606 9.28012L829.95 14.3181L839.948 7.68188L836.604 2.64388L826.606 9.28012ZM834.949 17H836.467V5H834.949V17ZM842.467 11V3.3H830.467V11H842.467ZM836.467 -2.7H834.883V9.3H836.467V-2.7ZM828.883 3.3V8.305H840.883V3.3H828.883ZM834.883 2.305H834.872V14.305H834.883V2.305ZM839.871 4.98695L836.549 -0.0180532L826.551 6.61805L829.873 11.6231L839.871 4.98695ZM831.55 -2.7H830.01V9.3H831.55V-2.7ZM824.01 3.3V11H836.01V3.3H824.01ZM845.226 10.373L848.232 15.5656L851.226 13.8323V10.373H845.226ZM845.226 6.765H851.226V0.765H845.226V6.765ZM841.926 6.765V0.765H835.926V6.765H841.926ZM841.926 8.041H835.926V14.041H841.926V8.041ZM843.675 8.041H849.675V2.041H843.675V8.041ZM843.675 9.482L846.169 14.9388L849.675 13.3364V9.482H843.675ZM844.412 5.225L840.84 10.0463L845.598 13.5707L849.185 8.85994L844.412 5.225ZM845.325 4.026L850.098 7.66094L853.934 2.62425L848.699 -0.935557L845.325 4.026ZM842.3 17.143C844.38 17.143 846.465 16.5887 848.232 15.5656L842.219 5.18044C842.257 5.15893 842.281 5.14842 842.291 5.14441C842.301 5.14031 842.303 5.13998 842.299 5.14103C842.295 5.14204 842.291 5.14289 842.288 5.14331C842.285 5.14373 842.288 5.143 842.3 5.143V17.143ZM851.226 10.373V6.765H839.226V10.373H851.226ZM845.226 0.765H841.926V12.765H845.226V0.765ZM835.926 6.765V8.041H847.926V6.765H835.926ZM841.926 14.041H843.675V2.041H841.926V14.041ZM837.675 8.041V9.482H849.675V8.041H837.675ZM841.18 4.02515C841.651 3.81009 842.05 3.757 842.333 3.757V15.757C843.605 15.757 844.929 15.5059 846.169 14.9388L841.18 4.02515ZM842.333 3.757C842.989 3.757 844.146 4.02173 845.08 5.05715C845.938 6.00879 846.023 6.96362 846.023 7.249H834.023C834.023 9.06338 834.525 11.2722 836.17 13.0956C837.891 15.0028 840.203 15.757 842.333 15.757V3.757ZM846.023 7.249V7.227H834.023V7.249H846.023ZM846.023 7.227C846.023 7.40653 845.977 8.30387 845.163 9.24273C844.239 10.3088 843.068 10.576 842.443 10.576V-1.424C840.212 -1.424 837.831 -0.617832 836.098 1.38051C834.475 3.25163 834.023 5.47447 834.023 7.227H846.023ZM842.443 10.576C842.195 10.576 841.911 10.5383 841.614 10.4417C841.315 10.3446 841.053 10.2042 840.84 10.0463L847.983 0.403654C846.325 -0.824429 844.394 -1.424 842.443 -1.424V10.576ZM849.185 8.85994L850.098 7.66094L840.551 0.39106L839.638 1.59006L849.185 8.85994ZM848.699 -0.935557C846.89 -2.16514 844.738 -2.854 842.432 -2.854V9.146C842.385 9.146 842.303 9.13823 842.202 9.10712C842.103 9.07632 842.017 9.03246 841.951 8.98756L848.699 -0.935557ZM842.432 -2.854C839.812 -2.854 837.143 -1.97641 835.123 0.0704831C833.12 2.10094 832.296 4.73466 832.296 7.238H844.296C844.296 7.32134 844.247 7.90906 843.665 8.49852C843.068 9.1044 842.467 9.146 842.432 9.146V-2.854ZM832.296 7.238V7.26H844.296V7.238H832.296ZM832.296 7.26C832.296 9.78913 833.163 12.3978 835.187 14.3735C837.198 16.3371 839.804 17.143 842.3 17.143V5.143C842.342 5.143 842.946 5.17886 843.569 5.78678C844.204 6.40674 844.296 7.07387 844.296 7.26H832.296ZM847.224 11H841.224V17H847.224V11ZM852.746 11V17H858.746V11H852.746ZM852.746 9.548H858.746V3.548H852.746V9.548ZM848.918 9.548H842.918V15.548H848.918V9.548ZM848.918 7.744V1.744H842.918V7.744H848.918ZM852.229 7.744V13.744H858.229V7.744H852.229ZM852.229 6.446H858.229V0.446H852.229V6.446ZM848.918 6.446H842.918V12.446H848.918V6.446ZM848.918 4.752V-1.248H842.918V4.752H848.918ZM852.68 4.752V10.752H858.68V4.752H852.68ZM852.68 3.3H858.68V-2.7H852.68V3.3ZM847.224 3.3V-2.7H841.224V3.3H847.224ZM847.224 17H852.746V5H847.224V17ZM858.746 11V9.548H846.746V11H858.746ZM852.746 3.548H848.918V15.548H852.746V3.548ZM854.918 9.548V7.744H842.918V9.548H854.918ZM848.918 13.744H852.229V1.744H848.918V13.744ZM858.229 7.744V6.446H846.229V7.744H858.229ZM852.229 0.446H848.918V12.446H852.229V0.446ZM854.918 6.446V4.752H842.918V6.446H854.918ZM848.918 10.752H852.68V-1.248H848.918V10.752ZM858.68 4.752V3.3H846.68V4.752H858.68ZM852.68 -2.7H847.224V9.3H852.68V-2.7ZM841.224 3.3V11H853.224V3.3H841.224ZM854.627 11H848.627V17H854.627V11ZM856.31 11V17H862.31V11H856.31ZM856.31 8.195V2.195H850.31V8.195H856.31ZM858.07 8.195L863.603 5.87345L862.059 2.195H858.07V8.195ZM859.247 11L853.715 13.3216L855.258 17H859.247V11ZM861.04 11V17H870.441L866.482 8.47333L861.04 11ZM859.61 7.92L857.225 2.41467L851.576 4.86258L854.168 10.4467L859.61 7.92ZM854.627 3.3V-2.7H848.627V3.3H854.627ZM856.31 6.897H850.31V12.897H856.31V6.897ZM856.31 4.686V-1.314H850.31V4.686H856.31ZM854.627 17H856.31V5H854.627V17ZM862.31 11V8.195H850.31V11H862.31ZM856.31 14.195H858.07V2.195H856.31V14.195ZM852.538 10.5166L853.715 13.3216L864.78 8.67845L863.603 5.87345L852.538 10.5166ZM859.247 17H861.04V5H859.247V17ZM866.482 8.47333L865.052 5.39333L854.168 10.4467L855.598 13.5267L866.482 8.47333ZM861.996 13.4253C865.64 11.8461 866.974 8.49039 866.974 5.775H854.974C854.974 5.36892 855.061 4.71185 855.475 3.99877C855.924 3.22619 856.584 2.69221 857.225 2.41467L861.996 13.4253ZM866.974 5.775V5.753H854.974V5.775H866.974ZM866.974 5.753C866.974 3.98266 866.435 1.6659 864.551 -0.201249C862.649 -2.08716 860.197 -2.7 858.015 -2.7V9.3C858.055 9.3 857.083 9.29216 856.104 8.322C855.144 7.3706 854.974 6.28034 854.974 5.753H866.974ZM858.015 -2.7H854.627V9.3H858.015V-2.7ZM848.627 3.3V11H860.627V3.3H848.627ZM862.31 6.897V4.686H850.31V6.897H862.31ZM856.31 10.686H858.026V-1.314H856.31V10.686ZM858.026 10.686C857.56 10.686 856.171 10.5704 854.884 9.36115C853.539 8.09708 853.291 6.57346 853.291 5.786H865.291C865.291 4.33853 864.856 2.26492 863.101 0.615853C861.405 -0.9784 859.383 -1.314 858.026 -1.314V10.686ZM853.291 5.786V5.808H865.291V5.786H853.291ZM853.291 5.808C853.291 4.98842 853.554 3.46374 854.9 2.20856C856.182 1.01274 857.559 0.897 858.026 0.897V12.897C859.384 12.897 861.394 12.5613 863.086 10.9832C864.841 9.34576 865.291 7.27657 865.291 5.808H853.291ZM858.026 0.897H856.31V12.897H858.026V0.897ZM863.199 8.569L857.245 9.31321L857.902 14.569H863.199V8.569ZM864.013 8.569V14.569H869.31L869.967 9.31321L864.013 8.569ZM864.178 7.249L858.234 6.43312L858.229 6.46893L858.224 6.50479L864.178 7.249ZM864.53 3.3H870.53V-2.7H864.53V3.3ZM862.693 3.3V-2.7H856.693V3.3H862.693ZM863.034 7.249L868.988 6.50479L868.985 6.48552L868.983 6.46627L863.034 7.249ZM862.715 11H856.715V17H862.715V11ZM864.497 11V17H870.497V11H864.497ZM864.497 9.295H870.497V3.295H864.497V9.295ZM862.715 9.295V3.295H856.715V9.295H862.715ZM863.199 14.569H864.013V2.569H863.199V14.569ZM869.967 9.31321L870.132 7.99321L858.224 6.50479L858.059 7.82479L869.967 9.31321ZM870.122 8.06488C870.358 6.34869 870.53 4.90373 870.53 3.3H858.53C858.53 4.02827 858.46 4.78331 858.234 6.43312L870.122 8.06488ZM864.53 -2.7H862.693V9.3H864.53V-2.7ZM856.693 3.3C856.693 4.90501 856.864 6.34604 857.085 8.03173L868.983 6.46627C868.765 4.80796 868.693 4.04899 868.693 3.3H856.693ZM857.08 7.99321L857.245 9.31321L869.153 7.82479L868.988 6.50479L857.08 7.99321ZM862.715 17H864.497V5H862.715V17ZM870.497 11V9.295H858.497V11H870.497ZM864.497 3.295H862.715V15.295H864.497V3.295ZM856.715 9.295V11H868.715V9.295H856.715Z" fill="white"/>
</g>
</svg>
