<?xml version="1.0" encoding="UTF-8" standalone="no"?>
<!DOCTYPE svg PUBLIC "-//W3C//DTD SVG 1.1//EN" "http://www.w3.org/Graphics/SVG/1.1/DTD/svg11.dtd">
<svg width="100%" height="100%" viewBox="0 0 940 15" version="1.1" xmlns="http://www.w3.org/2000/svg" xmlns:xlink="http://www.w3.org/1999/xlink" xml:space="preserve" xmlns:serif="http://www.serif.com/" style="fill-rule:evenodd;clip-rule:evenodd;stroke-linejoin:round;stroke-miterlimit:2;">
    <g>
        <path d="M-1,2L9,2L-1,13L-11,13L-1,2Z" style="fill:rgb(255,226,121);fill-rule:nonzero;"/>
        <path d="M19,2L29,2L19,13L9,13L19,2Z" style="fill:rgb(255,226,121);fill-rule:nonzero;"/>
        <path d="M39,2L49,2L39,13L29,13L39,2Z" style="fill:rgb(255,226,121);fill-rule:nonzero;"/>
        <path d="M59,2L69,2L59,13L49,13L59,2Z" style="fill:rgb(255,226,121);fill-rule:nonzero;"/>
        <path d="M79,2L89,2L79,13L69,13L79,2Z" style="fill:rgb(255,226,121);fill-rule:nonzero;"/>
        <path d="M159,2L169,2L159,13L149,13L159,2Z" style="fill:rgb(255,226,121);fill-rule:nonzero;"/>
        <path d="M179,2L189,2L179,13L169,13L179,2Z" style="fill:rgb(255,226,121);fill-rule:nonzero;"/>
        <path d="M199,2L209,2L199,13L189,13L199,2Z" style="fill:rgb(255,226,121);fill-rule:nonzero;"/>
        <path d="M219,2L229,2L219,13L209,13L219,2Z" style="fill:rgb(255,226,121);fill-rule:nonzero;"/>
        <path d="M239,2L249,2L239,13L229,13L239,2Z" style="fill:rgb(255,226,121);fill-rule:nonzero;"/>
        <path d="M259,2L269,2L259,13L249,13L259,2Z" style="fill:rgb(255,226,121);fill-rule:nonzero;"/>
        <path d="M339,2L349,2L339,13L329,13L339,2Z" style="fill:rgb(255,226,121);fill-rule:nonzero;"/>
        <path d="M359,2L369,2L359,13L349,13L359,2Z" style="fill:rgb(255,226,121);fill-rule:nonzero;"/>
        <path d="M379,2L389,2L379,13L369,13L379,2Z" style="fill:rgb(255,226,121);fill-rule:nonzero;"/>
        <path d="M399,2L409,2L399,13L389,13L399,2Z" style="fill:rgb(255,226,121);fill-rule:nonzero;"/>
        <path d="M419,2L429,2L419,13L409,13L419,2Z" style="fill:rgb(255,226,121);fill-rule:nonzero;"/>
        <path d="M439,2L449,2L439,13L429,13L439,2Z" style="fill:rgb(255,226,121);fill-rule:nonzero;"/>
        <path d="M519,2L529,2L519,13L509,13L519,2Z" style="fill:rgb(255,226,121);fill-rule:nonzero;"/>
        <path d="M539,2L549,2L539,13L529,13L539,2Z" style="fill:rgb(255,226,121);fill-rule:nonzero;"/>
        <path d="M559,2L569,2L559,13L549,13L559,2Z" style="fill:rgb(255,226,121);fill-rule:nonzero;"/>
        <path d="M579,2L589,2L579,13L569,13L579,2Z" style="fill:rgb(255,226,121);fill-rule:nonzero;"/>
        <path d="M599,2L609,2L599,13L589,13L599,2Z" style="fill:rgb(255,226,121);fill-rule:nonzero;"/>
        <path d="M619,2L629,2L619,13L609,13L619,2Z" style="fill:rgb(255,226,121);fill-rule:nonzero;"/>
        <path d="M699,2L709,2L699,13L689,13L699,2Z" style="fill:rgb(255,226,121);fill-rule:nonzero;"/>
        <path d="M719,2L729,2L719,13L709,13L719,2Z" style="fill:rgb(255,226,121);fill-rule:nonzero;"/>
        <path d="M739,2L749,2L739,13L729,13L739,2Z" style="fill:rgb(255,226,121);fill-rule:nonzero;"/>
        <path d="M759,2L769,2L759,13L749,13L759,2Z" style="fill:rgb(255,226,121);fill-rule:nonzero;"/>
        <path d="M779,2L789,2L779,13L769,13L779,2Z" style="fill:rgb(255,226,121);fill-rule:nonzero;"/>
        <path d="M799,2L809,2L799,13L789,13L799,2Z" style="fill:rgb(255,226,121);fill-rule:nonzero;"/>
        <path d="M879,2L889,2L879,13L869,13L879,2Z" style="fill:rgb(255,226,121);fill-rule:nonzero;"/>
        <path d="M899,2L909,2L899,13L889,13L899,2Z" style="fill:rgb(255,226,121);fill-rule:nonzero;"/>
        <path d="M919,2L929,2L919,13L909,13L919,2Z" style="fill:rgb(255,226,121);fill-rule:nonzero;"/>
        <path d="M939,2L949,2L939,13L929,13L939,2Z" style="fill:rgb(255,226,121);fill-rule:nonzero;"/>
        <path d="M939,2L949,2L939,13L929,13L939,2Z" style="fill:rgb(255,226,121);fill-rule:nonzero;"/>
        <path d="M-1,2L9,2L-1,13L-11,13L-1,2Z" style="fill:rgb(255,226,121);fill-rule:nonzero;"/>
        <path d="M453.624,11L456.407,11C458.75,11 460.279,9.526 460.279,7.161L460.279,7.139C460.279,4.785 458.75,3.3 456.407,3.3L453.624,3.3L453.624,11ZM455.318,9.581L455.318,4.719L456.407,4.719C457.771,4.719 458.541,5.632 458.541,7.139L458.541,7.161C458.541,8.679 457.793,9.581 456.407,9.581L455.318,9.581ZM461.118,11L462.79,11L463.241,9.603L466.354,9.603L466.805,11L468.488,11L465.782,3.3L463.824,3.3L461.118,11ZM464.77,4.884L464.825,4.884L465.925,8.283L463.67,8.283L464.77,4.884ZM470.01,11L471.594,11L471.594,5.962L471.605,5.962L474.949,11L476.467,11L476.467,3.3L474.883,3.3L474.883,8.305L474.872,8.305L471.55,3.3L470.01,3.3L470.01,11ZM482.3,11.143C483.345,11.143 484.39,10.857 485.226,10.373L485.226,6.765L481.926,6.765L481.926,8.041L483.675,8.041L483.675,9.482C483.29,9.658 482.828,9.757 482.333,9.757C480.859,9.757 480.023,8.778 480.023,7.249L480.023,7.227C480.023,5.654 480.837,4.576 482.443,4.576C483.147,4.576 483.818,4.785 484.412,5.225L485.325,4.026C484.5,3.465 483.521,3.146 482.432,3.146C479.847,3.146 478.296,4.818 478.296,7.238L478.296,7.26C478.296,9.603 479.847,11.143 482.3,11.143ZM487.224,11L492.746,11L492.746,9.548L488.918,9.548L488.918,7.744L492.229,7.744L492.229,6.446L488.918,6.446L488.918,4.752L492.68,4.752L492.68,3.3L487.224,3.3L487.224,11ZM494.627,11L496.31,11L496.31,8.195L498.07,8.195L499.247,11L501.04,11L499.61,7.92C500.6,7.491 500.974,6.644 500.974,5.775L500.974,5.753C500.974,4.51 500.237,3.3 498.015,3.3L494.627,3.3L494.627,11ZM496.31,6.897L496.31,4.686L498.026,4.686C498.917,4.686 499.291,5.126 499.291,5.786L499.291,5.808C499.291,6.457 498.917,6.897 498.026,6.897L496.31,6.897ZM503.199,8.569L504.013,8.569L504.178,7.249C504.409,5.566 504.53,4.466 504.53,3.3L502.693,3.3C502.693,4.477 502.814,5.577 503.034,7.249L503.199,8.569ZM502.715,11L504.497,11L504.497,9.295L502.715,9.295L502.715,11Z" style="fill:rgb(183,187,187);fill-rule:nonzero;"/>
        <path d="M453.624,11L456.407,11C458.75,11 460.279,9.526 460.279,7.161L460.279,7.139C460.279,4.785 458.75,3.3 456.407,3.3L453.624,3.3L453.624,11ZM455.318,9.581L455.318,4.719L456.407,4.719C457.771,4.719 458.541,5.632 458.541,7.139L458.541,7.161C458.541,8.679 457.793,9.581 456.407,9.581L455.318,9.581ZM461.118,11L462.79,11L463.241,9.603L466.354,9.603L466.805,11L468.488,11L465.782,3.3L463.824,3.3L461.118,11ZM464.77,4.884L464.825,4.884L465.925,8.283L463.67,8.283L464.77,4.884ZM470.01,11L471.594,11L471.594,5.962L471.605,5.962L474.949,11L476.467,11L476.467,3.3L474.883,3.3L474.883,8.305L474.872,8.305L471.55,3.3L470.01,3.3L470.01,11ZM482.3,11.143C483.345,11.143 484.39,10.857 485.226,10.373L485.226,6.765L481.926,6.765L481.926,8.041L483.675,8.041L483.675,9.482C483.29,9.658 482.828,9.757 482.333,9.757C480.859,9.757 480.023,8.778 480.023,7.249L480.023,7.227C480.023,5.654 480.837,4.576 482.443,4.576C483.147,4.576 483.818,4.785 484.412,5.225L485.325,4.026C484.5,3.465 483.521,3.146 482.432,3.146C479.847,3.146 478.296,4.818 478.296,7.238L478.296,7.26C478.296,9.603 479.847,11.143 482.3,11.143ZM487.224,11L492.746,11L492.746,9.548L488.918,9.548L488.918,7.744L492.229,7.744L492.229,6.446L488.918,6.446L488.918,4.752L492.68,4.752L492.68,3.3L487.224,3.3L487.224,11ZM494.627,11L496.31,11L496.31,8.195L498.07,8.195L499.247,11L501.04,11L499.61,7.92C500.6,7.491 500.974,6.644 500.974,5.775L500.974,5.753C500.974,4.51 500.237,3.3 498.015,3.3L494.627,3.3L494.627,11ZM496.31,6.897L496.31,4.686L498.026,4.686C498.917,4.686 499.291,5.126 499.291,5.786L499.291,5.808C499.291,6.457 498.917,6.897 498.026,6.897L496.31,6.897ZM503.199,8.569L504.013,8.569L504.178,7.249C504.409,5.566 504.53,4.466 504.53,3.3L502.693,3.3C502.693,4.477 502.814,5.577 503.034,7.249L503.199,8.569ZM502.715,11L504.497,11L504.497,9.295L502.715,9.295L502.715,11Z" style="fill:rgb(183,187,187);fill-rule:nonzero;"/>
        <path d="M273.624,11L276.407,11C278.75,11 280.279,9.526 280.279,7.161L280.279,7.139C280.279,4.785 278.75,3.3 276.407,3.3L273.624,3.3L273.624,11ZM275.318,9.581L275.318,4.719L276.407,4.719C277.771,4.719 278.541,5.632 278.541,7.139L278.541,7.161C278.541,8.679 277.793,9.581 276.407,9.581L275.318,9.581ZM281.118,11L282.79,11L283.241,9.603L286.354,9.603L286.805,11L288.488,11L285.782,3.3L283.824,3.3L281.118,11ZM284.77,4.884L284.825,4.884L285.925,8.283L283.67,8.283L284.77,4.884ZM290.01,11L291.594,11L291.594,5.962L291.605,5.962L294.949,11L296.467,11L296.467,3.3L294.883,3.3L294.883,8.305L294.872,8.305L291.55,3.3L290.01,3.3L290.01,11ZM302.3,11.143C303.345,11.143 304.39,10.857 305.226,10.373L305.226,6.765L301.926,6.765L301.926,8.041L303.675,8.041L303.675,9.482C303.29,9.658 302.828,9.757 302.333,9.757C300.859,9.757 300.023,8.778 300.023,7.249L300.023,7.227C300.023,5.654 300.837,4.576 302.443,4.576C303.147,4.576 303.818,4.785 304.412,5.225L305.325,4.026C304.5,3.465 303.521,3.146 302.432,3.146C299.847,3.146 298.296,4.818 298.296,7.238L298.296,7.26C298.296,9.603 299.847,11.143 302.3,11.143ZM307.224,11L312.746,11L312.746,9.548L308.918,9.548L308.918,7.744L312.229,7.744L312.229,6.446L308.918,6.446L308.918,4.752L312.68,4.752L312.68,3.3L307.224,3.3L307.224,11ZM314.627,11L316.31,11L316.31,8.195L318.07,8.195L319.247,11L321.04,11L319.61,7.92C320.6,7.491 320.974,6.644 320.974,5.775L320.974,5.753C320.974,4.51 320.237,3.3 318.015,3.3L314.627,3.3L314.627,11ZM316.31,6.897L316.31,4.686L318.026,4.686C318.917,4.686 319.291,5.126 319.291,5.786L319.291,5.808C319.291,6.457 318.917,6.897 318.026,6.897L316.31,6.897ZM323.199,8.569L324.013,8.569L324.178,7.249C324.409,5.566 324.53,4.466 324.53,3.3L322.693,3.3C322.693,4.477 322.814,5.577 323.034,7.249L323.199,8.569ZM322.715,11L324.497,11L324.497,9.295L322.715,9.295L322.715,11Z" style="fill:rgb(183,187,187);fill-rule:nonzero;"/>
        <path d="M273.624,11L276.407,11C278.75,11 280.279,9.526 280.279,7.161L280.279,7.139C280.279,4.785 278.75,3.3 276.407,3.3L273.624,3.3L273.624,11ZM275.318,9.581L275.318,4.719L276.407,4.719C277.771,4.719 278.541,5.632 278.541,7.139L278.541,7.161C278.541,8.679 277.793,9.581 276.407,9.581L275.318,9.581ZM281.118,11L282.79,11L283.241,9.603L286.354,9.603L286.805,11L288.488,11L285.782,3.3L283.824,3.3L281.118,11ZM284.77,4.884L284.825,4.884L285.925,8.283L283.67,8.283L284.77,4.884ZM290.01,11L291.594,11L291.594,5.962L291.605,5.962L294.949,11L296.467,11L296.467,3.3L294.883,3.3L294.883,8.305L294.872,8.305L291.55,3.3L290.01,3.3L290.01,11ZM302.3,11.143C303.345,11.143 304.39,10.857 305.226,10.373L305.226,6.765L301.926,6.765L301.926,8.041L303.675,8.041L303.675,9.482C303.29,9.658 302.828,9.757 302.333,9.757C300.859,9.757 300.023,8.778 300.023,7.249L300.023,7.227C300.023,5.654 300.837,4.576 302.443,4.576C303.147,4.576 303.818,4.785 304.412,5.225L305.325,4.026C304.5,3.465 303.521,3.146 302.432,3.146C299.847,3.146 298.296,4.818 298.296,7.238L298.296,7.26C298.296,9.603 299.847,11.143 302.3,11.143ZM307.224,11L312.746,11L312.746,9.548L308.918,9.548L308.918,7.744L312.229,7.744L312.229,6.446L308.918,6.446L308.918,4.752L312.68,4.752L312.68,3.3L307.224,3.3L307.224,11ZM314.627,11L316.31,11L316.31,8.195L318.07,8.195L319.247,11L321.04,11L319.61,7.92C320.6,7.491 320.974,6.644 320.974,5.775L320.974,5.753C320.974,4.51 320.237,3.3 318.015,3.3L314.627,3.3L314.627,11ZM316.31,6.897L316.31,4.686L318.026,4.686C318.917,4.686 319.291,5.126 319.291,5.786L319.291,5.808C319.291,6.457 318.917,6.897 318.026,6.897L316.31,6.897ZM323.199,8.569L324.013,8.569L324.178,7.249C324.409,5.566 324.53,4.466 324.53,3.3L322.693,3.3C322.693,4.477 322.814,5.577 323.034,7.249L323.199,8.569ZM322.715,11L324.497,11L324.497,9.295L322.715,9.295L322.715,11Z" style="fill:rgb(183,187,187);fill-rule:nonzero;"/>
        <path d="M93.624,11L96.407,11C98.75,11 100.279,9.526 100.279,7.161L100.279,7.139C100.279,4.785 98.75,3.3 96.407,3.3L93.624,3.3L93.624,11ZM95.318,9.581L95.318,4.719L96.407,4.719C97.771,4.719 98.541,5.632 98.541,7.139L98.541,7.161C98.541,8.679 97.793,9.581 96.407,9.581L95.318,9.581ZM101.118,11L102.79,11L103.241,9.603L106.354,9.603L106.805,11L108.488,11L105.782,3.3L103.824,3.3L101.118,11ZM104.77,4.884L104.825,4.884L105.925,8.283L103.67,8.283L104.77,4.884ZM110.01,11L111.594,11L111.594,5.962L111.605,5.962L114.949,11L116.467,11L116.467,3.3L114.883,3.3L114.883,8.305L114.872,8.305L111.55,3.3L110.01,3.3L110.01,11ZM122.3,11.143C123.345,11.143 124.39,10.857 125.226,10.373L125.226,6.765L121.926,6.765L121.926,8.041L123.675,8.041L123.675,9.482C123.29,9.658 122.828,9.757 122.333,9.757C120.859,9.757 120.023,8.778 120.023,7.249L120.023,7.227C120.023,5.654 120.837,4.576 122.443,4.576C123.147,4.576 123.818,4.785 124.412,5.225L125.325,4.026C124.5,3.465 123.521,3.146 122.432,3.146C119.847,3.146 118.296,4.818 118.296,7.238L118.296,7.26C118.296,9.603 119.847,11.143 122.3,11.143ZM127.224,11L132.746,11L132.746,9.548L128.918,9.548L128.918,7.744L132.229,7.744L132.229,6.446L128.918,6.446L128.918,4.752L132.68,4.752L132.68,3.3L127.224,3.3L127.224,11ZM134.627,11L136.31,11L136.31,8.195L138.07,8.195L139.247,11L141.04,11L139.61,7.92C140.6,7.491 140.974,6.644 140.974,5.775L140.974,5.753C140.974,4.51 140.237,3.3 138.015,3.3L134.627,3.3L134.627,11ZM136.31,6.897L136.31,4.686L138.026,4.686C138.917,4.686 139.291,5.126 139.291,5.786L139.291,5.808C139.291,6.457 138.917,6.897 138.026,6.897L136.31,6.897ZM143.199,8.569L144.013,8.569L144.178,7.249C144.409,5.566 144.53,4.466 144.53,3.3L142.693,3.3C142.693,4.477 142.814,5.577 143.034,7.249L143.199,8.569ZM142.715,11L144.497,11L144.497,9.295L142.715,9.295L142.715,11Z" style="fill:rgb(183,187,187);fill-rule:nonzero;"/>
        <path d="M93.624,11L96.407,11C98.75,11 100.279,9.526 100.279,7.161L100.279,7.139C100.279,4.785 98.75,3.3 96.407,3.3L93.624,3.3L93.624,11ZM95.318,9.581L95.318,4.719L96.407,4.719C97.771,4.719 98.541,5.632 98.541,7.139L98.541,7.161C98.541,8.679 97.793,9.581 96.407,9.581L95.318,9.581ZM101.118,11L102.79,11L103.241,9.603L106.354,9.603L106.805,11L108.488,11L105.782,3.3L103.824,3.3L101.118,11ZM104.77,4.884L104.825,4.884L105.925,8.283L103.67,8.283L104.77,4.884ZM110.01,11L111.594,11L111.594,5.962L111.605,5.962L114.949,11L116.467,11L116.467,3.3L114.883,3.3L114.883,8.305L114.872,8.305L111.55,3.3L110.01,3.3L110.01,11ZM122.3,11.143C123.345,11.143 124.39,10.857 125.226,10.373L125.226,6.765L121.926,6.765L121.926,8.041L123.675,8.041L123.675,9.482C123.29,9.658 122.828,9.757 122.333,9.757C120.859,9.757 120.023,8.778 120.023,7.249L120.023,7.227C120.023,5.654 120.837,4.576 122.443,4.576C123.147,4.576 123.818,4.785 124.412,5.225L125.325,4.026C124.5,3.465 123.521,3.146 122.432,3.146C119.847,3.146 118.296,4.818 118.296,7.238L118.296,7.26C118.296,9.603 119.847,11.143 122.3,11.143ZM127.224,11L132.746,11L132.746,9.548L128.918,9.548L128.918,7.744L132.229,7.744L132.229,6.446L128.918,6.446L128.918,4.752L132.68,4.752L132.68,3.3L127.224,3.3L127.224,11ZM134.627,11L136.31,11L136.31,8.195L138.07,8.195L139.247,11L141.04,11L139.61,7.92C140.6,7.491 140.974,6.644 140.974,5.775L140.974,5.753C140.974,4.51 140.237,3.3 138.015,3.3L134.627,3.3L134.627,11ZM136.31,6.897L136.31,4.686L138.026,4.686C138.917,4.686 139.291,5.126 139.291,5.786L139.291,5.808C139.291,6.457 138.917,6.897 138.026,6.897L136.31,6.897ZM143.199,8.569L144.013,8.569L144.178,7.249C144.409,5.566 144.53,4.466 144.53,3.3L142.693,3.3C142.693,4.477 142.814,5.577 143.034,7.249L143.199,8.569ZM142.715,11L144.497,11L144.497,9.295L142.715,9.295L142.715,11Z" style="fill:rgb(183,187,187);fill-rule:nonzero;"/>
        <path d="M633.624,11L636.407,11C638.75,11 640.279,9.526 640.279,7.161L640.279,7.139C640.279,4.785 638.75,3.3 636.407,3.3L633.624,3.3L633.624,11ZM635.318,9.581L635.318,4.719L636.407,4.719C637.771,4.719 638.541,5.632 638.541,7.139L638.541,7.161C638.541,8.679 637.793,9.581 636.407,9.581L635.318,9.581ZM641.118,11L642.79,11L643.241,9.603L646.354,9.603L646.805,11L648.488,11L645.782,3.3L643.824,3.3L641.118,11ZM644.77,4.884L644.825,4.884L645.925,8.283L643.67,8.283L644.77,4.884ZM650.01,11L651.594,11L651.594,5.962L651.605,5.962L654.949,11L656.467,11L656.467,3.3L654.883,3.3L654.883,8.305L654.872,8.305L651.55,3.3L650.01,3.3L650.01,11ZM662.3,11.143C663.345,11.143 664.39,10.857 665.226,10.373L665.226,6.765L661.926,6.765L661.926,8.041L663.675,8.041L663.675,9.482C663.29,9.658 662.828,9.757 662.333,9.757C660.859,9.757 660.023,8.778 660.023,7.249L660.023,7.227C660.023,5.654 660.837,4.576 662.443,4.576C663.147,4.576 663.818,4.785 664.412,5.225L665.325,4.026C664.5,3.465 663.521,3.146 662.432,3.146C659.847,3.146 658.296,4.818 658.296,7.238L658.296,7.26C658.296,9.603 659.847,11.143 662.3,11.143ZM667.224,11L672.746,11L672.746,9.548L668.918,9.548L668.918,7.744L672.229,7.744L672.229,6.446L668.918,6.446L668.918,4.752L672.68,4.752L672.68,3.3L667.224,3.3L667.224,11ZM674.627,11L676.31,11L676.31,8.195L678.07,8.195L679.247,11L681.04,11L679.61,7.92C680.6,7.491 680.974,6.644 680.974,5.775L680.974,5.753C680.974,4.51 680.237,3.3 678.015,3.3L674.627,3.3L674.627,11ZM676.31,6.897L676.31,4.686L678.026,4.686C678.917,4.686 679.291,5.126 679.291,5.786L679.291,5.808C679.291,6.457 678.917,6.897 678.026,6.897L676.31,6.897ZM683.199,8.569L684.013,8.569L684.178,7.249C684.409,5.566 684.53,4.466 684.53,3.3L682.693,3.3C682.693,4.477 682.814,5.577 683.034,7.249L683.199,8.569ZM682.715,11L684.497,11L684.497,9.295L682.715,9.295L682.715,11Z" style="fill:rgb(183,187,187);fill-rule:nonzero;"/>
        <path d="M633.624,11L636.407,11C638.75,11 640.279,9.526 640.279,7.161L640.279,7.139C640.279,4.785 638.75,3.3 636.407,3.3L633.624,3.3L633.624,11ZM635.318,9.581L635.318,4.719L636.407,4.719C637.771,4.719 638.541,5.632 638.541,7.139L638.541,7.161C638.541,8.679 637.793,9.581 636.407,9.581L635.318,9.581ZM641.118,11L642.79,11L643.241,9.603L646.354,9.603L646.805,11L648.488,11L645.782,3.3L643.824,3.3L641.118,11ZM644.77,4.884L644.825,4.884L645.925,8.283L643.67,8.283L644.77,4.884ZM650.01,11L651.594,11L651.594,5.962L651.605,5.962L654.949,11L656.467,11L656.467,3.3L654.883,3.3L654.883,8.305L654.872,8.305L651.55,3.3L650.01,3.3L650.01,11ZM662.3,11.143C663.345,11.143 664.39,10.857 665.226,10.373L665.226,6.765L661.926,6.765L661.926,8.041L663.675,8.041L663.675,9.482C663.29,9.658 662.828,9.757 662.333,9.757C660.859,9.757 660.023,8.778 660.023,7.249L660.023,7.227C660.023,5.654 660.837,4.576 662.443,4.576C663.147,4.576 663.818,4.785 664.412,5.225L665.325,4.026C664.5,3.465 663.521,3.146 662.432,3.146C659.847,3.146 658.296,4.818 658.296,7.238L658.296,7.26C658.296,9.603 659.847,11.143 662.3,11.143ZM667.224,11L672.746,11L672.746,9.548L668.918,9.548L668.918,7.744L672.229,7.744L672.229,6.446L668.918,6.446L668.918,4.752L672.68,4.752L672.68,3.3L667.224,3.3L667.224,11ZM674.627,11L676.31,11L676.31,8.195L678.07,8.195L679.247,11L681.04,11L679.61,7.92C680.6,7.491 680.974,6.644 680.974,5.775L680.974,5.753C680.974,4.51 680.237,3.3 678.015,3.3L674.627,3.3L674.627,11ZM676.31,6.897L676.31,4.686L678.026,4.686C678.917,4.686 679.291,5.126 679.291,5.786L679.291,5.808C679.291,6.457 678.917,6.897 678.026,6.897L676.31,6.897ZM683.199,8.569L684.013,8.569L684.178,7.249C684.409,5.566 684.53,4.466 684.53,3.3L682.693,3.3C682.693,4.477 682.814,5.577 683.034,7.249L683.199,8.569ZM682.715,11L684.497,11L684.497,9.295L682.715,9.295L682.715,11Z" style="fill:rgb(183,187,187);fill-rule:nonzero;"/>
        <path d="M813.624,11L816.407,11C818.75,11 820.279,9.526 820.279,7.161L820.279,7.139C820.279,4.785 818.75,3.3 816.407,3.3L813.624,3.3L813.624,11ZM815.318,9.581L815.318,4.719L816.407,4.719C817.771,4.719 818.541,5.632 818.541,7.139L818.541,7.161C818.541,8.679 817.793,9.581 816.407,9.581L815.318,9.581ZM821.118,11L822.79,11L823.241,9.603L826.354,9.603L826.805,11L828.488,11L825.782,3.3L823.824,3.3L821.118,11ZM824.77,4.884L824.825,4.884L825.925,8.283L823.67,8.283L824.77,4.884ZM830.01,11L831.594,11L831.594,5.962L831.605,5.962L834.949,11L836.467,11L836.467,3.3L834.883,3.3L834.883,8.305L834.872,8.305L831.55,3.3L830.01,3.3L830.01,11ZM842.3,11.143C843.345,11.143 844.39,10.857 845.226,10.373L845.226,6.765L841.926,6.765L841.926,8.041L843.675,8.041L843.675,9.482C843.29,9.658 842.828,9.757 842.333,9.757C840.859,9.757 840.023,8.778 840.023,7.249L840.023,7.227C840.023,5.654 840.837,4.576 842.443,4.576C843.147,4.576 843.818,4.785 844.412,5.225L845.325,4.026C844.5,3.465 843.521,3.146 842.432,3.146C839.847,3.146 838.296,4.818 838.296,7.238L838.296,7.26C838.296,9.603 839.847,11.143 842.3,11.143ZM847.224,11L852.746,11L852.746,9.548L848.918,9.548L848.918,7.744L852.229,7.744L852.229,6.446L848.918,6.446L848.918,4.752L852.68,4.752L852.68,3.3L847.224,3.3L847.224,11ZM854.627,11L856.31,11L856.31,8.195L858.07,8.195L859.247,11L861.04,11L859.61,7.92C860.6,7.491 860.974,6.644 860.974,5.775L860.974,5.753C860.974,4.51 860.237,3.3 858.015,3.3L854.627,3.3L854.627,11ZM856.31,6.897L856.31,4.686L858.026,4.686C858.917,4.686 859.291,5.126 859.291,5.786L859.291,5.808C859.291,6.457 858.917,6.897 858.026,6.897L856.31,6.897ZM863.199,8.569L864.013,8.569L864.178,7.249C864.409,5.566 864.53,4.466 864.53,3.3L862.693,3.3C862.693,4.477 862.814,5.577 863.034,7.249L863.199,8.569ZM862.715,11L864.497,11L864.497,9.295L862.715,9.295L862.715,11Z" style="fill:rgb(183,187,187);fill-rule:nonzero;"/>
        <path d="M813.624,11L816.407,11C818.75,11 820.279,9.526 820.279,7.161L820.279,7.139C820.279,4.785 818.75,3.3 816.407,3.3L813.624,3.3L813.624,11ZM815.318,9.581L815.318,4.719L816.407,4.719C817.771,4.719 818.541,5.632 818.541,7.139L818.541,7.161C818.541,8.679 817.793,9.581 816.407,9.581L815.318,9.581ZM821.118,11L822.79,11L823.241,9.603L826.354,9.603L826.805,11L828.488,11L825.782,3.3L823.824,3.3L821.118,11ZM824.77,4.884L824.825,4.884L825.925,8.283L823.67,8.283L824.77,4.884ZM830.01,11L831.594,11L831.594,5.962L831.605,5.962L834.949,11L836.467,11L836.467,3.3L834.883,3.3L834.883,8.305L834.872,8.305L831.55,3.3L830.01,3.3L830.01,11ZM842.3,11.143C843.345,11.143 844.39,10.857 845.226,10.373L845.226,6.765L841.926,6.765L841.926,8.041L843.675,8.041L843.675,9.482C843.29,9.658 842.828,9.757 842.333,9.757C840.859,9.757 840.023,8.778 840.023,7.249L840.023,7.227C840.023,5.654 840.837,4.576 842.443,4.576C843.147,4.576 843.818,4.785 844.412,5.225L845.325,4.026C844.5,3.465 843.521,3.146 842.432,3.146C839.847,3.146 838.296,4.818 838.296,7.238L838.296,7.26C838.296,9.603 839.847,11.143 842.3,11.143ZM847.224,11L852.746,11L852.746,9.548L848.918,9.548L848.918,7.744L852.229,7.744L852.229,6.446L848.918,6.446L848.918,4.752L852.68,4.752L852.68,3.3L847.224,3.3L847.224,11ZM854.627,11L856.31,11L856.31,8.195L858.07,8.195L859.247,11L861.04,11L859.61,7.92C860.6,7.491 860.974,6.644 860.974,5.775L860.974,5.753C860.974,4.51 860.237,3.3 858.015,3.3L854.627,3.3L854.627,11ZM856.31,6.897L856.31,4.686L858.026,4.686C858.917,4.686 859.291,5.126 859.291,5.786L859.291,5.808C859.291,6.457 858.917,6.897 858.026,6.897L856.31,6.897ZM863.199,8.569L864.013,8.569L864.178,7.249C864.409,5.566 864.53,4.466 864.53,3.3L862.693,3.3C862.693,4.477 862.814,5.577 863.034,7.249L863.199,8.569ZM862.715,11L864.497,11L864.497,9.295L862.715,9.295L862.715,11Z" style="fill:rgb(183,187,187);fill-rule:nonzero;"/>
    </g>
</svg>
