<?xml version="1.0" encoding="UTF-8" standalone="no"?>
<!DOCTYPE svg PUBLIC "-//W3C//DTD SVG 1.1//EN" "http://www.w3.org/Graphics/SVG/1.1/DTD/svg11.dtd">
<svg width="100%" height="100%" viewBox="0 0 940 16" version="1.1" xmlns="http://www.w3.org/2000/svg" xmlns:xlink="http://www.w3.org/1999/xlink" xml:space="preserve" xmlns:serif="http://www.serif.com/" style="fill-rule:evenodd;clip-rule:evenodd;stroke-linejoin:round;stroke-miterlimit:2;">
    <g>
        <path d="M-1,2L9,2L-1,13L-11,13L-1,2Z" style="fill:rgb(240,78,26);fill-rule:nonzero;"/>
        <path d="M19,2L29,2L19,13L9,13L19,2Z" style="fill:rgb(240,78,26);fill-rule:nonzero;"/>
        <path d="M39,2L49,2L39,13L29,13L39,2Z" style="fill:rgb(240,78,26);fill-rule:nonzero;"/>
        <path d="M59,2L69,2L59,13L49,13L59,2Z" style="fill:rgb(240,78,26);fill-rule:nonzero;"/>
        <path d="M179,2L189,2L179,13L169,13L179,2Z" style="fill:rgb(240,78,26);fill-rule:nonzero;"/>
        <path d="M199,2L209,2L199,13L189,13L199,2Z" style="fill:rgb(240,78,26);fill-rule:nonzero;"/>
        <path d="M219,2L229,2L219,13L209,13L219,2Z" style="fill:rgb(240,78,26);fill-rule:nonzero;"/>
        <path d="M239,2L249,2L239,13L229,13L239,2Z" style="fill:rgb(240,78,26);fill-rule:nonzero;"/>
        <path d="M359,2L369,2L359,13L349,13L359,2Z" style="fill:rgb(240,78,26);fill-rule:nonzero;"/>
        <path d="M379,2L389,2L379,13L369,13L379,2Z" style="fill:rgb(240,78,26);fill-rule:nonzero;"/>
        <path d="M399,2L409,2L399,13L389,13L399,2Z" style="fill:rgb(240,78,26);fill-rule:nonzero;"/>
        <path d="M419,2L429,2L419,13L409,13L419,2Z" style="fill:rgb(240,78,26);fill-rule:nonzero;"/>
        <path d="M539,2L549,2L539,13L529,13L539,2Z" style="fill:rgb(240,78,26);fill-rule:nonzero;"/>
        <path d="M559,2L569,2L559,13L549,13L559,2Z" style="fill:rgb(240,78,26);fill-rule:nonzero;"/>
        <path d="M579,2L589,2L579,13L569,13L579,2Z" style="fill:rgb(240,78,26);fill-rule:nonzero;"/>
        <path d="M599,2L609,2L599,13L589,13L599,2Z" style="fill:rgb(240,78,26);fill-rule:nonzero;"/>
        <path d="M719,2L729,2L719,13L709,13L719,2Z" style="fill:rgb(240,78,26);fill-rule:nonzero;"/>
        <path d="M739,2L749,2L739,13L729,13L739,2Z" style="fill:rgb(240,78,26);fill-rule:nonzero;"/>
        <path d="M759,2L769,2L759,13L749,13L759,2Z" style="fill:rgb(240,78,26);fill-rule:nonzero;"/>
        <path d="M779,2L789,2L779,13L769,13L779,2Z" style="fill:rgb(240,78,26);fill-rule:nonzero;"/>
        <path d="M899,2L909,2L899,13L889,13L899,2Z" style="fill:rgb(240,78,26);fill-rule:nonzero;"/>
        <path d="M919,2L929,2L919,13L909,13L919,2Z" style="fill:rgb(240,78,26);fill-rule:nonzero;"/>
        <path d="M939,2L949,2L939,13L929,13L939,2Z" style="fill:rgb(240,78,26);fill-rule:nonzero;"/>
        <path d="M939,2L949,2L939,13L929,13L939,2Z" style="fill:rgb(240,78,26);fill-rule:nonzero;"/>
        <path d="M-1,2L9,2L-1,13L-11,13L-1,2Z" style="fill:rgb(240,78,26);fill-rule:nonzero;"/>
        <path d="M435.222,11L436.916,11L436.916,7.854L439.908,7.854L439.908,11L441.602,11L441.602,3.3L439.908,3.3L439.908,6.358L436.916,6.358L436.916,3.3L435.222,3.3L435.222,11ZM443.85,11L445.544,11L445.544,3.3L443.85,3.3L443.85,11ZM451.37,11.143C452.415,11.143 453.46,10.857 454.296,10.373L454.296,6.765L450.996,6.765L450.996,8.041L452.745,8.041L452.745,9.482C452.36,9.658 451.898,9.757 451.403,9.757C449.929,9.757 449.093,8.778 449.093,7.249L449.093,7.227C449.093,5.654 449.907,4.576 451.513,4.576C452.217,4.576 452.888,4.785 453.482,5.225L454.395,4.026C453.57,3.465 452.591,3.146 451.502,3.146C448.917,3.146 447.366,4.818 447.366,7.238L447.366,7.26C447.366,9.603 448.917,11.143 451.37,11.143ZM456.294,11L457.988,11L457.988,7.854L460.98,7.854L460.98,11L462.674,11L462.674,3.3L460.98,3.3L460.98,6.358L457.988,6.358L457.988,3.3L456.294,3.3L456.294,11ZM469.869,11L471.574,11L474.28,3.3L472.608,3.3L470.76,9.031L470.716,9.031L468.857,3.3L467.174,3.3L469.869,11ZM478.961,11.154C481.238,11.154 482.811,9.603 482.811,7.161L482.811,7.139C482.811,4.708 481.238,3.146 478.961,3.146C476.684,3.146 475.111,4.708 475.111,7.139L475.111,7.161C475.111,9.603 476.684,11.154 478.961,11.154ZM478.961,9.746C477.652,9.746 476.849,8.756 476.849,7.161L476.849,7.139C476.849,5.555 477.652,4.554 478.961,4.554C480.281,4.554 481.084,5.555 481.084,7.139L481.084,7.161C481.084,8.756 480.281,9.746 478.961,9.746ZM484.651,11L490.063,11L490.063,9.526L486.345,9.526L486.345,3.3L484.651,3.3L484.651,11ZM492.494,11L494.188,11L494.188,4.785L496.619,4.785L496.619,3.3L490.052,3.3L490.052,4.785L492.494,4.785L492.494,11ZM496.691,11L498.363,11L498.814,9.603L501.927,9.603L502.378,11L504.061,11L501.355,3.3L499.397,3.3L496.691,11ZM500.343,4.884L500.398,4.884L501.498,8.283L499.243,8.283L500.343,4.884ZM508.922,11.143C509.967,11.143 511.012,10.857 511.848,10.373L511.848,6.765L508.548,6.765L508.548,8.041L510.297,8.041L510.297,9.482C509.912,9.658 509.45,9.757 508.955,9.757C507.481,9.757 506.645,8.778 506.645,7.249L506.645,7.227C506.645,5.654 507.459,4.576 509.065,4.576C509.769,4.576 510.44,4.785 511.034,5.225L511.947,4.026C511.122,3.465 510.143,3.146 509.054,3.146C506.469,3.146 504.918,4.818 504.918,7.238L504.918,7.26C504.918,9.603 506.469,11.143 508.922,11.143ZM513.846,11L519.368,11L519.368,9.548L515.54,9.548L515.54,7.744L518.851,7.744L518.851,6.446L515.54,6.446L515.54,4.752L519.302,4.752L519.302,3.3L513.846,3.3L513.846,11ZM521.602,8.569L522.416,8.569L522.581,7.249C522.812,5.566 522.933,4.466 522.933,3.3L521.096,3.3C521.096,4.477 521.217,5.577 521.437,7.249L521.602,8.569ZM521.118,11L522.9,11L522.9,9.295L521.118,9.295L521.118,11Z" style="fill:rgb(191,46,0);fill-rule:nonzero;"/>
        <path d="M255.222,11L256.916,11L256.916,7.854L259.908,7.854L259.908,11L261.602,11L261.602,3.3L259.908,3.3L259.908,6.358L256.916,6.358L256.916,3.3L255.222,3.3L255.222,11ZM263.85,11L265.544,11L265.544,3.3L263.85,3.3L263.85,11ZM271.37,11.143C272.415,11.143 273.46,10.857 274.296,10.373L274.296,6.765L270.996,6.765L270.996,8.041L272.745,8.041L272.745,9.482C272.36,9.658 271.898,9.757 271.403,9.757C269.929,9.757 269.093,8.778 269.093,7.249L269.093,7.227C269.093,5.654 269.907,4.576 271.513,4.576C272.217,4.576 272.888,4.785 273.482,5.225L274.395,4.026C273.57,3.465 272.591,3.146 271.502,3.146C268.917,3.146 267.366,4.818 267.366,7.238L267.366,7.26C267.366,9.603 268.917,11.143 271.37,11.143ZM276.294,11L277.988,11L277.988,7.854L280.98,7.854L280.98,11L282.674,11L282.674,3.3L280.98,3.3L280.98,6.358L277.988,6.358L277.988,3.3L276.294,3.3L276.294,11ZM289.869,11L291.574,11L294.28,3.3L292.608,3.3L290.76,9.031L290.716,9.031L288.857,3.3L287.174,3.3L289.869,11ZM298.961,11.154C301.238,11.154 302.811,9.603 302.811,7.161L302.811,7.139C302.811,4.708 301.238,3.146 298.961,3.146C296.684,3.146 295.111,4.708 295.111,7.139L295.111,7.161C295.111,9.603 296.684,11.154 298.961,11.154ZM298.961,9.746C297.652,9.746 296.849,8.756 296.849,7.161L296.849,7.139C296.849,5.555 297.652,4.554 298.961,4.554C300.281,4.554 301.084,5.555 301.084,7.139L301.084,7.161C301.084,8.756 300.281,9.746 298.961,9.746ZM304.651,11L310.063,11L310.063,9.526L306.345,9.526L306.345,3.3L304.651,3.3L304.651,11ZM312.494,11L314.188,11L314.188,4.785L316.619,4.785L316.619,3.3L310.052,3.3L310.052,4.785L312.494,4.785L312.494,11ZM316.691,11L318.363,11L318.814,9.603L321.927,9.603L322.378,11L324.061,11L321.355,3.3L319.397,3.3L316.691,11ZM320.343,4.884L320.398,4.884L321.498,8.283L319.243,8.283L320.343,4.884ZM328.922,11.143C329.967,11.143 331.012,10.857 331.848,10.373L331.848,6.765L328.548,6.765L328.548,8.041L330.297,8.041L330.297,9.482C329.912,9.658 329.45,9.757 328.955,9.757C327.481,9.757 326.645,8.778 326.645,7.249L326.645,7.227C326.645,5.654 327.459,4.576 329.065,4.576C329.769,4.576 330.44,4.785 331.034,5.225L331.947,4.026C331.122,3.465 330.143,3.146 329.054,3.146C326.469,3.146 324.918,4.818 324.918,7.238L324.918,7.26C324.918,9.603 326.469,11.143 328.922,11.143ZM333.846,11L339.368,11L339.368,9.548L335.54,9.548L335.54,7.744L338.851,7.744L338.851,6.446L335.54,6.446L335.54,4.752L339.302,4.752L339.302,3.3L333.846,3.3L333.846,11ZM341.602,8.569L342.416,8.569L342.581,7.249C342.812,5.566 342.933,4.466 342.933,3.3L341.096,3.3C341.096,4.477 341.217,5.577 341.437,7.249L341.602,8.569ZM341.118,11L342.9,11L342.9,9.295L341.118,9.295L341.118,11Z" style="fill:rgb(191,46,0);fill-rule:nonzero;"/>
        <path d="M75.222,11L76.916,11L76.916,7.854L79.908,7.854L79.908,11L81.602,11L81.602,3.3L79.908,3.3L79.908,6.358L76.916,6.358L76.916,3.3L75.222,3.3L75.222,11ZM83.85,11L85.544,11L85.544,3.3L83.85,3.3L83.85,11ZM91.37,11.143C92.415,11.143 93.46,10.857 94.296,10.373L94.296,6.765L90.996,6.765L90.996,8.041L92.745,8.041L92.745,9.482C92.36,9.658 91.898,9.757 91.403,9.757C89.929,9.757 89.093,8.778 89.093,7.249L89.093,7.227C89.093,5.654 89.907,4.576 91.513,4.576C92.217,4.576 92.888,4.785 93.482,5.225L94.395,4.026C93.57,3.465 92.591,3.146 91.502,3.146C88.917,3.146 87.366,4.818 87.366,7.238L87.366,7.26C87.366,9.603 88.917,11.143 91.37,11.143ZM96.294,11L97.988,11L97.988,7.854L100.98,7.854L100.98,11L102.674,11L102.674,3.3L100.98,3.3L100.98,6.358L97.988,6.358L97.988,3.3L96.294,3.3L96.294,11ZM109.869,11L111.574,11L114.28,3.3L112.608,3.3L110.76,9.031L110.716,9.031L108.857,3.3L107.174,3.3L109.869,11ZM118.961,11.154C121.238,11.154 122.811,9.603 122.811,7.161L122.811,7.139C122.811,4.708 121.238,3.146 118.961,3.146C116.684,3.146 115.111,4.708 115.111,7.139L115.111,7.161C115.111,9.603 116.684,11.154 118.961,11.154ZM118.961,9.746C117.652,9.746 116.849,8.756 116.849,7.161L116.849,7.139C116.849,5.555 117.652,4.554 118.961,4.554C120.281,4.554 121.084,5.555 121.084,7.139L121.084,7.161C121.084,8.756 120.281,9.746 118.961,9.746ZM124.651,11L130.063,11L130.063,9.526L126.345,9.526L126.345,3.3L124.651,3.3L124.651,11ZM132.494,11L134.188,11L134.188,4.785L136.619,4.785L136.619,3.3L130.052,3.3L130.052,4.785L132.494,4.785L132.494,11ZM136.691,11L138.363,11L138.814,9.603L141.927,9.603L142.378,11L144.061,11L141.355,3.3L139.397,3.3L136.691,11ZM140.343,4.884L140.398,4.884L141.498,8.283L139.243,8.283L140.343,4.884ZM148.922,11.143C149.967,11.143 151.012,10.857 151.848,10.373L151.848,6.765L148.548,6.765L148.548,8.041L150.297,8.041L150.297,9.482C149.912,9.658 149.45,9.757 148.955,9.757C147.481,9.757 146.645,8.778 146.645,7.249L146.645,7.227C146.645,5.654 147.459,4.576 149.065,4.576C149.769,4.576 150.44,4.785 151.034,5.225L151.947,4.026C151.122,3.465 150.143,3.146 149.054,3.146C146.469,3.146 144.918,4.818 144.918,7.238L144.918,7.26C144.918,9.603 146.469,11.143 148.922,11.143ZM153.846,11L159.368,11L159.368,9.548L155.54,9.548L155.54,7.744L158.851,7.744L158.851,6.446L155.54,6.446L155.54,4.752L159.302,4.752L159.302,3.3L153.846,3.3L153.846,11ZM161.602,8.569L162.416,8.569L162.581,7.249C162.812,5.566 162.933,4.466 162.933,3.3L161.096,3.3C161.096,4.477 161.217,5.577 161.437,7.249L161.602,8.569ZM161.118,11L162.9,11L162.9,9.295L161.118,9.295L161.118,11Z" style="fill:rgb(191,46,0);fill-rule:nonzero;"/>
        <path d="M615.222,11L616.916,11L616.916,7.854L619.908,7.854L619.908,11L621.602,11L621.602,3.3L619.908,3.3L619.908,6.358L616.916,6.358L616.916,3.3L615.222,3.3L615.222,11ZM623.85,11L625.544,11L625.544,3.3L623.85,3.3L623.85,11ZM631.37,11.143C632.415,11.143 633.46,10.857 634.296,10.373L634.296,6.765L630.996,6.765L630.996,8.041L632.745,8.041L632.745,9.482C632.36,9.658 631.898,9.757 631.403,9.757C629.929,9.757 629.093,8.778 629.093,7.249L629.093,7.227C629.093,5.654 629.907,4.576 631.513,4.576C632.217,4.576 632.888,4.785 633.482,5.225L634.395,4.026C633.57,3.465 632.591,3.146 631.502,3.146C628.917,3.146 627.366,4.818 627.366,7.238L627.366,7.26C627.366,9.603 628.917,11.143 631.37,11.143ZM636.294,11L637.988,11L637.988,7.854L640.98,7.854L640.98,11L642.674,11L642.674,3.3L640.98,3.3L640.98,6.358L637.988,6.358L637.988,3.3L636.294,3.3L636.294,11ZM649.869,11L651.574,11L654.28,3.3L652.608,3.3L650.76,9.031L650.716,9.031L648.857,3.3L647.174,3.3L649.869,11ZM658.961,11.154C661.238,11.154 662.811,9.603 662.811,7.161L662.811,7.139C662.811,4.708 661.238,3.146 658.961,3.146C656.684,3.146 655.111,4.708 655.111,7.139L655.111,7.161C655.111,9.603 656.684,11.154 658.961,11.154ZM658.961,9.746C657.652,9.746 656.849,8.756 656.849,7.161L656.849,7.139C656.849,5.555 657.652,4.554 658.961,4.554C660.281,4.554 661.084,5.555 661.084,7.139L661.084,7.161C661.084,8.756 660.281,9.746 658.961,9.746ZM664.651,11L670.063,11L670.063,9.526L666.345,9.526L666.345,3.3L664.651,3.3L664.651,11ZM672.494,11L674.188,11L674.188,4.785L676.619,4.785L676.619,3.3L670.052,3.3L670.052,4.785L672.494,4.785L672.494,11ZM676.691,11L678.363,11L678.814,9.603L681.927,9.603L682.378,11L684.061,11L681.355,3.3L679.397,3.3L676.691,11ZM680.343,4.884L680.398,4.884L681.498,8.283L679.243,8.283L680.343,4.884ZM688.922,11.143C689.967,11.143 691.012,10.857 691.848,10.373L691.848,6.765L688.548,6.765L688.548,8.041L690.297,8.041L690.297,9.482C689.912,9.658 689.45,9.757 688.955,9.757C687.481,9.757 686.645,8.778 686.645,7.249L686.645,7.227C686.645,5.654 687.459,4.576 689.065,4.576C689.769,4.576 690.44,4.785 691.034,5.225L691.947,4.026C691.122,3.465 690.143,3.146 689.054,3.146C686.469,3.146 684.918,4.818 684.918,7.238L684.918,7.26C684.918,9.603 686.469,11.143 688.922,11.143ZM693.846,11L699.368,11L699.368,9.548L695.54,9.548L695.54,7.744L698.851,7.744L698.851,6.446L695.54,6.446L695.54,4.752L699.302,4.752L699.302,3.3L693.846,3.3L693.846,11ZM701.602,8.569L702.416,8.569L702.581,7.249C702.812,5.566 702.933,4.466 702.933,3.3L701.096,3.3C701.096,4.477 701.217,5.577 701.437,7.249L701.602,8.569ZM701.118,11L702.9,11L702.9,9.295L701.118,9.295L701.118,11Z" style="fill:rgb(191,46,0);fill-rule:nonzero;"/>
        <path d="M795.222,11L796.916,11L796.916,7.854L799.908,7.854L799.908,11L801.602,11L801.602,3.3L799.908,3.3L799.908,6.358L796.916,6.358L796.916,3.3L795.222,3.3L795.222,11ZM803.85,11L805.544,11L805.544,3.3L803.85,3.3L803.85,11ZM811.37,11.143C812.415,11.143 813.46,10.857 814.296,10.373L814.296,6.765L810.996,6.765L810.996,8.041L812.745,8.041L812.745,9.482C812.36,9.658 811.898,9.757 811.403,9.757C809.929,9.757 809.093,8.778 809.093,7.249L809.093,7.227C809.093,5.654 809.907,4.576 811.513,4.576C812.217,4.576 812.888,4.785 813.482,5.225L814.395,4.026C813.57,3.465 812.591,3.146 811.502,3.146C808.917,3.146 807.366,4.818 807.366,7.238L807.366,7.26C807.366,9.603 808.917,11.143 811.37,11.143ZM816.294,11L817.988,11L817.988,7.854L820.98,7.854L820.98,11L822.674,11L822.674,3.3L820.98,3.3L820.98,6.358L817.988,6.358L817.988,3.3L816.294,3.3L816.294,11ZM829.869,11L831.574,11L834.28,3.3L832.608,3.3L830.76,9.031L830.716,9.031L828.857,3.3L827.174,3.3L829.869,11ZM838.961,11.154C841.238,11.154 842.811,9.603 842.811,7.161L842.811,7.139C842.811,4.708 841.238,3.146 838.961,3.146C836.684,3.146 835.111,4.708 835.111,7.139L835.111,7.161C835.111,9.603 836.684,11.154 838.961,11.154ZM838.961,9.746C837.652,9.746 836.849,8.756 836.849,7.161L836.849,7.139C836.849,5.555 837.652,4.554 838.961,4.554C840.281,4.554 841.084,5.555 841.084,7.139L841.084,7.161C841.084,8.756 840.281,9.746 838.961,9.746ZM844.651,11L850.063,11L850.063,9.526L846.345,9.526L846.345,3.3L844.651,3.3L844.651,11ZM852.494,11L854.188,11L854.188,4.785L856.619,4.785L856.619,3.3L850.052,3.3L850.052,4.785L852.494,4.785L852.494,11ZM856.691,11L858.363,11L858.814,9.603L861.927,9.603L862.378,11L864.061,11L861.355,3.3L859.397,3.3L856.691,11ZM860.343,4.884L860.398,4.884L861.498,8.283L859.243,8.283L860.343,4.884ZM868.922,11.143C869.967,11.143 871.012,10.857 871.848,10.373L871.848,6.765L868.548,6.765L868.548,8.041L870.297,8.041L870.297,9.482C869.912,9.658 869.45,9.757 868.955,9.757C867.481,9.757 866.645,8.778 866.645,7.249L866.645,7.227C866.645,5.654 867.459,4.576 869.065,4.576C869.769,4.576 870.44,4.785 871.034,5.225L871.947,4.026C871.122,3.465 870.143,3.146 869.054,3.146C866.469,3.146 864.918,4.818 864.918,7.238L864.918,7.26C864.918,9.603 866.469,11.143 868.922,11.143ZM873.846,11L879.368,11L879.368,9.548L875.54,9.548L875.54,7.744L878.851,7.744L878.851,6.446L875.54,6.446L875.54,4.752L879.302,4.752L879.302,3.3L873.846,3.3L873.846,11ZM881.602,8.569L882.416,8.569L882.581,7.249C882.812,5.566 882.933,4.466 882.933,3.3L881.096,3.3C881.096,4.477 881.217,5.577 881.437,7.249L881.602,8.569ZM881.118,11L882.9,11L882.9,9.295L881.118,9.295L881.118,11Z" style="fill:rgb(191,46,0);fill-rule:nonzero;"/>
        <path d="M74.722,11L76.416,11L76.416,7.854L79.408,7.854L79.408,11L81.102,11L81.102,3.3L79.408,3.3L79.408,6.358L76.416,6.358L76.416,3.3L74.722,3.3L74.722,11ZM83.35,11L85.044,11L85.044,3.3L83.35,3.3L83.35,11ZM90.87,11.143C91.915,11.143 92.96,10.857 93.796,10.373L93.796,6.765L90.496,6.765L90.496,8.041L92.245,8.041L92.245,9.482C91.86,9.658 91.398,9.757 90.903,9.757C89.429,9.757 88.593,8.778 88.593,7.249L88.593,7.227C88.593,5.654 89.407,4.576 91.013,4.576C91.717,4.576 92.388,4.785 92.982,5.225L93.895,4.026C93.07,3.465 92.091,3.146 91.002,3.146C88.417,3.146 86.866,4.818 86.866,7.238L86.866,7.26C86.866,9.603 88.417,11.143 90.87,11.143ZM95.794,11L97.488,11L97.488,7.854L100.48,7.854L100.48,11L102.174,11L102.174,3.3L100.48,3.3L100.48,6.358L97.488,6.358L97.488,3.3L95.794,3.3L95.794,11ZM109.369,11L111.074,11L113.78,3.3L112.108,3.3L110.26,9.031L110.216,9.031L108.357,3.3L106.674,3.3L109.369,11ZM118.461,11.154C120.738,11.154 122.311,9.603 122.311,7.161L122.311,7.139C122.311,4.708 120.738,3.146 118.461,3.146C116.184,3.146 114.611,4.708 114.611,7.139L114.611,7.161C114.611,9.603 116.184,11.154 118.461,11.154ZM118.461,9.746C117.152,9.746 116.349,8.756 116.349,7.161L116.349,7.139C116.349,5.555 117.152,4.554 118.461,4.554C119.781,4.554 120.584,5.555 120.584,7.139L120.584,7.161C120.584,8.756 119.781,9.746 118.461,9.746ZM124.151,11L129.563,11L129.563,9.526L125.845,9.526L125.845,3.3L124.151,3.3L124.151,11ZM131.994,11L133.688,11L133.688,4.785L136.119,4.785L136.119,3.3L129.552,3.3L129.552,4.785L131.994,4.785L131.994,11ZM136.191,11L137.863,11L138.314,9.603L141.427,9.603L141.878,11L143.561,11L140.855,3.3L138.897,3.3L136.191,11ZM139.843,4.884L139.898,4.884L140.998,8.283L138.743,8.283L139.843,4.884ZM148.422,11.143C149.467,11.143 150.512,10.857 151.348,10.373L151.348,6.765L148.048,6.765L148.048,8.041L149.797,8.041L149.797,9.482C149.412,9.658 148.95,9.757 148.455,9.757C146.981,9.757 146.145,8.778 146.145,7.249L146.145,7.227C146.145,5.654 146.959,4.576 148.565,4.576C149.269,4.576 149.94,4.785 150.534,5.225L151.447,4.026C150.622,3.465 149.643,3.146 148.554,3.146C145.969,3.146 144.418,4.818 144.418,7.238L144.418,7.26C144.418,9.603 145.969,11.143 148.422,11.143ZM153.346,11L158.868,11L158.868,9.548L155.04,9.548L155.04,7.744L158.351,7.744L158.351,6.446L155.04,6.446L155.04,4.752L158.802,4.752L158.802,3.3L153.346,3.3L153.346,11ZM161.102,8.569L161.916,8.569L162.081,7.249C162.312,5.566 162.433,4.466 162.433,3.3L160.596,3.3C160.596,4.477 160.717,5.577 160.937,7.249L161.102,8.569ZM160.618,11L162.4,11L162.4,9.295L160.618,9.295L160.618,11Z" style="fill:rgb(191,46,0);fill-rule:nonzero;"/>
        <path d="M254.722,11L256.416,11L256.416,7.854L259.408,7.854L259.408,11L261.102,11L261.102,3.3L259.408,3.3L259.408,6.358L256.416,6.358L256.416,3.3L254.722,3.3L254.722,11ZM263.35,11L265.044,11L265.044,3.3L263.35,3.3L263.35,11ZM270.87,11.143C271.915,11.143 272.96,10.857 273.796,10.373L273.796,6.765L270.496,6.765L270.496,8.041L272.245,8.041L272.245,9.482C271.86,9.658 271.398,9.757 270.903,9.757C269.429,9.757 268.593,8.778 268.593,7.249L268.593,7.227C268.593,5.654 269.407,4.576 271.013,4.576C271.717,4.576 272.388,4.785 272.982,5.225L273.895,4.026C273.07,3.465 272.091,3.146 271.002,3.146C268.417,3.146 266.866,4.818 266.866,7.238L266.866,7.26C266.866,9.603 268.417,11.143 270.87,11.143ZM275.794,11L277.488,11L277.488,7.854L280.48,7.854L280.48,11L282.174,11L282.174,3.3L280.48,3.3L280.48,6.358L277.488,6.358L277.488,3.3L275.794,3.3L275.794,11ZM289.369,11L291.074,11L293.78,3.3L292.108,3.3L290.26,9.031L290.216,9.031L288.357,3.3L286.674,3.3L289.369,11ZM298.461,11.154C300.738,11.154 302.311,9.603 302.311,7.161L302.311,7.139C302.311,4.708 300.738,3.146 298.461,3.146C296.184,3.146 294.611,4.708 294.611,7.139L294.611,7.161C294.611,9.603 296.184,11.154 298.461,11.154ZM298.461,9.746C297.152,9.746 296.349,8.756 296.349,7.161L296.349,7.139C296.349,5.555 297.152,4.554 298.461,4.554C299.781,4.554 300.584,5.555 300.584,7.139L300.584,7.161C300.584,8.756 299.781,9.746 298.461,9.746ZM304.151,11L309.563,11L309.563,9.526L305.845,9.526L305.845,3.3L304.151,3.3L304.151,11ZM311.994,11L313.688,11L313.688,4.785L316.119,4.785L316.119,3.3L309.552,3.3L309.552,4.785L311.994,4.785L311.994,11ZM316.191,11L317.863,11L318.314,9.603L321.427,9.603L321.878,11L323.561,11L320.855,3.3L318.897,3.3L316.191,11ZM319.843,4.884L319.898,4.884L320.998,8.283L318.743,8.283L319.843,4.884ZM328.422,11.143C329.467,11.143 330.512,10.857 331.348,10.373L331.348,6.765L328.048,6.765L328.048,8.041L329.797,8.041L329.797,9.482C329.412,9.658 328.95,9.757 328.455,9.757C326.981,9.757 326.145,8.778 326.145,7.249L326.145,7.227C326.145,5.654 326.959,4.576 328.565,4.576C329.269,4.576 329.94,4.785 330.534,5.225L331.447,4.026C330.622,3.465 329.643,3.146 328.554,3.146C325.969,3.146 324.418,4.818 324.418,7.238L324.418,7.26C324.418,9.603 325.969,11.143 328.422,11.143ZM333.346,11L338.868,11L338.868,9.548L335.04,9.548L335.04,7.744L338.351,7.744L338.351,6.446L335.04,6.446L335.04,4.752L338.802,4.752L338.802,3.3L333.346,3.3L333.346,11ZM341.102,8.569L341.916,8.569L342.081,7.249C342.312,5.566 342.433,4.466 342.433,3.3L340.596,3.3C340.596,4.477 340.717,5.577 340.937,7.249L341.102,8.569ZM340.618,11L342.4,11L342.4,9.295L340.618,9.295L340.618,11Z" style="fill:rgb(191,46,0);fill-rule:nonzero;"/>
        <path d="M615.722,11L617.416,11L617.416,7.854L620.408,7.854L620.408,11L622.102,11L622.102,3.3L620.408,3.3L620.408,6.358L617.416,6.358L617.416,3.3L615.722,3.3L615.722,11ZM624.35,11L626.044,11L626.044,3.3L624.35,3.3L624.35,11ZM631.87,11.143C632.915,11.143 633.96,10.857 634.796,10.373L634.796,6.765L631.496,6.765L631.496,8.041L633.245,8.041L633.245,9.482C632.86,9.658 632.398,9.757 631.903,9.757C630.429,9.757 629.593,8.778 629.593,7.249L629.593,7.227C629.593,5.654 630.407,4.576 632.013,4.576C632.717,4.576 633.388,4.785 633.982,5.225L634.895,4.026C634.07,3.465 633.091,3.146 632.002,3.146C629.417,3.146 627.866,4.818 627.866,7.238L627.866,7.26C627.866,9.603 629.417,11.143 631.87,11.143ZM636.794,11L638.488,11L638.488,7.854L641.48,7.854L641.48,11L643.174,11L643.174,3.3L641.48,3.3L641.48,6.358L638.488,6.358L638.488,3.3L636.794,3.3L636.794,11ZM650.369,11L652.074,11L654.78,3.3L653.108,3.3L651.26,9.031L651.216,9.031L649.357,3.3L647.674,3.3L650.369,11ZM659.461,11.154C661.738,11.154 663.311,9.603 663.311,7.161L663.311,7.139C663.311,4.708 661.738,3.146 659.461,3.146C657.184,3.146 655.611,4.708 655.611,7.139L655.611,7.161C655.611,9.603 657.184,11.154 659.461,11.154ZM659.461,9.746C658.152,9.746 657.349,8.756 657.349,7.161L657.349,7.139C657.349,5.555 658.152,4.554 659.461,4.554C660.781,4.554 661.584,5.555 661.584,7.139L661.584,7.161C661.584,8.756 660.781,9.746 659.461,9.746ZM665.151,11L670.563,11L670.563,9.526L666.845,9.526L666.845,3.3L665.151,3.3L665.151,11ZM672.994,11L674.688,11L674.688,4.785L677.119,4.785L677.119,3.3L670.552,3.3L670.552,4.785L672.994,4.785L672.994,11ZM677.191,11L678.863,11L679.314,9.603L682.427,9.603L682.878,11L684.561,11L681.855,3.3L679.897,3.3L677.191,11ZM680.843,4.884L680.898,4.884L681.998,8.283L679.743,8.283L680.843,4.884ZM689.422,11.143C690.467,11.143 691.512,10.857 692.348,10.373L692.348,6.765L689.048,6.765L689.048,8.041L690.797,8.041L690.797,9.482C690.412,9.658 689.95,9.757 689.455,9.757C687.981,9.757 687.145,8.778 687.145,7.249L687.145,7.227C687.145,5.654 687.959,4.576 689.565,4.576C690.269,4.576 690.94,4.785 691.534,5.225L692.447,4.026C691.622,3.465 690.643,3.146 689.554,3.146C686.969,3.146 685.418,4.818 685.418,7.238L685.418,7.26C685.418,9.603 686.969,11.143 689.422,11.143ZM694.346,11L699.868,11L699.868,9.548L696.04,9.548L696.04,7.744L699.351,7.744L699.351,6.446L696.04,6.446L696.04,4.752L699.802,4.752L699.802,3.3L694.346,3.3L694.346,11ZM702.102,8.569L702.916,8.569L703.081,7.249C703.312,5.566 703.433,4.466 703.433,3.3L701.596,3.3C701.596,4.477 701.717,5.577 701.937,7.249L702.102,8.569ZM701.618,11L703.4,11L703.4,9.295L701.618,9.295L701.618,11Z" style="fill:rgb(191,46,0);fill-rule:nonzero;"/>
        <path d="M795.722,11L797.416,11L797.416,7.854L800.408,7.854L800.408,11L802.102,11L802.102,3.3L800.408,3.3L800.408,6.358L797.416,6.358L797.416,3.3L795.722,3.3L795.722,11ZM804.35,11L806.044,11L806.044,3.3L804.35,3.3L804.35,11ZM811.87,11.143C812.915,11.143 813.96,10.857 814.796,10.373L814.796,6.765L811.496,6.765L811.496,8.041L813.245,8.041L813.245,9.482C812.86,9.658 812.398,9.757 811.903,9.757C810.429,9.757 809.593,8.778 809.593,7.249L809.593,7.227C809.593,5.654 810.407,4.576 812.013,4.576C812.717,4.576 813.388,4.785 813.982,5.225L814.895,4.026C814.07,3.465 813.091,3.146 812.002,3.146C809.417,3.146 807.866,4.818 807.866,7.238L807.866,7.26C807.866,9.603 809.417,11.143 811.87,11.143ZM816.794,11L818.488,11L818.488,7.854L821.48,7.854L821.48,11L823.174,11L823.174,3.3L821.48,3.3L821.48,6.358L818.488,6.358L818.488,3.3L816.794,3.3L816.794,11ZM830.369,11L832.074,11L834.78,3.3L833.108,3.3L831.26,9.031L831.216,9.031L829.357,3.3L827.674,3.3L830.369,11ZM839.461,11.154C841.738,11.154 843.311,9.603 843.311,7.161L843.311,7.139C843.311,4.708 841.738,3.146 839.461,3.146C837.184,3.146 835.611,4.708 835.611,7.139L835.611,7.161C835.611,9.603 837.184,11.154 839.461,11.154ZM839.461,9.746C838.152,9.746 837.349,8.756 837.349,7.161L837.349,7.139C837.349,5.555 838.152,4.554 839.461,4.554C840.781,4.554 841.584,5.555 841.584,7.139L841.584,7.161C841.584,8.756 840.781,9.746 839.461,9.746ZM845.151,11L850.563,11L850.563,9.526L846.845,9.526L846.845,3.3L845.151,3.3L845.151,11ZM852.994,11L854.688,11L854.688,4.785L857.119,4.785L857.119,3.3L850.552,3.3L850.552,4.785L852.994,4.785L852.994,11ZM857.191,11L858.863,11L859.314,9.603L862.427,9.603L862.878,11L864.561,11L861.855,3.3L859.897,3.3L857.191,11ZM860.843,4.884L860.898,4.884L861.998,8.283L859.743,8.283L860.843,4.884ZM869.422,11.143C870.467,11.143 871.512,10.857 872.348,10.373L872.348,6.765L869.048,6.765L869.048,8.041L870.797,8.041L870.797,9.482C870.412,9.658 869.95,9.757 869.455,9.757C867.981,9.757 867.145,8.778 867.145,7.249L867.145,7.227C867.145,5.654 867.959,4.576 869.565,4.576C870.269,4.576 870.94,4.785 871.534,5.225L872.447,4.026C871.622,3.465 870.643,3.146 869.554,3.146C866.969,3.146 865.418,4.818 865.418,7.238L865.418,7.26C865.418,9.603 866.969,11.143 869.422,11.143ZM874.346,11L879.868,11L879.868,9.548L876.04,9.548L876.04,7.744L879.351,7.744L879.351,6.446L876.04,6.446L876.04,4.752L879.802,4.752L879.802,3.3L874.346,3.3L874.346,11ZM882.102,8.569L882.916,8.569L883.081,7.249C883.312,5.566 883.433,4.466 883.433,3.3L881.596,3.3C881.596,4.477 881.717,5.577 881.937,7.249L882.102,8.569ZM881.618,11L883.4,11L883.4,9.295L881.618,9.295L881.618,11Z" style="fill:rgb(191,46,0);fill-rule:nonzero;"/>
        <path d="M435.722,11L437.416,11L437.416,7.854L440.408,7.854L440.408,11L442.102,11L442.102,3.3L440.408,3.3L440.408,6.358L437.416,6.358L437.416,3.3L435.722,3.3L435.722,11ZM444.35,11L446.044,11L446.044,3.3L444.35,3.3L444.35,11ZM451.87,11.143C452.915,11.143 453.96,10.857 454.796,10.373L454.796,6.765L451.496,6.765L451.496,8.041L453.245,8.041L453.245,9.482C452.86,9.658 452.398,9.757 451.903,9.757C450.429,9.757 449.593,8.778 449.593,7.249L449.593,7.227C449.593,5.654 450.407,4.576 452.013,4.576C452.717,4.576 453.388,4.785 453.982,5.225L454.895,4.026C454.07,3.465 453.091,3.146 452.002,3.146C449.417,3.146 447.866,4.818 447.866,7.238L447.866,7.26C447.866,9.603 449.417,11.143 451.87,11.143ZM456.794,11L458.488,11L458.488,7.854L461.48,7.854L461.48,11L463.174,11L463.174,3.3L461.48,3.3L461.48,6.358L458.488,6.358L458.488,3.3L456.794,3.3L456.794,11ZM470.369,11L472.074,11L474.78,3.3L473.108,3.3L471.26,9.031L471.216,9.031L469.357,3.3L467.674,3.3L470.369,11ZM479.461,11.154C481.738,11.154 483.311,9.603 483.311,7.161L483.311,7.139C483.311,4.708 481.738,3.146 479.461,3.146C477.184,3.146 475.611,4.708 475.611,7.139L475.611,7.161C475.611,9.603 477.184,11.154 479.461,11.154ZM479.461,9.746C478.152,9.746 477.349,8.756 477.349,7.161L477.349,7.139C477.349,5.555 478.152,4.554 479.461,4.554C480.781,4.554 481.584,5.555 481.584,7.139L481.584,7.161C481.584,8.756 480.781,9.746 479.461,9.746ZM485.151,11L490.563,11L490.563,9.526L486.845,9.526L486.845,3.3L485.151,3.3L485.151,11ZM492.994,11L494.688,11L494.688,4.785L497.119,4.785L497.119,3.3L490.552,3.3L490.552,4.785L492.994,4.785L492.994,11ZM497.191,11L498.863,11L499.314,9.603L502.427,9.603L502.878,11L504.561,11L501.855,3.3L499.897,3.3L497.191,11ZM500.843,4.884L500.898,4.884L501.998,8.283L499.743,8.283L500.843,4.884ZM509.422,11.143C510.467,11.143 511.512,10.857 512.348,10.373L512.348,6.765L509.048,6.765L509.048,8.041L510.797,8.041L510.797,9.482C510.412,9.658 509.95,9.757 509.455,9.757C507.981,9.757 507.145,8.778 507.145,7.249L507.145,7.227C507.145,5.654 507.959,4.576 509.565,4.576C510.269,4.576 510.94,4.785 511.534,5.225L512.447,4.026C511.622,3.465 510.643,3.146 509.554,3.146C506.969,3.146 505.418,4.818 505.418,7.238L505.418,7.26C505.418,9.603 506.969,11.143 509.422,11.143ZM514.346,11L519.868,11L519.868,9.548L516.04,9.548L516.04,7.744L519.351,7.744L519.351,6.446L516.04,6.446L516.04,4.752L519.802,4.752L519.802,3.3L514.346,3.3L514.346,11ZM522.102,8.569L522.916,8.569L523.081,7.249C523.312,5.566 523.433,4.466 523.433,3.3L521.596,3.3C521.596,4.477 521.717,5.577 521.937,7.249L522.102,8.569ZM521.618,11L523.4,11L523.4,9.295L521.618,9.295L521.618,11Z" style="fill:rgb(191,46,0);fill-rule:nonzero;"/>
    </g>
</svg>
