<svg width="940" height="16" viewBox="0 0 940 16" fill="none" xmlns="http://www.w3.org/2000/svg">
<mask id="mask0" mask-type="alpha" maskUnits="userSpaceOnUse" x="0" y="0" width="940" height="16">
<rect width="940" height="16" fill="#C4C4C4"/>
</mask>
<g mask="url(#mask0)">
<path d="M-1 2H9L-1 13H-11L-1 2Z" fill="#F04E1A"/>
<path d="M19 2H29L19 13H9L19 2Z" fill="#F04E1A"/>
<path d="M39 2H49L39 13H29L39 2Z" fill="#F04E1A"/>
<path d="M59 2H69L59 13H49L59 2Z" fill="#F04E1A"/>
<path d="M79 2H89L79 13H69L79 2Z" fill="#F04E1A"/>
<path d="M99 2H109L99 13H89L99 2Z" fill="#F04E1A"/>
<path d="M119 2H129L119 13H109L119 2Z" fill="#F04E1A"/>
<path d="M139 2H149L139 13H129L139 2Z" fill="#F04E1A"/>
<path d="M159 2H169L159 13H149L159 2Z" fill="#F04E1A"/>
<path d="M179 2H189L179 13H169L179 2Z" fill="#F04E1A"/>
<path d="M199 2H209L199 13H189L199 2Z" fill="#F04E1A"/>
<path d="M219 2H229L219 13H209L219 2Z" fill="#F04E1A"/>
<path d="M239 2H249L239 13H229L239 2Z" fill="#F04E1A"/>
<path d="M259 2H269L259 13H249L259 2Z" fill="#F04E1A"/>
<path d="M279 2H289L279 13H269L279 2Z" fill="#F04E1A"/>
<path d="M299 2H309L299 13H289L299 2Z" fill="#F04E1A"/>
<path d="M319 2H329L319 13H309L319 2Z" fill="#F04E1A"/>
<path d="M339 2H349L339 13H329L339 2Z" fill="#F04E1A"/>
<path d="M359 2H369L359 13H349L359 2Z" fill="#F04E1A"/>
<path d="M379 2H389L379 13H369L379 2Z" fill="#F04E1A"/>
<path d="M399 2H409L399 13H389L399 2Z" fill="#F04E1A"/>
<path d="M419 2H429L419 13H409L419 2Z" fill="#F04E1A"/>
<path d="M439 2H449L439 13H429L439 2Z" fill="#F04E1A"/>
<path d="M459 2H469L459 13H449L459 2Z" fill="#F04E1A"/>
<path d="M479 2H489L479 13H469L479 2Z" fill="#F04E1A"/>
<path d="M499 2H509L499 13H489L499 2Z" fill="#F04E1A"/>
<path d="M519 2H529L519 13H509L519 2Z" fill="#F04E1A"/>
<path d="M539 2H549L539 13H529L539 2Z" fill="#F04E1A"/>
<path d="M559 2H569L559 13H549L559 2Z" fill="#F04E1A"/>
<path d="M579 2H589L579 13H569L579 2Z" fill="#F04E1A"/>
<path d="M599 2H609L599 13H589L599 2Z" fill="#F04E1A"/>
<path d="M619 2H629L619 13H609L619 2Z" fill="#F04E1A"/>
<path d="M639 2H649L639 13H629L639 2Z" fill="#F04E1A"/>
<path d="M659 2H669L659 13H649L659 2Z" fill="#F04E1A"/>
<path d="M679 2H689L679 13H669L679 2Z" fill="#F04E1A"/>
<path d="M699 2H709L699 13H689L699 2Z" fill="#F04E1A"/>
<path d="M719 2H729L719 13H709L719 2Z" fill="#F04E1A"/>
<path d="M739 2H749L739 13H729L739 2Z" fill="#F04E1A"/>
<path d="M759 2H769L759 13H749L759 2Z" fill="#F04E1A"/>
<path d="M779 2H789L779 13H769L779 2Z" fill="#F04E1A"/>
<path d="M799 2H809L799 13H789L799 2Z" fill="#F04E1A"/>
<path d="M819 2H829L819 13H809L819 2Z" fill="#F04E1A"/>
<path d="M839 2H849L839 13H829L839 2Z" fill="#F04E1A"/>
<path d="M859 2H869L859 13H849L859 2Z" fill="#F04E1A"/>
<path d="M879 2H889L879 13H869L879 2Z" fill="#F04E1A"/>
<path d="M899 2H909L899 13H889L899 2Z" fill="#F04E1A"/>
<path d="M919 2H929L919 13H909L919 2Z" fill="#F04E1A"/>
<path d="M939 2H949L939 13H929L939 2Z" fill="#F04E1A"/>
<path d="M939 2H949L939 13H929L939 2Z" fill="#F04E1A"/>
<path d="M959 2H969L959 13H949L959 2Z" fill="#F04E1A"/>
<path d="M979 2H989L979 13H969L979 2Z" fill="#F04E1A"/>
<path d="M999 2H1009L999 13H989L999 2Z" fill="#F04E1A"/>
<path d="M1019 2H1029L1019 13H1009L1019 2Z" fill="#F04E1A"/>
<path d="M1039 2H1049L1039 13H1029L1039 2Z" fill="#F04E1A"/>
<path d="M1059 2H1069L1059 13H1049L1059 2Z" fill="#F04E1A"/>
<path d="M1079 2H1089L1079 13H1069L1079 2Z" fill="#F04E1A"/>
<path d="M1099 2H1109L1099 13H1089L1099 2Z" fill="#F04E1A"/>
<path d="M-181 2H-171L-181 13H-191L-181 2Z" fill="#F04E1A"/>
<path d="M-161 2H-151L-161 13H-171L-161 2Z" fill="#F04E1A"/>
<path d="M-141 2H-131L-141 13H-151L-141 2Z" fill="#F04E1A"/>
<path d="M-121 2H-111L-121 13H-131L-121 2Z" fill="#F04E1A"/>
<path d="M-101 2H-91L-101 13H-111L-101 2Z" fill="#F04E1A"/>
<path d="M-81 2H-71L-81 13H-91L-81 2Z" fill="#F04E1A"/>
<path d="M-61 2H-51L-61 13H-71L-61 2Z" fill="#F04E1A"/>
<path d="M-41 2H-31L-41 13H-51L-41 2Z" fill="#F04E1A"/>
<path d="M-21 2H-11L-21 13H-31L-21 2Z" fill="#F04E1A"/>
<path d="M-1 2H9L-1 13H-11L-1 2Z" fill="#F04E1A"/>
<path d="M1099 2H1109L1099 13H1089L1099 2Z" fill="#F04E1A"/>
<path d="M1119 2H1129L1119 13H1109L1119 2Z" fill="#F04E1A"/>
<path d="M1139 2H1149L1139 13H1129L1139 2Z" fill="#F04E1A"/>
<path d="M435.222 11H436.916V7.854H439.908V11H441.602V3.3H439.908V6.358H436.916V3.3H435.222V11ZM443.85 11H445.544V3.3H443.85V11ZM451.37 11.143C452.415 11.143 453.46 10.857 454.296 10.373V6.765H450.996V8.041H452.745V9.482C452.36 9.658 451.898 9.757 451.403 9.757C449.929 9.757 449.093 8.778 449.093 7.249V7.227C449.093 5.654 449.907 4.576 451.513 4.576C452.217 4.576 452.888 4.785 453.482 5.225L454.395 4.026C453.57 3.465 452.591 3.146 451.502 3.146C448.917 3.146 447.366 4.818 447.366 7.238V7.26C447.366 9.603 448.917 11.143 451.37 11.143ZM456.294 11H457.988V7.854H460.98V11H462.674V3.3H460.98V6.358H457.988V3.3H456.294V11ZM469.869 11H471.574L474.28 3.3H472.608L470.76 9.031H470.716L468.857 3.3H467.174L469.869 11ZM478.961 11.154C481.238 11.154 482.811 9.603 482.811 7.161V7.139C482.811 4.708 481.238 3.146 478.961 3.146C476.684 3.146 475.111 4.708 475.111 7.139V7.161C475.111 9.603 476.684 11.154 478.961 11.154ZM478.961 9.746C477.652 9.746 476.849 8.756 476.849 7.161V7.139C476.849 5.555 477.652 4.554 478.961 4.554C480.281 4.554 481.084 5.555 481.084 7.139V7.161C481.084 8.756 480.281 9.746 478.961 9.746ZM484.651 11H490.063V9.526H486.345V3.3H484.651V11ZM492.494 11H494.188V4.785H496.619V3.3H490.052V4.785H492.494V11ZM496.691 11H498.363L498.814 9.603H501.927L502.378 11H504.061L501.355 3.3H499.397L496.691 11ZM500.343 4.884H500.398L501.498 8.283H499.243L500.343 4.884ZM508.922 11.143C509.967 11.143 511.012 10.857 511.848 10.373V6.765H508.548V8.041H510.297V9.482C509.912 9.658 509.45 9.757 508.955 9.757C507.481 9.757 506.645 8.778 506.645 7.249V7.227C506.645 5.654 507.459 4.576 509.065 4.576C509.769 4.576 510.44 4.785 511.034 5.225L511.947 4.026C511.122 3.465 510.143 3.146 509.054 3.146C506.469 3.146 504.918 4.818 504.918 7.238V7.26C504.918 9.603 506.469 11.143 508.922 11.143ZM513.846 11H519.368V9.548H515.54V7.744H518.851V6.446H515.54V4.752H519.302V3.3H513.846V11ZM521.602 8.569H522.416L522.581 7.249C522.812 5.566 522.933 4.466 522.933 3.3H521.096C521.096 4.477 521.217 5.577 521.437 7.249L521.602 8.569ZM521.118 11H522.9V9.295H521.118V11Z" fill="#BF2E00"/>
<path d="M435.222 11H429.222V17H435.222V11ZM436.916 11V17H442.916V11H436.916ZM436.916 7.854V1.854H430.916V7.854H436.916ZM439.908 7.854H445.908V1.854H439.908V7.854ZM439.908 11H433.908V17H439.908V11ZM441.602 11V17H447.602V11H441.602ZM441.602 3.3H447.602V-2.7H441.602V3.3ZM439.908 3.3V-2.7H433.908V3.3H439.908ZM439.908 6.358V12.358H445.908V6.358H439.908ZM436.916 6.358H430.916V12.358H436.916V6.358ZM436.916 3.3H442.916V-2.7H436.916V3.3ZM435.222 3.3V-2.7H429.222V3.3H435.222ZM435.222 17H436.916V5H435.222V17ZM442.916 11V7.854H430.916V11H442.916ZM436.916 13.854H439.908V1.854H436.916V13.854ZM433.908 7.854V11H445.908V7.854H433.908ZM439.908 17H441.602V5H439.908V17ZM447.602 11V3.3H435.602V11H447.602ZM441.602 -2.7H439.908V9.3H441.602V-2.7ZM433.908 3.3V6.358H445.908V3.3H433.908ZM439.908 0.358H436.916V12.358H439.908V0.358ZM442.916 6.358V3.3H430.916V6.358H442.916ZM436.916 -2.7H435.222V9.3H436.916V-2.7ZM429.222 3.3V11H441.222V3.3H429.222ZM443.85 11H437.85V17H443.85V11ZM445.544 11V17H451.544V11H445.544ZM445.544 3.3H451.544V-2.7H445.544V3.3ZM443.85 3.3V-2.7H437.85V3.3H443.85ZM443.85 17H445.544V5H443.85V17ZM451.544 11V3.3H439.544V11H451.544ZM445.544 -2.7H443.85V9.3H445.544V-2.7ZM437.85 3.3V11H449.85V3.3H437.85ZM454.296 10.373L457.302 15.5656L460.296 13.8323V10.373H454.296ZM454.296 6.765H460.296V0.765H454.296V6.765ZM450.996 6.765V0.765H444.996V6.765H450.996ZM450.996 8.041H444.996V14.041H450.996V8.041ZM452.745 8.041H458.745V2.041H452.745V8.041ZM452.745 9.482L455.239 14.9388L458.745 13.3364V9.482H452.745ZM453.482 5.225L449.91 10.0463L454.668 13.5707L458.255 8.85994L453.482 5.225ZM454.395 4.026L459.168 7.66094L463.004 2.62425L457.769 -0.935557L454.395 4.026ZM451.37 17.143C453.45 17.143 455.535 16.5887 457.302 15.5656L451.29 5.18044C451.327 5.15893 451.351 5.14842 451.361 5.14441C451.371 5.14031 451.373 5.13998 451.369 5.14103C451.365 5.14204 451.361 5.14289 451.358 5.14331C451.355 5.14373 451.358 5.143 451.37 5.143V17.143ZM460.296 10.373V6.765H448.296V10.373H460.296ZM454.296 0.765H450.996V12.765H454.296V0.765ZM444.996 6.765V8.041H456.996V6.765H444.996ZM450.996 14.041H452.745V2.041H450.996V14.041ZM446.745 8.041V9.482H458.745V8.041H446.745ZM450.25 4.02515C450.721 3.81009 451.12 3.757 451.403 3.757V15.757C452.675 15.757 453.999 15.5059 455.239 14.9388L450.25 4.02515ZM451.403 3.757C452.059 3.757 453.216 4.02173 454.15 5.05715C455.008 6.00879 455.093 6.96362 455.093 7.249H443.093C443.093 9.06338 443.595 11.2722 445.24 13.0956C446.961 15.0028 449.273 15.757 451.403 15.757V3.757ZM455.093 7.249V7.227H443.093V7.249H455.093ZM455.093 7.227C455.093 7.40653 455.048 8.30387 454.233 9.24273C453.309 10.3088 452.138 10.576 451.513 10.576V-1.424C449.282 -1.424 446.901 -0.617832 445.168 1.38051C443.545 3.25163 443.093 5.47447 443.093 7.227H455.093ZM451.513 10.576C451.265 10.576 450.981 10.5383 450.684 10.4417C450.385 10.3446 450.123 10.2042 449.91 10.0463L457.053 0.403654C455.395 -0.824429 453.464 -1.424 451.513 -1.424V10.576ZM458.255 8.85994L459.168 7.66094L449.621 0.39106L448.708 1.59006L458.255 8.85994ZM457.769 -0.935557C455.96 -2.16514 453.808 -2.854 451.502 -2.854V9.146C451.455 9.146 451.373 9.13823 451.272 9.10712C451.173 9.07632 451.087 9.03246 451.021 8.98756L457.769 -0.935557ZM451.502 -2.854C448.882 -2.854 446.213 -1.97641 444.193 0.0704831C442.19 2.10094 441.366 4.73466 441.366 7.238H453.366C453.366 7.32134 453.317 7.90906 452.735 8.49852C452.138 9.1044 451.537 9.146 451.502 9.146V-2.854ZM441.366 7.238V7.26H453.366V7.238H441.366ZM441.366 7.26C441.366 9.78913 442.233 12.3978 444.257 14.3735C446.268 16.3371 448.874 17.143 451.37 17.143V5.143C451.412 5.143 452.016 5.17886 452.639 5.78678C453.274 6.40674 453.366 7.07387 453.366 7.26H441.366ZM456.294 11H450.294V17H456.294V11ZM457.988 11V17H463.988V11H457.988ZM457.988 7.854V1.854H451.988V7.854H457.988ZM460.98 7.854H466.98V1.854H460.98V7.854ZM460.98 11H454.98V17H460.98V11ZM462.674 11V17H468.674V11H462.674ZM462.674 3.3H468.674V-2.7H462.674V3.3ZM460.98 3.3V-2.7H454.98V3.3H460.98ZM460.98 6.358V12.358H466.98V6.358H460.98ZM457.988 6.358H451.988V12.358H457.988V6.358ZM457.988 3.3H463.988V-2.7H457.988V3.3ZM456.294 3.3V-2.7H450.294V3.3H456.294ZM456.294 17H457.988V5H456.294V17ZM463.988 11V7.854H451.988V11H463.988ZM457.988 13.854H460.98V1.854H457.988V13.854ZM454.98 7.854V11H466.98V7.854H454.98ZM460.98 17H462.674V5H460.98V17ZM468.674 11V3.3H456.674V11H468.674ZM462.674 -2.7H460.98V9.3H462.674V-2.7ZM454.98 3.3V6.358H466.98V3.3H454.98ZM460.98 0.358H457.988V12.358H460.98V0.358ZM463.988 6.358V3.3H451.988V6.358H463.988ZM457.988 -2.7H456.294V9.3H457.988V-2.7ZM450.294 3.3V11H462.294V3.3H450.294ZM469.869 11L464.206 12.9821L465.612 17H469.869V11ZM471.574 11V17H475.825L477.234 12.9893L471.574 11ZM474.28 3.3L479.94 5.2893L482.748 -2.7H474.28V3.3ZM472.608 3.3V-2.7H468.238L466.897 1.45862L472.608 3.3ZM470.76 9.031V15.031H475.129L476.47 10.8724L470.76 9.031ZM470.716 9.031L465.009 10.8823L466.354 15.031H470.716V9.031ZM468.857 3.3L474.564 1.4487L473.218 -2.7H468.857V3.3ZM467.174 3.3V-2.7H458.717L461.511 5.2821L467.174 3.3ZM469.869 17H471.574V5H469.869V17ZM477.234 12.9893L479.94 5.2893L468.619 1.31069L465.913 9.01069L477.234 12.9893ZM474.28 -2.7H472.608V9.3H474.28V-2.7ZM466.897 1.45862L465.049 7.18962L476.47 10.8724L478.318 5.14138L466.897 1.45862ZM470.76 3.031H470.716V15.031H470.76V3.031ZM476.423 7.1797L474.564 1.4487L463.15 5.1513L465.009 10.8823L476.423 7.1797ZM468.857 -2.7H467.174V9.3H468.857V-2.7ZM461.511 5.2821L464.206 12.9821L475.532 9.0179L472.837 1.3179L461.511 5.2821ZM478.961 17.154C481.497 17.154 484.079 16.2615 486.029 14.2688C487.972 12.2827 488.811 9.69211 488.811 7.161H476.811C476.811 7.07189 476.863 6.47784 477.45 5.87767C478.044 5.27096 478.701 5.154 478.961 5.154V17.154ZM488.811 7.161V7.139H476.811V7.161H488.811ZM488.811 7.139C488.811 4.60763 487.968 2.02199 486.033 0.0395509C484.09 -1.95089 481.51 -2.854 478.961 -2.854V9.146C478.689 9.146 478.034 9.02389 477.446 8.4222C476.867 7.82851 476.811 7.23938 476.811 7.139H488.811ZM478.961 -2.854C476.412 -2.854 473.832 -1.95089 471.888 0.0395507C469.953 2.02199 469.111 4.60763 469.111 7.139H481.111C481.111 7.23938 481.055 7.82851 480.475 8.4222C479.888 9.02389 479.233 9.146 478.961 9.146V-2.854ZM469.111 7.139V7.161H481.111V7.139H469.111ZM469.111 7.161C469.111 9.69211 469.95 12.2827 471.893 14.2688C473.842 16.2615 476.424 17.154 478.961 17.154V5.154C479.22 5.154 479.877 5.27096 480.471 5.87767C481.058 6.47784 481.111 7.07189 481.111 7.161H469.111ZM478.961 3.746C479.954 3.746 481.194 4.19321 482.064 5.25999C482.817 6.18309 482.849 7.01982 482.849 7.161H470.849C470.849 8.89718 471.282 11.0264 472.764 12.8433C474.362 14.8038 476.659 15.746 478.961 15.746V3.746ZM482.849 7.161V7.139H470.849V7.161H482.849ZM482.849 7.139C482.849 7.29421 482.813 8.12311 482.07 9.03713C481.211 10.0937 479.975 10.554 478.961 10.554V-1.446C476.637 -1.446 474.346 -0.485173 472.758 1.46787C471.286 3.27839 470.849 5.39979 470.849 7.139H482.849ZM478.961 10.554C477.968 10.554 476.733 10.1057 475.868 9.04571C475.12 8.12822 475.084 7.29386 475.084 7.139H487.084C487.084 5.40014 486.646 3.27328 485.166 1.45929C483.57 -0.49721 481.274 -1.446 478.961 -1.446V10.554ZM475.084 7.139V7.161H487.084V7.139H475.084ZM475.084 7.161C475.084 7.0202 475.116 6.17797 475.874 5.25142C476.75 4.18133 477.989 3.746 478.961 3.746V15.746C481.252 15.746 483.553 14.8157 485.16 12.8518C486.65 11.0315 487.084 8.8968 487.084 7.161H475.084ZM484.651 11H478.651V17H484.651V11ZM490.063 11V17H496.063V11H490.063ZM490.063 9.526H496.063V3.526H490.063V9.526ZM486.345 9.526H480.345V15.526H486.345V9.526ZM486.345 3.3H492.345V-2.7H486.345V3.3ZM484.651 3.3V-2.7H478.651V3.3H484.651ZM484.651 17H490.063V5H484.651V17ZM496.063 11V9.526H484.063V11H496.063ZM490.063 3.526H486.345V15.526H490.063V3.526ZM492.345 9.526V3.3H480.345V9.526H492.345ZM486.345 -2.7H484.651V9.3H486.345V-2.7ZM478.651 3.3V11H490.651V3.3H478.651ZM492.494 11H486.494V17H492.494V11ZM494.188 11V17H500.188V11H494.188ZM494.188 4.785V-1.215H488.188V4.785H494.188ZM496.619 4.785V10.785H502.619V4.785H496.619ZM496.619 3.3H502.619V-2.7H496.619V3.3ZM490.052 3.3V-2.7H484.052V3.3H490.052ZM490.052 4.785H484.052V10.785H490.052V4.785ZM492.494 4.785H498.494V-1.215H492.494V4.785ZM492.494 17H494.188V5H492.494V17ZM500.188 11V4.785H488.188V11H500.188ZM494.188 10.785H496.619V-1.215H494.188V10.785ZM502.619 4.785V3.3H490.619V4.785H502.619ZM496.619 -2.7H490.052V9.3H496.619V-2.7ZM484.052 3.3V4.785H496.052V3.3H484.052ZM490.052 10.785H492.494V-1.215H490.052V10.785ZM486.494 4.785V11H498.494V4.785H486.494ZM496.691 11L491.03 9.0107L488.223 17H496.691V11ZM498.363 11V17H502.731L504.073 12.8433L498.363 11ZM498.814 9.603V3.603H494.446L493.104 7.75967L498.814 9.603ZM501.927 9.603L507.637 7.75967L506.295 3.603H501.927V9.603ZM502.378 11L496.668 12.8433L498.01 17H502.378V11ZM504.061 11V17H512.529L509.722 9.01069L504.061 11ZM501.355 3.3L507.016 1.31069L505.606 -2.7H501.355V3.3ZM499.397 3.3V-2.7H495.146L493.736 1.31069L499.397 3.3ZM500.343 4.884V-1.116H495.978L494.634 3.03659L500.343 4.884ZM500.398 4.884L506.106 3.03659L504.763 -1.116H500.398V4.884ZM501.498 8.283V14.283H509.746L507.206 6.43559L501.498 8.283ZM499.243 8.283L493.534 6.43559L490.995 14.283H499.243V8.283ZM496.691 17H498.363V5H496.691V17ZM504.073 12.8433L504.524 11.4463L493.104 7.75967L492.653 9.15667L504.073 12.8433ZM498.814 15.603H501.927V3.603H498.814V15.603ZM496.217 11.4463L496.668 12.8433L508.088 9.15667L507.637 7.75967L496.217 11.4463ZM502.378 17H504.061V5H502.378V17ZM509.722 9.01069L507.016 1.31069L495.694 5.2893L498.4 12.9893L509.722 9.01069ZM501.355 -2.7H499.397V9.3H501.355V-2.7ZM493.736 1.31069L491.03 9.0107L502.352 12.9893L505.058 5.2893L493.736 1.31069ZM500.343 10.884H500.398V-1.116H500.343V10.884ZM494.689 6.73141L495.789 10.1304L507.206 6.43559L506.106 3.03659L494.689 6.73141ZM501.498 2.283H499.243V14.283H501.498V2.283ZM504.951 10.1304L506.051 6.73141L494.634 3.03659L493.534 6.43559L504.951 10.1304ZM511.848 10.373L514.854 15.5656L517.848 13.8323V10.373H511.848ZM511.848 6.765H517.848V0.765H511.848V6.765ZM508.548 6.765V0.765H502.548V6.765H508.548ZM508.548 8.041H502.548V14.041H508.548V8.041ZM510.297 8.041H516.297V2.041H510.297V8.041ZM510.297 9.482L512.792 14.9388L516.297 13.3364V9.482H510.297ZM511.034 5.225L507.463 10.0463L512.221 13.5707L515.808 8.85994L511.034 5.225ZM511.947 4.026L516.721 7.66094L520.556 2.62425L515.321 -0.935557L511.947 4.026ZM508.922 17.143C511.002 17.143 513.087 16.5887 514.854 15.5656L508.842 5.18044C508.879 5.15893 508.903 5.14842 508.913 5.14441C508.923 5.14031 508.925 5.13998 508.921 5.14103C508.918 5.14204 508.913 5.14289 508.91 5.14331C508.907 5.14373 508.91 5.143 508.922 5.143V17.143ZM517.848 10.373V6.765H505.848V10.373H517.848ZM511.848 0.765H508.548V12.765H511.848V0.765ZM502.548 6.765V8.041H514.548V6.765H502.548ZM508.548 14.041H510.297V2.041H508.548V14.041ZM504.297 8.041V9.482H516.297V8.041H504.297ZM507.802 4.02515C508.273 3.81009 508.673 3.757 508.955 3.757V15.757C510.227 15.757 511.551 15.5059 512.792 14.9388L507.802 4.02515ZM508.955 3.757C509.611 3.757 510.768 4.02173 511.702 5.05715C512.561 6.00879 512.645 6.96362 512.645 7.249H500.645C500.645 9.06338 501.147 11.2722 502.792 13.0956C504.513 15.0028 506.825 15.757 508.955 15.757V3.757ZM512.645 7.249V7.227H500.645V7.249H512.645ZM512.645 7.227C512.645 7.40653 512.6 8.30387 511.786 9.24273C510.861 10.3088 509.69 10.576 509.065 10.576V-1.424C506.834 -1.424 504.453 -0.617832 502.72 1.38051C501.097 3.25163 500.645 5.47447 500.645 7.227H512.645ZM509.065 10.576C508.818 10.576 508.533 10.5383 508.236 10.4417C507.937 10.3446 507.676 10.2042 507.463 10.0463L514.605 0.403654C512.948 -0.824429 511.017 -1.424 509.065 -1.424V10.576ZM515.808 8.85994L516.721 7.66094L507.173 0.39106L506.26 1.59006L515.808 8.85994ZM515.321 -0.935557C513.513 -2.16514 511.361 -2.854 509.054 -2.854V9.146C509.007 9.146 508.925 9.13823 508.825 9.10712C508.725 9.07632 508.639 9.03246 508.573 8.98756L515.321 -0.935557ZM509.054 -2.854C506.434 -2.854 503.765 -1.97641 501.746 0.0704831C499.742 2.10094 498.918 4.73466 498.918 7.238H510.918C510.918 7.32134 510.869 7.90906 510.288 8.49852C509.69 9.1044 509.089 9.146 509.054 9.146V-2.854ZM498.918 7.238V7.26H510.918V7.238H498.918ZM498.918 7.26C498.918 9.78913 499.785 12.3978 501.809 14.3735C503.82 16.3371 506.427 17.143 508.922 17.143V5.143C508.964 5.143 509.569 5.17886 510.192 5.78678C510.827 6.40674 510.918 7.07387 510.918 7.26H498.918ZM513.846 11H507.846V17H513.846V11ZM519.368 11V17H525.368V11H519.368ZM519.368 9.548H525.368V3.548H519.368V9.548ZM515.54 9.548H509.54V15.548H515.54V9.548ZM515.54 7.744V1.744H509.54V7.744H515.54ZM518.851 7.744V13.744H524.851V7.744H518.851ZM518.851 6.446H524.851V0.446H518.851V6.446ZM515.54 6.446H509.54V12.446H515.54V6.446ZM515.54 4.752V-1.248H509.54V4.752H515.54ZM519.302 4.752V10.752H525.302V4.752H519.302ZM519.302 3.3H525.302V-2.7H519.302V3.3ZM513.846 3.3V-2.7H507.846V3.3H513.846ZM513.846 17H519.368V5H513.846V17ZM525.368 11V9.548H513.368V11H525.368ZM519.368 3.548H515.54V15.548H519.368V3.548ZM521.54 9.548V7.744H509.54V9.548H521.54ZM515.54 13.744H518.851V1.744H515.54V13.744ZM524.851 7.744V6.446H512.851V7.744H524.851ZM518.851 0.446H515.54V12.446H518.851V0.446ZM521.54 6.446V4.752H509.54V6.446H521.54ZM515.54 10.752H519.302V-1.248H515.54V10.752ZM525.302 4.752V3.3H513.302V4.752H525.302ZM519.302 -2.7H513.846V9.3H519.302V-2.7ZM507.846 3.3V11H519.846V3.3H507.846ZM521.602 8.569L515.648 9.31321L516.305 14.569H521.602V8.569ZM522.416 8.569V14.569H527.712L528.369 9.31321L522.416 8.569ZM522.581 7.249L516.636 6.43312L516.631 6.46893L516.627 6.50479L522.581 7.249ZM522.933 3.3H528.933V-2.7H522.933V3.3ZM521.096 3.3V-2.7H515.096V3.3H521.096ZM521.437 7.249L527.39 6.50479L527.388 6.48552L527.385 6.46627L521.437 7.249ZM521.118 11H515.118V17H521.118V11ZM522.9 11V17H528.9V11H522.9ZM522.9 9.295H528.9V3.295H522.9V9.295ZM521.118 9.295V3.295H515.118V9.295H521.118ZM521.602 14.569H522.416V2.569H521.602V14.569ZM528.369 9.31321L528.534 7.99321L516.627 6.50479L516.462 7.82479L528.369 9.31321ZM528.525 8.06488C528.76 6.34869 528.933 4.90373 528.933 3.3H516.933C516.933 4.02827 516.863 4.78331 516.636 6.43312L528.525 8.06488ZM522.933 -2.7H521.096V9.3H522.933V-2.7ZM515.096 3.3C515.096 4.90501 515.266 6.34604 515.488 8.03173L527.385 6.46627C527.167 4.80796 527.096 4.04899 527.096 3.3H515.096ZM515.483 7.99321L515.648 9.31321L527.555 7.82479L527.39 6.50479L515.483 7.99321ZM521.118 17H522.9V5H521.118V17ZM528.9 11V9.295H516.9V11H528.9ZM522.9 3.295H521.118V15.295H522.9V3.295ZM515.118 9.295V11H527.118V9.295H515.118Z" fill="white"/>
<path d="M255.222 11H256.916V7.854H259.908V11H261.602V3.3H259.908V6.358H256.916V3.3H255.222V11ZM263.85 11H265.544V3.3H263.85V11ZM271.37 11.143C272.415 11.143 273.46 10.857 274.296 10.373V6.765H270.996V8.041H272.745V9.482C272.36 9.658 271.898 9.757 271.403 9.757C269.929 9.757 269.093 8.778 269.093 7.249V7.227C269.093 5.654 269.907 4.576 271.513 4.576C272.217 4.576 272.888 4.785 273.482 5.225L274.395 4.026C273.57 3.465 272.591 3.146 271.502 3.146C268.917 3.146 267.366 4.818 267.366 7.238V7.26C267.366 9.603 268.917 11.143 271.37 11.143ZM276.294 11H277.988V7.854H280.98V11H282.674V3.3H280.98V6.358H277.988V3.3H276.294V11ZM289.869 11H291.574L294.28 3.3H292.608L290.76 9.031H290.716L288.857 3.3H287.174L289.869 11ZM298.961 11.154C301.238 11.154 302.811 9.603 302.811 7.161V7.139C302.811 4.708 301.238 3.146 298.961 3.146C296.684 3.146 295.111 4.708 295.111 7.139V7.161C295.111 9.603 296.684 11.154 298.961 11.154ZM298.961 9.746C297.652 9.746 296.849 8.756 296.849 7.161V7.139C296.849 5.555 297.652 4.554 298.961 4.554C300.281 4.554 301.084 5.555 301.084 7.139V7.161C301.084 8.756 300.281 9.746 298.961 9.746ZM304.651 11H310.063V9.526H306.345V3.3H304.651V11ZM312.494 11H314.188V4.785H316.619V3.3H310.052V4.785H312.494V11ZM316.691 11H318.363L318.814 9.603H321.927L322.378 11H324.061L321.355 3.3H319.397L316.691 11ZM320.343 4.884H320.398L321.498 8.283H319.243L320.343 4.884ZM328.922 11.143C329.967 11.143 331.012 10.857 331.848 10.373V6.765H328.548V8.041H330.297V9.482C329.912 9.658 329.45 9.757 328.955 9.757C327.481 9.757 326.645 8.778 326.645 7.249V7.227C326.645 5.654 327.459 4.576 329.065 4.576C329.769 4.576 330.44 4.785 331.034 5.225L331.947 4.026C331.122 3.465 330.143 3.146 329.054 3.146C326.469 3.146 324.918 4.818 324.918 7.238V7.26C324.918 9.603 326.469 11.143 328.922 11.143ZM333.846 11H339.368V9.548H335.54V7.744H338.851V6.446H335.54V4.752H339.302V3.3H333.846V11ZM341.602 8.569H342.416L342.581 7.249C342.812 5.566 342.933 4.466 342.933 3.3H341.096C341.096 4.477 341.217 5.577 341.437 7.249L341.602 8.569ZM341.118 11H342.9V9.295H341.118V11Z" fill="#BF2E00"/>
<path d="M255.222 11H249.222V17H255.222V11ZM256.916 11V17H262.916V11H256.916ZM256.916 7.854V1.854H250.916V7.854H256.916ZM259.908 7.854H265.908V1.854H259.908V7.854ZM259.908 11H253.908V17H259.908V11ZM261.602 11V17H267.602V11H261.602ZM261.602 3.3H267.602V-2.7H261.602V3.3ZM259.908 3.3V-2.7H253.908V3.3H259.908ZM259.908 6.358V12.358H265.908V6.358H259.908ZM256.916 6.358H250.916V12.358H256.916V6.358ZM256.916 3.3H262.916V-2.7H256.916V3.3ZM255.222 3.3V-2.7H249.222V3.3H255.222ZM255.222 17H256.916V5H255.222V17ZM262.916 11V7.854H250.916V11H262.916ZM256.916 13.854H259.908V1.854H256.916V13.854ZM253.908 7.854V11H265.908V7.854H253.908ZM259.908 17H261.602V5H259.908V17ZM267.602 11V3.3H255.602V11H267.602ZM261.602 -2.7H259.908V9.3H261.602V-2.7ZM253.908 3.3V6.358H265.908V3.3H253.908ZM259.908 0.358H256.916V12.358H259.908V0.358ZM262.916 6.358V3.3H250.916V6.358H262.916ZM256.916 -2.7H255.222V9.3H256.916V-2.7ZM249.222 3.3V11H261.222V3.3H249.222ZM263.85 11H257.85V17H263.85V11ZM265.544 11V17H271.544V11H265.544ZM265.544 3.3H271.544V-2.7H265.544V3.3ZM263.85 3.3V-2.7H257.85V3.3H263.85ZM263.85 17H265.544V5H263.85V17ZM271.544 11V3.3H259.544V11H271.544ZM265.544 -2.7H263.85V9.3H265.544V-2.7ZM257.85 3.3V11H269.85V3.3H257.85ZM274.296 10.373L277.302 15.5656L280.296 13.8323V10.373H274.296ZM274.296 6.765H280.296V0.765H274.296V6.765ZM270.996 6.765V0.765H264.996V6.765H270.996ZM270.996 8.041H264.996V14.041H270.996V8.041ZM272.745 8.041H278.745V2.041H272.745V8.041ZM272.745 9.482L275.239 14.9388L278.745 13.3364V9.482H272.745ZM273.482 5.225L269.91 10.0463L274.668 13.5707L278.255 8.85994L273.482 5.225ZM274.395 4.026L279.168 7.66094L283.004 2.62425L277.769 -0.935557L274.395 4.026ZM271.37 17.143C273.45 17.143 275.535 16.5887 277.302 15.5656L271.29 5.18044C271.327 5.15893 271.351 5.14842 271.361 5.14441C271.371 5.14031 271.373 5.13998 271.369 5.14103C271.365 5.14204 271.361 5.14289 271.358 5.14331C271.355 5.14373 271.358 5.143 271.37 5.143V17.143ZM280.296 10.373V6.765H268.296V10.373H280.296ZM274.296 0.765H270.996V12.765H274.296V0.765ZM264.996 6.765V8.041H276.996V6.765H264.996ZM270.996 14.041H272.745V2.041H270.996V14.041ZM266.745 8.041V9.482H278.745V8.041H266.745ZM270.25 4.02515C270.721 3.81009 271.12 3.757 271.403 3.757V15.757C272.675 15.757 273.999 15.5059 275.239 14.9388L270.25 4.02515ZM271.403 3.757C272.059 3.757 273.216 4.02173 274.15 5.05715C275.008 6.00879 275.093 6.96362 275.093 7.249H263.093C263.093 9.06338 263.595 11.2722 265.24 13.0956C266.961 15.0028 269.273 15.757 271.403 15.757V3.757ZM275.093 7.249V7.227H263.093V7.249H275.093ZM275.093 7.227C275.093 7.40653 275.048 8.30387 274.233 9.24273C273.309 10.3088 272.138 10.576 271.513 10.576V-1.424C269.282 -1.424 266.901 -0.617832 265.168 1.38051C263.545 3.25163 263.093 5.47447 263.093 7.227H275.093ZM271.513 10.576C271.265 10.576 270.981 10.5383 270.684 10.4417C270.385 10.3446 270.123 10.2042 269.91 10.0463L277.053 0.403654C275.395 -0.824429 273.464 -1.424 271.513 -1.424V10.576ZM278.255 8.85994L279.168 7.66094L269.621 0.39106L268.708 1.59006L278.255 8.85994ZM277.769 -0.935557C275.96 -2.16514 273.808 -2.854 271.502 -2.854V9.146C271.455 9.146 271.373 9.13823 271.272 9.10712C271.173 9.07632 271.087 9.03246 271.021 8.98756L277.769 -0.935557ZM271.502 -2.854C268.882 -2.854 266.213 -1.97641 264.193 0.0704831C262.19 2.10094 261.366 4.73466 261.366 7.238H273.366C273.366 7.32134 273.317 7.90906 272.735 8.49852C272.138 9.1044 271.537 9.146 271.502 9.146V-2.854ZM261.366 7.238V7.26H273.366V7.238H261.366ZM261.366 7.26C261.366 9.78913 262.233 12.3978 264.257 14.3735C266.268 16.3371 268.874 17.143 271.37 17.143V5.143C271.412 5.143 272.016 5.17886 272.639 5.78678C273.274 6.40674 273.366 7.07387 273.366 7.26H261.366ZM276.294 11H270.294V17H276.294V11ZM277.988 11V17H283.988V11H277.988ZM277.988 7.854V1.854H271.988V7.854H277.988ZM280.98 7.854H286.98V1.854H280.98V7.854ZM280.98 11H274.98V17H280.98V11ZM282.674 11V17H288.674V11H282.674ZM282.674 3.3H288.674V-2.7H282.674V3.3ZM280.98 3.3V-2.7H274.98V3.3H280.98ZM280.98 6.358V12.358H286.98V6.358H280.98ZM277.988 6.358H271.988V12.358H277.988V6.358ZM277.988 3.3H283.988V-2.7H277.988V3.3ZM276.294 3.3V-2.7H270.294V3.3H276.294ZM276.294 17H277.988V5H276.294V17ZM283.988 11V7.854H271.988V11H283.988ZM277.988 13.854H280.98V1.854H277.988V13.854ZM274.98 7.854V11H286.98V7.854H274.98ZM280.98 17H282.674V5H280.98V17ZM288.674 11V3.3H276.674V11H288.674ZM282.674 -2.7H280.98V9.3H282.674V-2.7ZM274.98 3.3V6.358H286.98V3.3H274.98ZM280.98 0.358H277.988V12.358H280.98V0.358ZM283.988 6.358V3.3H271.988V6.358H283.988ZM277.988 -2.7H276.294V9.3H277.988V-2.7ZM270.294 3.3V11H282.294V3.3H270.294ZM289.869 11L284.206 12.9821L285.612 17H289.869V11ZM291.574 11V17H295.825L297.234 12.9893L291.574 11ZM294.28 3.3L299.94 5.2893L302.748 -2.7H294.28V3.3ZM292.608 3.3V-2.7H288.238L286.897 1.45862L292.608 3.3ZM290.76 9.031V15.031H295.129L296.47 10.8724L290.76 9.031ZM290.716 9.031L285.009 10.8823L286.354 15.031H290.716V9.031ZM288.857 3.3L294.564 1.4487L293.218 -2.7H288.857V3.3ZM287.174 3.3V-2.7H278.717L281.511 5.2821L287.174 3.3ZM289.869 17H291.574V5H289.869V17ZM297.234 12.9893L299.94 5.2893L288.619 1.31069L285.913 9.01069L297.234 12.9893ZM294.28 -2.7H292.608V9.3H294.28V-2.7ZM286.897 1.45862L285.049 7.18962L296.47 10.8724L298.318 5.14138L286.897 1.45862ZM290.76 3.031H290.716V15.031H290.76V3.031ZM296.423 7.1797L294.564 1.4487L283.15 5.1513L285.009 10.8823L296.423 7.1797ZM288.857 -2.7H287.174V9.3H288.857V-2.7ZM281.511 5.2821L284.206 12.9821L295.532 9.0179L292.837 1.3179L281.511 5.2821ZM298.961 17.154C301.497 17.154 304.079 16.2615 306.029 14.2688C307.972 12.2827 308.811 9.69211 308.811 7.161H296.811C296.811 7.07189 296.863 6.47784 297.45 5.87767C298.044 5.27096 298.701 5.154 298.961 5.154V17.154ZM308.811 7.161V7.139H296.811V7.161H308.811ZM308.811 7.139C308.811 4.60763 307.968 2.02199 306.033 0.0395509C304.09 -1.95089 301.51 -2.854 298.961 -2.854V9.146C298.689 9.146 298.034 9.02389 297.446 8.4222C296.867 7.82851 296.811 7.23938 296.811 7.139H308.811ZM298.961 -2.854C296.412 -2.854 293.832 -1.95089 291.888 0.0395507C289.953 2.02199 289.111 4.60763 289.111 7.139H301.111C301.111 7.23938 301.055 7.82851 300.475 8.4222C299.888 9.02389 299.233 9.146 298.961 9.146V-2.854ZM289.111 7.139V7.161H301.111V7.139H289.111ZM289.111 7.161C289.111 9.69211 289.95 12.2827 291.893 14.2688C293.842 16.2615 296.424 17.154 298.961 17.154V5.154C299.22 5.154 299.877 5.27096 300.471 5.87767C301.058 6.47784 301.111 7.07189 301.111 7.161H289.111ZM298.961 3.746C299.954 3.746 301.194 4.19321 302.064 5.25999C302.817 6.18309 302.849 7.01982 302.849 7.161H290.849C290.849 8.89718 291.282 11.0264 292.764 12.8433C294.362 14.8038 296.659 15.746 298.961 15.746V3.746ZM302.849 7.161V7.139H290.849V7.161H302.849ZM302.849 7.139C302.849 7.29421 302.813 8.12311 302.07 9.03713C301.211 10.0937 299.975 10.554 298.961 10.554V-1.446C296.637 -1.446 294.346 -0.485173 292.758 1.46787C291.286 3.27839 290.849 5.39979 290.849 7.139H302.849ZM298.961 10.554C297.968 10.554 296.733 10.1057 295.868 9.04571C295.12 8.12822 295.084 7.29386 295.084 7.139H307.084C307.084 5.40014 306.646 3.27328 305.166 1.45929C303.57 -0.49721 301.274 -1.446 298.961 -1.446V10.554ZM295.084 7.139V7.161H307.084V7.139H295.084ZM295.084 7.161C295.084 7.0202 295.116 6.17797 295.874 5.25142C296.75 4.18133 297.989 3.746 298.961 3.746V15.746C301.252 15.746 303.553 14.8157 305.16 12.8518C306.65 11.0315 307.084 8.8968 307.084 7.161H295.084ZM304.651 11H298.651V17H304.651V11ZM310.063 11V17H316.063V11H310.063ZM310.063 9.526H316.063V3.526H310.063V9.526ZM306.345 9.526H300.345V15.526H306.345V9.526ZM306.345 3.3H312.345V-2.7H306.345V3.3ZM304.651 3.3V-2.7H298.651V3.3H304.651ZM304.651 17H310.063V5H304.651V17ZM316.063 11V9.526H304.063V11H316.063ZM310.063 3.526H306.345V15.526H310.063V3.526ZM312.345 9.526V3.3H300.345V9.526H312.345ZM306.345 -2.7H304.651V9.3H306.345V-2.7ZM298.651 3.3V11H310.651V3.3H298.651ZM312.494 11H306.494V17H312.494V11ZM314.188 11V17H320.188V11H314.188ZM314.188 4.785V-1.215H308.188V4.785H314.188ZM316.619 4.785V10.785H322.619V4.785H316.619ZM316.619 3.3H322.619V-2.7H316.619V3.3ZM310.052 3.3V-2.7H304.052V3.3H310.052ZM310.052 4.785H304.052V10.785H310.052V4.785ZM312.494 4.785H318.494V-1.215H312.494V4.785ZM312.494 17H314.188V5H312.494V17ZM320.188 11V4.785H308.188V11H320.188ZM314.188 10.785H316.619V-1.215H314.188V10.785ZM322.619 4.785V3.3H310.619V4.785H322.619ZM316.619 -2.7H310.052V9.3H316.619V-2.7ZM304.052 3.3V4.785H316.052V3.3H304.052ZM310.052 10.785H312.494V-1.215H310.052V10.785ZM306.494 4.785V11H318.494V4.785H306.494ZM316.691 11L311.03 9.0107L308.223 17H316.691V11ZM318.363 11V17H322.731L324.073 12.8433L318.363 11ZM318.814 9.603V3.603H314.446L313.104 7.75967L318.814 9.603ZM321.927 9.603L327.637 7.75967L326.295 3.603H321.927V9.603ZM322.378 11L316.668 12.8433L318.01 17H322.378V11ZM324.061 11V17H332.529L329.722 9.01069L324.061 11ZM321.355 3.3L327.016 1.31069L325.606 -2.7H321.355V3.3ZM319.397 3.3V-2.7H315.146L313.736 1.31069L319.397 3.3ZM320.343 4.884V-1.116H315.978L314.634 3.03659L320.343 4.884ZM320.398 4.884L326.106 3.03659L324.763 -1.116H320.398V4.884ZM321.498 8.283V14.283H329.746L327.206 6.43559L321.498 8.283ZM319.243 8.283L313.534 6.43559L310.995 14.283H319.243V8.283ZM316.691 17H318.363V5H316.691V17ZM324.073 12.8433L324.524 11.4463L313.104 7.75967L312.653 9.15667L324.073 12.8433ZM318.814 15.603H321.927V3.603H318.814V15.603ZM316.217 11.4463L316.668 12.8433L328.088 9.15667L327.637 7.75967L316.217 11.4463ZM322.378 17H324.061V5H322.378V17ZM329.722 9.01069L327.016 1.31069L315.694 5.2893L318.4 12.9893L329.722 9.01069ZM321.355 -2.7H319.397V9.3H321.355V-2.7ZM313.736 1.31069L311.03 9.0107L322.352 12.9893L325.058 5.2893L313.736 1.31069ZM320.343 10.884H320.398V-1.116H320.343V10.884ZM314.689 6.73141L315.789 10.1304L327.206 6.43559L326.106 3.03659L314.689 6.73141ZM321.498 2.283H319.243V14.283H321.498V2.283ZM324.951 10.1304L326.051 6.73141L314.634 3.03659L313.534 6.43559L324.951 10.1304ZM331.848 10.373L334.854 15.5656L337.848 13.8323V10.373H331.848ZM331.848 6.765H337.848V0.765H331.848V6.765ZM328.548 6.765V0.765H322.548V6.765H328.548ZM328.548 8.041H322.548V14.041H328.548V8.041ZM330.297 8.041H336.297V2.041H330.297V8.041ZM330.297 9.482L332.792 14.9388L336.297 13.3364V9.482H330.297ZM331.034 5.225L327.463 10.0463L332.221 13.5707L335.808 8.85994L331.034 5.225ZM331.947 4.026L336.721 7.66094L340.556 2.62425L335.321 -0.935557L331.947 4.026ZM328.922 17.143C331.002 17.143 333.087 16.5887 334.854 15.5656L328.842 5.18044C328.879 5.15893 328.903 5.14842 328.913 5.14441C328.923 5.14031 328.925 5.13998 328.921 5.14103C328.918 5.14204 328.913 5.14289 328.91 5.14331C328.907 5.14373 328.91 5.143 328.922 5.143V17.143ZM337.848 10.373V6.765H325.848V10.373H337.848ZM331.848 0.765H328.548V12.765H331.848V0.765ZM322.548 6.765V8.041H334.548V6.765H322.548ZM328.548 14.041H330.297V2.041H328.548V14.041ZM324.297 8.041V9.482H336.297V8.041H324.297ZM327.802 4.02515C328.273 3.81009 328.673 3.757 328.955 3.757V15.757C330.227 15.757 331.551 15.5059 332.792 14.9388L327.802 4.02515ZM328.955 3.757C329.611 3.757 330.768 4.02173 331.702 5.05715C332.561 6.00879 332.645 6.96362 332.645 7.249H320.645C320.645 9.06338 321.147 11.2722 322.792 13.0956C324.513 15.0028 326.825 15.757 328.955 15.757V3.757ZM332.645 7.249V7.227H320.645V7.249H332.645ZM332.645 7.227C332.645 7.40653 332.6 8.30387 331.786 9.24273C330.861 10.3088 329.69 10.576 329.065 10.576V-1.424C326.834 -1.424 324.453 -0.617832 322.72 1.38051C321.097 3.25163 320.645 5.47447 320.645 7.227H332.645ZM329.065 10.576C328.818 10.576 328.533 10.5383 328.236 10.4417C327.937 10.3446 327.676 10.2042 327.463 10.0463L334.605 0.403654C332.948 -0.824429 331.017 -1.424 329.065 -1.424V10.576ZM335.808 8.85994L336.721 7.66094L327.173 0.39106L326.26 1.59006L335.808 8.85994ZM335.321 -0.935557C333.513 -2.16514 331.361 -2.854 329.054 -2.854V9.146C329.007 9.146 328.925 9.13823 328.825 9.10712C328.725 9.07632 328.639 9.03246 328.573 8.98756L335.321 -0.935557ZM329.054 -2.854C326.434 -2.854 323.765 -1.97641 321.746 0.0704831C319.742 2.10094 318.918 4.73466 318.918 7.238H330.918C330.918 7.32134 330.869 7.90906 330.288 8.49852C329.69 9.1044 329.089 9.146 329.054 9.146V-2.854ZM318.918 7.238V7.26H330.918V7.238H318.918ZM318.918 7.26C318.918 9.78913 319.785 12.3978 321.809 14.3735C323.82 16.3371 326.427 17.143 328.922 17.143V5.143C328.964 5.143 329.569 5.17886 330.192 5.78678C330.827 6.40674 330.918 7.07387 330.918 7.26H318.918ZM333.846 11H327.846V17H333.846V11ZM339.368 11V17H345.368V11H339.368ZM339.368 9.548H345.368V3.548H339.368V9.548ZM335.54 9.548H329.54V15.548H335.54V9.548ZM335.54 7.744V1.744H329.54V7.744H335.54ZM338.851 7.744V13.744H344.851V7.744H338.851ZM338.851 6.446H344.851V0.446H338.851V6.446ZM335.54 6.446H329.54V12.446H335.54V6.446ZM335.54 4.752V-1.248H329.54V4.752H335.54ZM339.302 4.752V10.752H345.302V4.752H339.302ZM339.302 3.3H345.302V-2.7H339.302V3.3ZM333.846 3.3V-2.7H327.846V3.3H333.846ZM333.846 17H339.368V5H333.846V17ZM345.368 11V9.548H333.368V11H345.368ZM339.368 3.548H335.54V15.548H339.368V3.548ZM341.54 9.548V7.744H329.54V9.548H341.54ZM335.54 13.744H338.851V1.744H335.54V13.744ZM344.851 7.744V6.446H332.851V7.744H344.851ZM338.851 0.446H335.54V12.446H338.851V0.446ZM341.54 6.446V4.752H329.54V6.446H341.54ZM335.54 10.752H339.302V-1.248H335.54V10.752ZM345.302 4.752V3.3H333.302V4.752H345.302ZM339.302 -2.7H333.846V9.3H339.302V-2.7ZM327.846 3.3V11H339.846V3.3H327.846ZM341.602 8.569L335.648 9.31321L336.305 14.569H341.602V8.569ZM342.416 8.569V14.569H347.712L348.369 9.31321L342.416 8.569ZM342.581 7.249L336.636 6.43312L336.631 6.46893L336.627 6.50479L342.581 7.249ZM342.933 3.3H348.933V-2.7H342.933V3.3ZM341.096 3.3V-2.7H335.096V3.3H341.096ZM341.437 7.249L347.39 6.50479L347.388 6.48552L347.385 6.46627L341.437 7.249ZM341.118 11H335.118V17H341.118V11ZM342.9 11V17H348.9V11H342.9ZM342.9 9.295H348.9V3.295H342.9V9.295ZM341.118 9.295V3.295H335.118V9.295H341.118ZM341.602 14.569H342.416V2.569H341.602V14.569ZM348.369 9.31321L348.534 7.99321L336.627 6.50479L336.462 7.82479L348.369 9.31321ZM348.525 8.06488C348.76 6.34869 348.933 4.90373 348.933 3.3H336.933C336.933 4.02827 336.863 4.78331 336.636 6.43312L348.525 8.06488ZM342.933 -2.7H341.096V9.3H342.933V-2.7ZM335.096 3.3C335.096 4.90501 335.266 6.34604 335.488 8.03173L347.385 6.46627C347.167 4.80796 347.096 4.04899 347.096 3.3H335.096ZM335.483 7.99321L335.648 9.31321L347.555 7.82479L347.39 6.50479L335.483 7.99321ZM341.118 17H342.9V5H341.118V17ZM348.9 11V9.295H336.9V11H348.9ZM342.9 3.295H341.118V15.295H342.9V3.295ZM335.118 9.295V11H347.118V9.295H335.118Z" fill="white"/>
<path d="M75.2218 11H76.9158V7.854H79.9078V11H81.6018V3.3H79.9078V6.358H76.9158V3.3H75.2218V11ZM83.8499 11H85.5439V3.3H83.8499V11ZM91.3697 11.143C92.4147 11.143 93.4597 10.857 94.2957 10.373V6.765H90.9957V8.041H92.7447V9.482C92.3597 9.658 91.8977 9.757 91.4027 9.757C89.9287 9.757 89.0927 8.778 89.0927 7.249V7.227C89.0927 5.654 89.9067 4.576 91.5127 4.576C92.2167 4.576 92.8877 4.785 93.4817 5.225L94.3947 4.026C93.5697 3.465 92.5907 3.146 91.5017 3.146C88.9167 3.146 87.3657 4.818 87.3657 7.238V7.26C87.3657 9.603 88.9167 11.143 91.3697 11.143ZM96.2937 11H97.9877V7.854H100.98V11H102.674V3.3H100.98V6.358H97.9877V3.3H96.2937V11ZM109.869 11H111.574L114.28 3.3H112.608L110.76 9.031H110.716L108.857 3.3H107.174L109.869 11ZM118.961 11.154C121.238 11.154 122.811 9.603 122.811 7.161V7.139C122.811 4.708 121.238 3.146 118.961 3.146C116.684 3.146 115.111 4.708 115.111 7.139V7.161C115.111 9.603 116.684 11.154 118.961 11.154ZM118.961 9.746C117.652 9.746 116.849 8.756 116.849 7.161V7.139C116.849 5.555 117.652 4.554 118.961 4.554C120.281 4.554 121.084 5.555 121.084 7.139V7.161C121.084 8.756 120.281 9.746 118.961 9.746ZM124.651 11H130.063V9.526H126.345V3.3H124.651V11ZM132.494 11H134.188V4.785H136.619V3.3H130.052V4.785H132.494V11ZM136.691 11H138.363L138.814 9.603H141.927L142.378 11H144.061L141.355 3.3H139.397L136.691 11ZM140.343 4.884H140.398L141.498 8.283H139.243L140.343 4.884ZM148.922 11.143C149.967 11.143 151.012 10.857 151.848 10.373V6.765H148.548V8.041H150.297V9.482C149.912 9.658 149.45 9.757 148.955 9.757C147.481 9.757 146.645 8.778 146.645 7.249V7.227C146.645 5.654 147.459 4.576 149.065 4.576C149.769 4.576 150.44 4.785 151.034 5.225L151.947 4.026C151.122 3.465 150.143 3.146 149.054 3.146C146.469 3.146 144.918 4.818 144.918 7.238V7.26C144.918 9.603 146.469 11.143 148.922 11.143ZM153.846 11H159.368V9.548H155.54V7.744H158.851V6.446H155.54V4.752H159.302V3.3H153.846V11ZM161.602 8.569H162.416L162.581 7.249C162.812 5.566 162.933 4.466 162.933 3.3H161.096C161.096 4.477 161.217 5.577 161.437 7.249L161.602 8.569ZM161.118 11H162.9V9.295H161.118V11Z" fill="#BF2E00"/>
<path d="M75.2218 11H69.2218V17H75.2218V11ZM76.9158 11V17H82.9158V11H76.9158ZM76.9158 7.854V1.854H70.9158V7.854H76.9158ZM79.9078 7.854H85.9078V1.854H79.9078V7.854ZM79.9078 11H73.9078V17H79.9078V11ZM81.6018 11V17H87.6018V11H81.6018ZM81.6018 3.3H87.6018V-2.7H81.6018V3.3ZM79.9078 3.3V-2.7H73.9078V3.3H79.9078ZM79.9078 6.358V12.358H85.9078V6.358H79.9078ZM76.9158 6.358H70.9158V12.358H76.9158V6.358ZM76.9158 3.3H82.9158V-2.7H76.9158V3.3ZM75.2218 3.3V-2.7H69.2218V3.3H75.2218ZM75.2218 17H76.9158V5H75.2218V17ZM82.9158 11V7.854H70.9158V11H82.9158ZM76.9158 13.854H79.9078V1.854H76.9158V13.854ZM73.9078 7.854V11H85.9078V7.854H73.9078ZM79.9078 17H81.6018V5H79.9078V17ZM87.6018 11V3.3H75.6018V11H87.6018ZM81.6018 -2.7H79.9078V9.3H81.6018V-2.7ZM73.9078 3.3V6.358H85.9078V3.3H73.9078ZM79.9078 0.358H76.9158V12.358H79.9078V0.358ZM82.9158 6.358V3.3H70.9158V6.358H82.9158ZM76.9158 -2.7H75.2218V9.3H76.9158V-2.7ZM69.2218 3.3V11H81.2218V3.3H69.2218ZM83.8499 11H77.8499V17H83.8499V11ZM85.5439 11V17H91.5439V11H85.5439ZM85.5439 3.3H91.5439V-2.7H85.5439V3.3ZM83.8499 3.3V-2.7H77.8499V3.3H83.8499ZM83.8499 17H85.5439V5H83.8499V17ZM91.5439 11V3.3H79.5439V11H91.5439ZM85.5439 -2.7H83.8499V9.3H85.5439V-2.7ZM77.8499 3.3V11H89.8499V3.3H77.8499ZM94.2957 10.373L97.3019 15.5656L100.296 13.8323V10.373H94.2957ZM94.2957 6.765H100.296V0.765H94.2957V6.765ZM90.9957 6.765V0.765H84.9957V6.765H90.9957ZM90.9957 8.041H84.9957V14.041H90.9957V8.041ZM92.7447 8.041H98.7447V2.041H92.7447V8.041ZM92.7447 9.482L95.2393 14.9388L98.7447 13.3364V9.482H92.7447ZM93.4817 5.225L89.9104 10.0463L94.6682 13.5707L98.2553 8.85994L93.4817 5.225ZM94.3947 4.026L99.1683 7.66094L103.004 2.62425L97.7686 -0.935557L94.3947 4.026ZM91.3697 17.143C93.4497 17.143 95.5346 16.5887 97.3019 15.5656L91.2895 5.18044C91.3267 5.15893 91.3507 5.14842 91.3605 5.14442C91.3705 5.14031 91.373 5.13998 91.3691 5.14103C91.3653 5.14204 91.3609 5.14289 91.3577 5.14331C91.3546 5.14373 91.3581 5.143 91.3697 5.143V17.143ZM100.296 10.373V6.765H88.2957V10.373H100.296ZM94.2957 0.765H90.9957V12.765H94.2957V0.765ZM84.9957 6.765V8.041H96.9957V6.765H84.9957ZM90.9957 14.041H92.7447V2.041H90.9957V14.041ZM86.7447 8.041V9.482H98.7447V8.041H86.7447ZM90.2502 4.02515C90.7206 3.81009 91.1203 3.757 91.4027 3.757V15.757C92.6751 15.757 93.9988 15.5059 95.2393 14.9388L90.2502 4.02515ZM91.4027 3.757C92.0586 3.757 93.2157 4.02173 94.1498 5.05715C95.0084 6.00879 95.0927 6.96362 95.0927 7.249H83.0927C83.0927 9.06338 83.595 11.2722 85.2401 13.0956C86.9608 15.0028 89.2729 15.757 91.4027 15.757V3.757ZM95.0927 7.249V7.227H83.0927V7.249H95.0927ZM95.0927 7.227C95.0927 7.40653 95.0475 8.30387 94.2333 9.24273C93.3087 10.3088 92.1379 10.576 91.5127 10.576V-1.424C89.2815 -1.424 86.9007 -0.617832 85.1677 1.38051C83.5449 3.25163 83.0927 5.47447 83.0927 7.227H95.0927ZM91.5127 10.576C91.2654 10.576 90.9811 10.5383 90.684 10.4417C90.3851 10.3446 90.1234 10.2042 89.9104 10.0463L97.0531 0.403654C95.3952 -0.824429 93.4642 -1.424 91.5127 -1.424V10.576ZM98.2553 8.85994L99.1683 7.66094L89.6211 0.391059L88.7081 1.59006L98.2553 8.85994ZM97.7686 -0.935557C95.9604 -2.16514 93.8083 -2.854 91.5017 -2.854V9.146C91.4547 9.146 91.3729 9.13823 91.2724 9.10712C91.1729 9.07632 91.0869 9.03246 91.0209 8.98756L97.7686 -0.935557ZM91.5017 -2.854C88.8818 -2.854 86.2128 -1.97641 84.1933 0.0704831C82.1899 2.10094 81.3657 4.73466 81.3657 7.238H93.3657C93.3657 7.32134 93.317 7.90906 92.7354 8.49852C92.1376 9.1044 91.5367 9.146 91.5017 9.146V-2.854ZM81.3657 7.238V7.26H93.3657V7.238H81.3657ZM81.3657 7.26C81.3657 9.78913 82.2327 12.3978 84.2565 14.3735C86.268 16.3371 88.8745 17.143 91.3697 17.143V5.143C91.4119 5.143 92.0165 5.17886 92.6392 5.78678C93.2742 6.40674 93.3657 7.07387 93.3657 7.26H81.3657ZM96.2937 11H90.2937V17H96.2937V11ZM97.9877 11V17H103.988V11H97.9877ZM97.9877 7.854V1.854H91.9877V7.854H97.9877ZM100.98 7.854H106.98V1.854H100.98V7.854ZM100.98 11H94.9797V17H100.98V11ZM102.674 11V17H108.674V11H102.674ZM102.674 3.3H108.674V-2.7H102.674V3.3ZM100.98 3.3V-2.7H94.9797V3.3H100.98ZM100.98 6.358V12.358H106.98V6.358H100.98ZM97.9877 6.358H91.9877V12.358H97.9877V6.358ZM97.9877 3.3H103.988V-2.7H97.9877V3.3ZM96.2937 3.3V-2.7H90.2937V3.3H96.2937ZM96.2937 17H97.9877V5H96.2937V17ZM103.988 11V7.854H91.9877V11H103.988ZM97.9877 13.854H100.98V1.854H97.9877V13.854ZM94.9797 7.854V11H106.98V7.854H94.9797ZM100.98 17H102.674V5H100.98V17ZM108.674 11V3.3H96.6737V11H108.674ZM102.674 -2.7H100.98V9.3H102.674V-2.7ZM94.9797 3.3V6.358H106.98V3.3H94.9797ZM100.98 0.358H97.9877V12.358H100.98V0.358ZM103.988 6.358V3.3H91.9877V6.358H103.988ZM97.9877 -2.7H96.2937V9.3H97.9877V-2.7ZM90.2937 3.3V11H102.294V3.3H90.2937ZM109.869 11L104.206 12.9821L105.612 17H109.869V11ZM111.574 11V17H115.825L117.234 12.9893L111.574 11ZM114.28 3.3L119.94 5.2893L122.748 -2.7H114.28V3.3ZM112.608 3.3V-2.7H108.238L106.897 1.45862L112.608 3.3ZM110.76 9.031V15.031H115.129L116.47 10.8724L110.76 9.031ZM110.716 9.031L105.009 10.8823L106.354 15.031H110.716V9.031ZM108.857 3.3L114.564 1.4487L113.218 -2.7H108.857V3.3ZM107.174 3.3V-2.7H98.7169L101.511 5.2821L107.174 3.3ZM109.869 17H111.574V5H109.869V17ZM117.234 12.9893L119.94 5.2893L108.619 1.31069L105.913 9.01069L117.234 12.9893ZM114.28 -2.7H112.608V9.3H114.28V-2.7ZM106.897 1.45862L105.049 7.18962L116.47 10.8724L118.318 5.14138L106.897 1.45862ZM110.76 3.031H110.716V15.031H110.76V3.031ZM116.423 7.1797L114.564 1.4487L103.15 5.1513L105.009 10.8823L116.423 7.1797ZM108.857 -2.7H107.174V9.3H108.857V-2.7ZM101.511 5.2821L104.206 12.9821L115.532 9.0179L112.837 1.3179L101.511 5.2821ZM118.961 17.154C121.497 17.154 124.079 16.2615 126.029 14.2688C127.972 12.2827 128.811 9.69211 128.811 7.161H116.811C116.811 7.07189 116.863 6.47784 117.45 5.87767C118.044 5.27096 118.701 5.154 118.961 5.154V17.154ZM128.811 7.161V7.139H116.811V7.161H128.811ZM128.811 7.139C128.811 4.60762 127.968 2.02199 126.033 0.0395509C124.09 -1.95089 121.51 -2.854 118.961 -2.854V9.146C118.689 9.146 118.034 9.02389 117.446 8.4222C116.867 7.82851 116.811 7.23937 116.811 7.139H128.811ZM118.961 -2.854C116.412 -2.854 113.832 -1.95089 111.888 0.0395507C109.953 2.02199 109.111 4.60762 109.111 7.139H121.111C121.111 7.23937 121.055 7.82851 120.475 8.4222C119.888 9.02389 119.233 9.146 118.961 9.146V-2.854ZM109.111 7.139V7.161H121.111V7.139H109.111ZM109.111 7.161C109.111 9.69211 109.95 12.2827 111.893 14.2688C113.842 16.2615 116.424 17.154 118.961 17.154V5.154C119.22 5.154 119.877 5.27096 120.471 5.87767C121.058 6.47784 121.111 7.07189 121.111 7.161H109.111ZM118.961 3.746C119.954 3.746 121.194 4.19321 122.064 5.25999C122.817 6.18309 122.849 7.01982 122.849 7.161H110.849C110.849 8.89718 111.282 11.0264 112.764 12.8433C114.362 14.8038 116.659 15.746 118.961 15.746V3.746ZM122.849 7.161V7.139H110.849V7.161H122.849ZM122.849 7.139C122.849 7.29421 122.813 8.12311 122.07 9.03713C121.211 10.0937 119.975 10.554 118.961 10.554V-1.446C116.637 -1.446 114.346 -0.485173 112.758 1.46787C111.286 3.27839 110.849 5.39979 110.849 7.139H122.849ZM118.961 10.554C117.968 10.554 116.733 10.1057 115.868 9.04571C115.12 8.12822 115.084 7.29386 115.084 7.139H127.084C127.084 5.40014 126.646 3.27328 125.166 1.45929C123.57 -0.49721 121.274 -1.446 118.961 -1.446V10.554ZM115.084 7.139V7.161H127.084V7.139H115.084ZM115.084 7.161C115.084 7.02019 115.116 6.17797 115.874 5.25142C116.75 4.18133 117.989 3.746 118.961 3.746V15.746C121.252 15.746 123.553 14.8157 125.16 12.8518C126.65 11.0315 127.084 8.89681 127.084 7.161H115.084ZM124.651 11H118.651V17H124.651V11ZM130.063 11V17H136.063V11H130.063ZM130.063 9.526H136.063V3.526H130.063V9.526ZM126.345 9.526H120.345V15.526H126.345V9.526ZM126.345 3.3H132.345V-2.7H126.345V3.3ZM124.651 3.3V-2.7H118.651V3.3H124.651ZM124.651 17H130.063V5H124.651V17ZM136.063 11V9.526H124.063V11H136.063ZM130.063 3.526H126.345V15.526H130.063V3.526ZM132.345 9.526V3.3H120.345V9.526H132.345ZM126.345 -2.7H124.651V9.3H126.345V-2.7ZM118.651 3.3V11H130.651V3.3H118.651ZM132.494 11H126.494V17H132.494V11ZM134.188 11V17H140.188V11H134.188ZM134.188 4.785V-1.215H128.188V4.785H134.188ZM136.619 4.785V10.785H142.619V4.785H136.619ZM136.619 3.3H142.619V-2.7H136.619V3.3ZM130.052 3.3V-2.7H124.052V3.3H130.052ZM130.052 4.785H124.052V10.785H130.052V4.785ZM132.494 4.785H138.494V-1.215H132.494V4.785ZM132.494 17H134.188V5H132.494V17ZM140.188 11V4.785H128.188V11H140.188ZM134.188 10.785H136.619V-1.215H134.188V10.785ZM142.619 4.785V3.3H130.619V4.785H142.619ZM136.619 -2.7H130.052V9.3H136.619V-2.7ZM124.052 3.3V4.785H136.052V3.3H124.052ZM130.052 10.785H132.494V-1.215H130.052V10.785ZM126.494 4.785V11H138.494V4.785H126.494ZM136.691 11L131.03 9.0107L128.223 17H136.691V11ZM138.363 11V17H142.731L144.073 12.8433L138.363 11ZM138.814 9.603V3.603H134.446L133.104 7.75967L138.814 9.603ZM141.927 9.603L147.637 7.75967L146.295 3.603H141.927V9.603ZM142.378 11L136.668 12.8433L138.01 17H142.378V11ZM144.061 11V17H152.529L149.722 9.01069L144.061 11ZM141.355 3.3L147.016 1.31069L145.606 -2.7H141.355V3.3ZM139.397 3.3V-2.7H135.146L133.736 1.31069L139.397 3.3ZM140.343 4.884V-1.116H135.978L134.634 3.03659L140.343 4.884ZM140.398 4.884L146.106 3.03659L144.763 -1.116H140.398V4.884ZM141.498 8.283V14.283H149.746L147.206 6.43559L141.498 8.283ZM139.243 8.283L133.534 6.43559L130.995 14.283L139.243 14.283V8.283ZM136.691 17H138.363V5H136.691V17ZM144.073 12.8433L144.524 11.4463L133.104 7.75967L132.653 9.15667L144.073 12.8433ZM138.814 15.603H141.927V3.603H138.814V15.603ZM136.217 11.4463L136.668 12.8433L148.088 9.15667L147.637 7.75967L136.217 11.4463ZM142.378 17H144.061V5H142.378V17ZM149.722 9.01069L147.016 1.31069L135.694 5.2893L138.4 12.9893L149.722 9.01069ZM141.355 -2.7H139.397V9.3H141.355V-2.7ZM133.736 1.31069L131.03 9.0107L142.352 12.9893L145.058 5.2893L133.736 1.31069ZM140.343 10.884H140.398V-1.116H140.343V10.884ZM134.689 6.73141L135.789 10.1304L147.206 6.43559L146.106 3.03659L134.689 6.73141ZM141.498 2.283H139.243V14.283H141.498V2.283ZM144.951 10.1304L146.051 6.73141L134.634 3.03659L133.534 6.43559L144.951 10.1304ZM151.848 10.373L154.854 15.5656L157.848 13.8323V10.373H151.848ZM151.848 6.765H157.848V0.765H151.848V6.765ZM148.548 6.765V0.765H142.548V6.765H148.548ZM148.548 8.041H142.548V14.041H148.548V8.041ZM150.297 8.041H156.297V2.041H150.297V8.041ZM150.297 9.482L152.792 14.9388L156.297 13.3364V9.482H150.297ZM151.034 5.225L147.463 10.0463L152.221 13.5707L155.808 8.85994L151.034 5.225ZM151.947 4.026L156.721 7.66094L160.556 2.62425L155.321 -0.935557L151.947 4.026ZM148.922 17.143C151.002 17.143 153.087 16.5887 154.854 15.5656L148.842 5.18044C148.879 5.15893 148.903 5.14842 148.913 5.14442C148.923 5.14031 148.925 5.13998 148.921 5.14103C148.918 5.14204 148.913 5.14289 148.91 5.14331C148.907 5.14373 148.91 5.143 148.922 5.143V17.143ZM157.848 10.373V6.765H145.848V10.373H157.848ZM151.848 0.765H148.548V12.765H151.848V0.765ZM142.548 6.765V8.041H154.548V6.765H142.548ZM148.548 14.041H150.297V2.041H148.548V14.041ZM144.297 8.041V9.482H156.297V8.041H144.297ZM147.802 4.02515C148.273 3.81009 148.673 3.757 148.955 3.757V15.757C150.227 15.757 151.551 15.5059 152.792 14.9388L147.802 4.02515ZM148.955 3.757C149.611 3.757 150.768 4.02173 151.702 5.05715C152.561 6.00879 152.645 6.96362 152.645 7.249H140.645C140.645 9.06338 141.147 11.2722 142.792 13.0956C144.513 15.0028 146.825 15.757 148.955 15.757V3.757ZM152.645 7.249V7.227H140.645V7.249H152.645ZM152.645 7.227C152.645 7.40653 152.6 8.30387 151.786 9.24273C150.861 10.3088 149.69 10.576 149.065 10.576V-1.424C146.834 -1.424 144.453 -0.617832 142.72 1.38051C141.097 3.25163 140.645 5.47447 140.645 7.227H152.645ZM149.065 10.576C148.818 10.576 148.533 10.5383 148.236 10.4417C147.937 10.3446 147.676 10.2042 147.463 10.0463L154.605 0.403654C152.948 -0.824429 151.017 -1.424 149.065 -1.424V10.576ZM155.808 8.85994L156.721 7.66094L147.173 0.391059L146.26 1.59006L155.808 8.85994ZM155.321 -0.935557C153.513 -2.16514 151.361 -2.854 149.054 -2.854V9.146C149.007 9.146 148.925 9.13823 148.825 9.10712C148.725 9.07632 148.639 9.03246 148.573 8.98756L155.321 -0.935557ZM149.054 -2.854C146.434 -2.854 143.765 -1.97641 141.746 0.0704831C139.742 2.10094 138.918 4.73466 138.918 7.238H150.918C150.918 7.32134 150.869 7.90906 150.288 8.49852C149.69 9.1044 149.089 9.146 149.054 9.146V-2.854ZM138.918 7.238V7.26H150.918V7.238H138.918ZM138.918 7.26C138.918 9.78913 139.785 12.3978 141.809 14.3735C143.82 16.3371 146.427 17.143 148.922 17.143V5.143C148.964 5.143 149.569 5.17886 150.192 5.78678C150.827 6.40674 150.918 7.07387 150.918 7.26H138.918ZM153.846 11H147.846V17H153.846V11ZM159.368 11V17H165.368V11H159.368ZM159.368 9.548H165.368V3.548H159.368V9.548ZM155.54 9.548H149.54V15.548H155.54V9.548ZM155.54 7.744V1.744H149.54V7.744H155.54ZM158.851 7.744V13.744H164.851V7.744H158.851ZM158.851 6.446H164.851V0.446H158.851V6.446ZM155.54 6.446H149.54V12.446H155.54V6.446ZM155.54 4.752V-1.248H149.54V4.752H155.54ZM159.302 4.752V10.752H165.302V4.752H159.302ZM159.302 3.3H165.302V-2.7H159.302V3.3ZM153.846 3.3V-2.7H147.846V3.3H153.846ZM153.846 17H159.368V5H153.846V17ZM165.368 11V9.548H153.368V11H165.368ZM159.368 3.548H155.54V15.548H159.368V3.548ZM161.54 9.548V7.744H149.54V9.548H161.54ZM155.54 13.744H158.851V1.744H155.54V13.744ZM164.851 7.744V6.446H152.851V7.744H164.851ZM158.851 0.446H155.54V12.446H158.851V0.446ZM161.54 6.446V4.752H149.54V6.446H161.54ZM155.54 10.752H159.302V-1.248H155.54V10.752ZM165.302 4.752V3.3H153.302V4.752H165.302ZM159.302 -2.7H153.846V9.3H159.302V-2.7ZM147.846 3.3V11H159.846V3.3H147.846ZM161.602 8.569L155.648 9.31321L156.305 14.569H161.602V8.569ZM162.416 8.569V14.569H167.712L168.369 9.31321L162.416 8.569ZM162.581 7.249L156.636 6.43312L156.631 6.46893L156.627 6.50479L162.581 7.249ZM162.933 3.3H168.933V-2.7H162.933V3.3ZM161.096 3.3V-2.7H155.096V3.3H161.096ZM161.437 7.249L167.39 6.50479L167.388 6.48552L167.385 6.46627L161.437 7.249ZM161.118 11H155.118V17H161.118V11ZM162.9 11V17H168.9V11H162.9ZM162.9 9.295H168.9V3.295H162.9V9.295ZM161.118 9.295V3.295H155.118V9.295H161.118ZM161.602 14.569H162.416V2.569H161.602V14.569ZM168.369 9.31321L168.534 7.99321L156.627 6.50479L156.462 7.82479L168.369 9.31321ZM168.525 8.06488C168.76 6.34869 168.933 4.90373 168.933 3.3H156.933C156.933 4.02827 156.863 4.78331 156.636 6.43312L168.525 8.06488ZM162.933 -2.7H161.096V9.3H162.933V-2.7ZM155.096 3.3C155.096 4.90501 155.266 6.34604 155.488 8.03173L167.385 6.46627C167.167 4.80796 167.096 4.04899 167.096 3.3H155.096ZM155.483 7.99321L155.648 9.31321L167.555 7.82479L167.39 6.50479L155.483 7.99321ZM161.118 17H162.9V5H161.118V17ZM168.9 11V9.295H156.9V11H168.9ZM162.9 3.295H161.118V15.295H162.9V3.295ZM155.118 9.295V11H167.118V9.295H155.118Z" fill="white"/>
<path d="M615.222 11H616.916V7.854H619.908V11H621.602V3.3H619.908V6.358H616.916V3.3H615.222V11ZM623.85 11H625.544V3.3H623.85V11ZM631.37 11.143C632.415 11.143 633.46 10.857 634.296 10.373V6.765H630.996V8.041H632.745V9.482C632.36 9.658 631.898 9.757 631.403 9.757C629.929 9.757 629.093 8.778 629.093 7.249V7.227C629.093 5.654 629.907 4.576 631.513 4.576C632.217 4.576 632.888 4.785 633.482 5.225L634.395 4.026C633.57 3.465 632.591 3.146 631.502 3.146C628.917 3.146 627.366 4.818 627.366 7.238V7.26C627.366 9.603 628.917 11.143 631.37 11.143ZM636.294 11H637.988V7.854H640.98V11H642.674V3.3H640.98V6.358H637.988V3.3H636.294V11ZM649.869 11H651.574L654.28 3.3H652.608L650.76 9.031H650.716L648.857 3.3H647.174L649.869 11ZM658.961 11.154C661.238 11.154 662.811 9.603 662.811 7.161V7.139C662.811 4.708 661.238 3.146 658.961 3.146C656.684 3.146 655.111 4.708 655.111 7.139V7.161C655.111 9.603 656.684 11.154 658.961 11.154ZM658.961 9.746C657.652 9.746 656.849 8.756 656.849 7.161V7.139C656.849 5.555 657.652 4.554 658.961 4.554C660.281 4.554 661.084 5.555 661.084 7.139V7.161C661.084 8.756 660.281 9.746 658.961 9.746ZM664.651 11H670.063V9.526H666.345V3.3H664.651V11ZM672.494 11H674.188V4.785H676.619V3.3H670.052V4.785H672.494V11ZM676.691 11H678.363L678.814 9.603H681.927L682.378 11H684.061L681.355 3.3H679.397L676.691 11ZM680.343 4.884H680.398L681.498 8.283H679.243L680.343 4.884ZM688.922 11.143C689.967 11.143 691.012 10.857 691.848 10.373V6.765H688.548V8.041H690.297V9.482C689.912 9.658 689.45 9.757 688.955 9.757C687.481 9.757 686.645 8.778 686.645 7.249V7.227C686.645 5.654 687.459 4.576 689.065 4.576C689.769 4.576 690.44 4.785 691.034 5.225L691.947 4.026C691.122 3.465 690.143 3.146 689.054 3.146C686.469 3.146 684.918 4.818 684.918 7.238V7.26C684.918 9.603 686.469 11.143 688.922 11.143ZM693.846 11H699.368V9.548H695.54V7.744H698.851V6.446H695.54V4.752H699.302V3.3H693.846V11ZM701.602 8.569H702.416L702.581 7.249C702.812 5.566 702.933 4.466 702.933 3.3H701.096C701.096 4.477 701.217 5.577 701.437 7.249L701.602 8.569ZM701.118 11H702.9V9.295H701.118V11Z" fill="#BF2E00"/>
<path d="M615.222 11H609.222V17H615.222V11ZM616.916 11V17H622.916V11H616.916ZM616.916 7.854V1.854H610.916V7.854H616.916ZM619.908 7.854H625.908V1.854H619.908V7.854ZM619.908 11H613.908V17H619.908V11ZM621.602 11V17H627.602V11H621.602ZM621.602 3.3H627.602V-2.7H621.602V3.3ZM619.908 3.3V-2.7H613.908V3.3H619.908ZM619.908 6.358V12.358H625.908V6.358H619.908ZM616.916 6.358H610.916V12.358H616.916V6.358ZM616.916 3.3H622.916V-2.7H616.916V3.3ZM615.222 3.3V-2.7H609.222V3.3H615.222ZM615.222 17H616.916V5H615.222V17ZM622.916 11V7.854H610.916V11H622.916ZM616.916 13.854H619.908V1.854H616.916V13.854ZM613.908 7.854V11H625.908V7.854H613.908ZM619.908 17H621.602V5H619.908V17ZM627.602 11V3.3H615.602V11H627.602ZM621.602 -2.7H619.908V9.3H621.602V-2.7ZM613.908 3.3V6.358H625.908V3.3H613.908ZM619.908 0.358H616.916V12.358H619.908V0.358ZM622.916 6.358V3.3H610.916V6.358H622.916ZM616.916 -2.7H615.222V9.3H616.916V-2.7ZM609.222 3.3V11H621.222V3.3H609.222ZM623.85 11H617.85V17H623.85V11ZM625.544 11V17H631.544V11H625.544ZM625.544 3.3H631.544V-2.7H625.544V3.3ZM623.85 3.3V-2.7H617.85V3.3H623.85ZM623.85 17H625.544V5H623.85V17ZM631.544 11V3.3H619.544V11H631.544ZM625.544 -2.7H623.85V9.3H625.544V-2.7ZM617.85 3.3V11H629.85V3.3H617.85ZM634.296 10.373L637.302 15.5656L640.296 13.8323V10.373H634.296ZM634.296 6.765H640.296V0.765H634.296V6.765ZM630.996 6.765V0.765H624.996V6.765H630.996ZM630.996 8.041H624.996V14.041H630.996V8.041ZM632.745 8.041H638.745V2.041H632.745V8.041ZM632.745 9.482L635.239 14.9388L638.745 13.3364V9.482H632.745ZM633.482 5.225L629.91 10.0463L634.668 13.5707L638.255 8.85994L633.482 5.225ZM634.395 4.026L639.168 7.66094L643.004 2.62425L637.769 -0.935557L634.395 4.026ZM631.37 17.143C633.45 17.143 635.535 16.5887 637.302 15.5656L631.29 5.18044C631.327 5.15893 631.351 5.14842 631.361 5.14441C631.371 5.14031 631.373 5.13998 631.369 5.14103C631.365 5.14204 631.361 5.14289 631.358 5.14331C631.355 5.14373 631.358 5.143 631.37 5.143V17.143ZM640.296 10.373V6.765H628.296V10.373H640.296ZM634.296 0.765H630.996V12.765H634.296V0.765ZM624.996 6.765V8.041H636.996V6.765H624.996ZM630.996 14.041H632.745V2.041H630.996V14.041ZM626.745 8.041V9.482H638.745V8.041H626.745ZM630.25 4.02515C630.721 3.81009 631.12 3.757 631.403 3.757V15.757C632.675 15.757 633.999 15.5059 635.239 14.9388L630.25 4.02515ZM631.403 3.757C632.059 3.757 633.216 4.02173 634.15 5.05715C635.008 6.00879 635.093 6.96362 635.093 7.249H623.093C623.093 9.06338 623.595 11.2722 625.24 13.0956C626.961 15.0028 629.273 15.757 631.403 15.757V3.757ZM635.093 7.249V7.227H623.093V7.249H635.093ZM635.093 7.227C635.093 7.40653 635.048 8.30387 634.233 9.24273C633.309 10.3088 632.138 10.576 631.513 10.576V-1.424C629.282 -1.424 626.901 -0.617832 625.168 1.38051C623.545 3.25163 623.093 5.47447 623.093 7.227H635.093ZM631.513 10.576C631.265 10.576 630.981 10.5383 630.684 10.4417C630.385 10.3446 630.123 10.2042 629.91 10.0463L637.053 0.403654C635.395 -0.824429 633.464 -1.424 631.513 -1.424V10.576ZM638.255 8.85994L639.168 7.66094L629.621 0.39106L628.708 1.59006L638.255 8.85994ZM637.769 -0.935557C635.96 -2.16514 633.808 -2.854 631.502 -2.854V9.146C631.455 9.146 631.373 9.13823 631.272 9.10712C631.173 9.07632 631.087 9.03246 631.021 8.98756L637.769 -0.935557ZM631.502 -2.854C628.882 -2.854 626.213 -1.97641 624.193 0.0704831C622.19 2.10094 621.366 4.73466 621.366 7.238H633.366C633.366 7.32134 633.317 7.90906 632.735 8.49852C632.138 9.1044 631.537 9.146 631.502 9.146V-2.854ZM621.366 7.238V7.26H633.366V7.238H621.366ZM621.366 7.26C621.366 9.78913 622.233 12.3978 624.257 14.3735C626.268 16.3371 628.874 17.143 631.37 17.143V5.143C631.412 5.143 632.016 5.17886 632.639 5.78678C633.274 6.40674 633.366 7.07387 633.366 7.26H621.366ZM636.294 11H630.294V17H636.294V11ZM637.988 11V17H643.988V11H637.988ZM637.988 7.854V1.854H631.988V7.854H637.988ZM640.98 7.854H646.98V1.854H640.98V7.854ZM640.98 11H634.98V17H640.98V11ZM642.674 11V17H648.674V11H642.674ZM642.674 3.3H648.674V-2.7H642.674V3.3ZM640.98 3.3V-2.7H634.98V3.3H640.98ZM640.98 6.358V12.358H646.98V6.358H640.98ZM637.988 6.358H631.988V12.358H637.988V6.358ZM637.988 3.3H643.988V-2.7H637.988V3.3ZM636.294 3.3V-2.7H630.294V3.3H636.294ZM636.294 17H637.988V5H636.294V17ZM643.988 11V7.854H631.988V11H643.988ZM637.988 13.854H640.98V1.854H637.988V13.854ZM634.98 7.854V11H646.98V7.854H634.98ZM640.98 17H642.674V5H640.98V17ZM648.674 11V3.3H636.674V11H648.674ZM642.674 -2.7H640.98V9.3H642.674V-2.7ZM634.98 3.3V6.358H646.98V3.3H634.98ZM640.98 0.358H637.988V12.358H640.98V0.358ZM643.988 6.358V3.3H631.988V6.358H643.988ZM637.988 -2.7H636.294V9.3H637.988V-2.7ZM630.294 3.3V11H642.294V3.3H630.294ZM649.869 11L644.206 12.9821L645.612 17H649.869V11ZM651.574 11V17H655.825L657.234 12.9893L651.574 11ZM654.28 3.3L659.94 5.2893L662.748 -2.7H654.28V3.3ZM652.608 3.3V-2.7H648.238L646.897 1.45862L652.608 3.3ZM650.76 9.031V15.031H655.129L656.47 10.8724L650.76 9.031ZM650.716 9.031L645.009 10.8823L646.354 15.031H650.716V9.031ZM648.857 3.3L654.564 1.4487L653.218 -2.7H648.857V3.3ZM647.174 3.3V-2.7H638.717L641.511 5.2821L647.174 3.3ZM649.869 17H651.574V5H649.869V17ZM657.234 12.9893L659.94 5.2893L648.619 1.31069L645.913 9.01069L657.234 12.9893ZM654.28 -2.7H652.608V9.3H654.28V-2.7ZM646.897 1.45862L645.049 7.18962L656.47 10.8724L658.318 5.14138L646.897 1.45862ZM650.76 3.031H650.716V15.031H650.76V3.031ZM656.423 7.1797L654.564 1.4487L643.15 5.1513L645.009 10.8823L656.423 7.1797ZM648.857 -2.7H647.174V9.3H648.857V-2.7ZM641.511 5.2821L644.206 12.9821L655.532 9.0179L652.837 1.3179L641.511 5.2821ZM658.961 17.154C661.497 17.154 664.079 16.2615 666.029 14.2688C667.972 12.2827 668.811 9.69211 668.811 7.161H656.811C656.811 7.07189 656.863 6.47784 657.45 5.87767C658.044 5.27096 658.701 5.154 658.961 5.154V17.154ZM668.811 7.161V7.139H656.811V7.161H668.811ZM668.811 7.139C668.811 4.60763 667.968 2.02199 666.033 0.0395509C664.09 -1.95089 661.51 -2.854 658.961 -2.854V9.146C658.689 9.146 658.034 9.02389 657.446 8.4222C656.867 7.82851 656.811 7.23938 656.811 7.139H668.811ZM658.961 -2.854C656.412 -2.854 653.832 -1.95089 651.888 0.0395507C649.953 2.02199 649.111 4.60763 649.111 7.139H661.111C661.111 7.23938 661.055 7.82851 660.475 8.4222C659.888 9.02389 659.233 9.146 658.961 9.146V-2.854ZM649.111 7.139V7.161H661.111V7.139H649.111ZM649.111 7.161C649.111 9.69211 649.95 12.2827 651.893 14.2688C653.842 16.2615 656.424 17.154 658.961 17.154V5.154C659.22 5.154 659.877 5.27096 660.471 5.87767C661.058 6.47784 661.111 7.07189 661.111 7.161H649.111ZM658.961 3.746C659.954 3.746 661.194 4.19321 662.064 5.25999C662.817 6.18309 662.849 7.01982 662.849 7.161H650.849C650.849 8.89718 651.282 11.0264 652.764 12.8433C654.362 14.8038 656.659 15.746 658.961 15.746V3.746ZM662.849 7.161V7.139H650.849V7.161H662.849ZM662.849 7.139C662.849 7.29421 662.813 8.12311 662.07 9.03713C661.211 10.0937 659.975 10.554 658.961 10.554V-1.446C656.637 -1.446 654.346 -0.485173 652.758 1.46787C651.286 3.27839 650.849 5.39979 650.849 7.139H662.849ZM658.961 10.554C657.968 10.554 656.733 10.1057 655.868 9.04571C655.12 8.12822 655.084 7.29386 655.084 7.139H667.084C667.084 5.40014 666.646 3.27328 665.166 1.45929C663.57 -0.49721 661.274 -1.446 658.961 -1.446V10.554ZM655.084 7.139V7.161H667.084V7.139H655.084ZM655.084 7.161C655.084 7.0202 655.116 6.17797 655.874 5.25142C656.75 4.18133 657.989 3.746 658.961 3.746V15.746C661.252 15.746 663.553 14.8157 665.16 12.8518C666.65 11.0315 667.084 8.8968 667.084 7.161H655.084ZM664.651 11H658.651V17H664.651V11ZM670.063 11V17H676.063V11H670.063ZM670.063 9.526H676.063V3.526H670.063V9.526ZM666.345 9.526H660.345V15.526H666.345V9.526ZM666.345 3.3H672.345V-2.7H666.345V3.3ZM664.651 3.3V-2.7H658.651V3.3H664.651ZM664.651 17H670.063V5H664.651V17ZM676.063 11V9.526H664.063V11H676.063ZM670.063 3.526H666.345V15.526H670.063V3.526ZM672.345 9.526V3.3H660.345V9.526H672.345ZM666.345 -2.7H664.651V9.3H666.345V-2.7ZM658.651 3.3V11H670.651V3.3H658.651ZM672.494 11H666.494V17H672.494V11ZM674.188 11V17H680.188V11H674.188ZM674.188 4.785V-1.215H668.188V4.785H674.188ZM676.619 4.785V10.785H682.619V4.785H676.619ZM676.619 3.3H682.619V-2.7H676.619V3.3ZM670.052 3.3V-2.7H664.052V3.3H670.052ZM670.052 4.785H664.052V10.785H670.052V4.785ZM672.494 4.785H678.494V-1.215H672.494V4.785ZM672.494 17H674.188V5H672.494V17ZM680.188 11V4.785H668.188V11H680.188ZM674.188 10.785H676.619V-1.215H674.188V10.785ZM682.619 4.785V3.3H670.619V4.785H682.619ZM676.619 -2.7H670.052V9.3H676.619V-2.7ZM664.052 3.3V4.785H676.052V3.3H664.052ZM670.052 10.785H672.494V-1.215H670.052V10.785ZM666.494 4.785V11H678.494V4.785H666.494ZM676.691 11L671.03 9.0107L668.223 17H676.691V11ZM678.363 11V17H682.731L684.073 12.8433L678.363 11ZM678.814 9.603V3.603H674.446L673.104 7.75967L678.814 9.603ZM681.927 9.603L687.637 7.75967L686.295 3.603H681.927V9.603ZM682.378 11L676.668 12.8433L678.01 17H682.378V11ZM684.061 11V17H692.529L689.722 9.01069L684.061 11ZM681.355 3.3L687.016 1.31069L685.606 -2.7H681.355V3.3ZM679.397 3.3V-2.7H675.146L673.736 1.31069L679.397 3.3ZM680.343 4.884V-1.116H675.978L674.634 3.03659L680.343 4.884ZM680.398 4.884L686.106 3.03659L684.763 -1.116H680.398V4.884ZM681.498 8.283V14.283H689.746L687.206 6.43559L681.498 8.283ZM679.243 8.283L673.534 6.43559L670.995 14.283H679.243V8.283ZM676.691 17H678.363V5H676.691V17ZM684.073 12.8433L684.524 11.4463L673.104 7.75967L672.653 9.15667L684.073 12.8433ZM678.814 15.603H681.927V3.603H678.814V15.603ZM676.217 11.4463L676.668 12.8433L688.088 9.15667L687.637 7.75967L676.217 11.4463ZM682.378 17H684.061V5H682.378V17ZM689.722 9.01069L687.016 1.31069L675.694 5.2893L678.4 12.9893L689.722 9.01069ZM681.355 -2.7H679.397V9.3H681.355V-2.7ZM673.736 1.31069L671.03 9.0107L682.352 12.9893L685.058 5.2893L673.736 1.31069ZM680.343 10.884H680.398V-1.116H680.343V10.884ZM674.689 6.73141L675.789 10.1304L687.206 6.43559L686.106 3.03659L674.689 6.73141ZM681.498 2.283H679.243V14.283H681.498V2.283ZM684.951 10.1304L686.051 6.73141L674.634 3.03659L673.534 6.43559L684.951 10.1304ZM691.848 10.373L694.854 15.5656L697.848 13.8323V10.373H691.848ZM691.848 6.765H697.848V0.765H691.848V6.765ZM688.548 6.765V0.765H682.548V6.765H688.548ZM688.548 8.041H682.548V14.041H688.548V8.041ZM690.297 8.041H696.297V2.041H690.297V8.041ZM690.297 9.482L692.792 14.9388L696.297 13.3364V9.482H690.297ZM691.034 5.225L687.463 10.0463L692.221 13.5707L695.808 8.85994L691.034 5.225ZM691.947 4.026L696.721 7.66094L700.556 2.62425L695.321 -0.935557L691.947 4.026ZM688.922 17.143C691.002 17.143 693.087 16.5887 694.854 15.5656L688.842 5.18044C688.879 5.15893 688.903 5.14842 688.913 5.14441C688.923 5.14031 688.925 5.13998 688.921 5.14103C688.918 5.14204 688.913 5.14289 688.91 5.14331C688.907 5.14373 688.91 5.143 688.922 5.143V17.143ZM697.848 10.373V6.765H685.848V10.373H697.848ZM691.848 0.765H688.548V12.765H691.848V0.765ZM682.548 6.765V8.041H694.548V6.765H682.548ZM688.548 14.041H690.297V2.041H688.548V14.041ZM684.297 8.041V9.482H696.297V8.041H684.297ZM687.802 4.02515C688.273 3.81009 688.673 3.757 688.955 3.757V15.757C690.227 15.757 691.551 15.5059 692.792 14.9388L687.802 4.02515ZM688.955 3.757C689.611 3.757 690.768 4.02173 691.702 5.05715C692.561 6.00879 692.645 6.96362 692.645 7.249H680.645C680.645 9.06338 681.147 11.2722 682.792 13.0956C684.513 15.0028 686.825 15.757 688.955 15.757V3.757ZM692.645 7.249V7.227H680.645V7.249H692.645ZM692.645 7.227C692.645 7.40653 692.6 8.30387 691.786 9.24273C690.861 10.3088 689.69 10.576 689.065 10.576V-1.424C686.834 -1.424 684.453 -0.617832 682.72 1.38051C681.097 3.25163 680.645 5.47447 680.645 7.227H692.645ZM689.065 10.576C688.818 10.576 688.533 10.5383 688.236 10.4417C687.937 10.3446 687.676 10.2042 687.463 10.0463L694.605 0.403654C692.948 -0.824429 691.017 -1.424 689.065 -1.424V10.576ZM695.808 8.85994L696.721 7.66094L687.173 0.39106L686.26 1.59006L695.808 8.85994ZM695.321 -0.935557C693.513 -2.16514 691.361 -2.854 689.054 -2.854V9.146C689.007 9.146 688.925 9.13823 688.825 9.10712C688.725 9.07632 688.639 9.03246 688.573 8.98756L695.321 -0.935557ZM689.054 -2.854C686.434 -2.854 683.765 -1.97641 681.746 0.0704831C679.742 2.10094 678.918 4.73466 678.918 7.238H690.918C690.918 7.32134 690.869 7.90906 690.288 8.49852C689.69 9.1044 689.089 9.146 689.054 9.146V-2.854ZM678.918 7.238V7.26H690.918V7.238H678.918ZM678.918 7.26C678.918 9.78913 679.785 12.3978 681.809 14.3735C683.82 16.3371 686.427 17.143 688.922 17.143V5.143C688.964 5.143 689.569 5.17886 690.192 5.78678C690.827 6.40674 690.918 7.07387 690.918 7.26H678.918ZM693.846 11H687.846V17H693.846V11ZM699.368 11V17H705.368V11H699.368ZM699.368 9.548H705.368V3.548H699.368V9.548ZM695.54 9.548H689.54V15.548H695.54V9.548ZM695.54 7.744V1.744H689.54V7.744H695.54ZM698.851 7.744V13.744H704.851V7.744H698.851ZM698.851 6.446H704.851V0.446H698.851V6.446ZM695.54 6.446H689.54V12.446H695.54V6.446ZM695.54 4.752V-1.248H689.54V4.752H695.54ZM699.302 4.752V10.752H705.302V4.752H699.302ZM699.302 3.3H705.302V-2.7H699.302V3.3ZM693.846 3.3V-2.7H687.846V3.3H693.846ZM693.846 17H699.368V5H693.846V17ZM705.368 11V9.548H693.368V11H705.368ZM699.368 3.548H695.54V15.548H699.368V3.548ZM701.54 9.548V7.744H689.54V9.548H701.54ZM695.54 13.744H698.851V1.744H695.54V13.744ZM704.851 7.744V6.446H692.851V7.744H704.851ZM698.851 0.446H695.54V12.446H698.851V0.446ZM701.54 6.446V4.752H689.54V6.446H701.54ZM695.54 10.752H699.302V-1.248H695.54V10.752ZM705.302 4.752V3.3H693.302V4.752H705.302ZM699.302 -2.7H693.846V9.3H699.302V-2.7ZM687.846 3.3V11H699.846V3.3H687.846ZM701.602 8.569L695.648 9.31321L696.305 14.569H701.602V8.569ZM702.416 8.569V14.569H707.712L708.369 9.31321L702.416 8.569ZM702.581 7.249L696.636 6.43312L696.631 6.46893L696.627 6.50479L702.581 7.249ZM702.933 3.3H708.933V-2.7H702.933V3.3ZM701.096 3.3V-2.7H695.096V3.3H701.096ZM701.437 7.249L707.39 6.50479L707.388 6.48552L707.385 6.46627L701.437 7.249ZM701.118 11H695.118V17H701.118V11ZM702.9 11V17H708.9V11H702.9ZM702.9 9.295H708.9V3.295H702.9V9.295ZM701.118 9.295V3.295H695.118V9.295H701.118ZM701.602 14.569H702.416V2.569H701.602V14.569ZM708.369 9.31321L708.534 7.99321L696.627 6.50479L696.462 7.82479L708.369 9.31321ZM708.525 8.06488C708.76 6.34869 708.933 4.90373 708.933 3.3H696.933C696.933 4.02827 696.863 4.78331 696.636 6.43312L708.525 8.06488ZM702.933 -2.7H701.096V9.3H702.933V-2.7ZM695.096 3.3C695.096 4.90501 695.266 6.34604 695.488 8.03173L707.385 6.46627C707.167 4.80796 707.096 4.04899 707.096 3.3H695.096ZM695.483 7.99321L695.648 9.31321L707.555 7.82479L707.39 6.50479L695.483 7.99321ZM701.118 17H702.9V5H701.118V17ZM708.9 11V9.295H696.9V11H708.9ZM702.9 3.295H701.118V15.295H702.9V3.295ZM695.118 9.295V11H707.118V9.295H695.118Z" fill="white"/>
<path d="M795.222 11H796.916V7.854H799.908V11H801.602V3.3H799.908V6.358H796.916V3.3H795.222V11ZM803.85 11H805.544V3.3H803.85V11ZM811.37 11.143C812.415 11.143 813.46 10.857 814.296 10.373V6.765H810.996V8.041H812.745V9.482C812.36 9.658 811.898 9.757 811.403 9.757C809.929 9.757 809.093 8.778 809.093 7.249V7.227C809.093 5.654 809.907 4.576 811.513 4.576C812.217 4.576 812.888 4.785 813.482 5.225L814.395 4.026C813.57 3.465 812.591 3.146 811.502 3.146C808.917 3.146 807.366 4.818 807.366 7.238V7.26C807.366 9.603 808.917 11.143 811.37 11.143ZM816.294 11H817.988V7.854H820.98V11H822.674V3.3H820.98V6.358H817.988V3.3H816.294V11ZM829.869 11H831.574L834.28 3.3H832.608L830.76 9.031H830.716L828.857 3.3H827.174L829.869 11ZM838.961 11.154C841.238 11.154 842.811 9.603 842.811 7.161V7.139C842.811 4.708 841.238 3.146 838.961 3.146C836.684 3.146 835.111 4.708 835.111 7.139V7.161C835.111 9.603 836.684 11.154 838.961 11.154ZM838.961 9.746C837.652 9.746 836.849 8.756 836.849 7.161V7.139C836.849 5.555 837.652 4.554 838.961 4.554C840.281 4.554 841.084 5.555 841.084 7.139V7.161C841.084 8.756 840.281 9.746 838.961 9.746ZM844.651 11H850.063V9.526H846.345V3.3H844.651V11ZM852.494 11H854.188V4.785H856.619V3.3H850.052V4.785H852.494V11ZM856.691 11H858.363L858.814 9.603H861.927L862.378 11H864.061L861.355 3.3H859.397L856.691 11ZM860.343 4.884H860.398L861.498 8.283H859.243L860.343 4.884ZM868.922 11.143C869.967 11.143 871.012 10.857 871.848 10.373V6.765H868.548V8.041H870.297V9.482C869.912 9.658 869.45 9.757 868.955 9.757C867.481 9.757 866.645 8.778 866.645 7.249V7.227C866.645 5.654 867.459 4.576 869.065 4.576C869.769 4.576 870.44 4.785 871.034 5.225L871.947 4.026C871.122 3.465 870.143 3.146 869.054 3.146C866.469 3.146 864.918 4.818 864.918 7.238V7.26C864.918 9.603 866.469 11.143 868.922 11.143ZM873.846 11H879.368V9.548H875.54V7.744H878.851V6.446H875.54V4.752H879.302V3.3H873.846V11ZM881.602 8.569H882.416L882.581 7.249C882.812 5.566 882.933 4.466 882.933 3.3H881.096C881.096 4.477 881.217 5.577 881.437 7.249L881.602 8.569ZM881.118 11H882.9V9.295H881.118V11Z" fill="#BF2E00"/>
<path d="M795.222 11H789.222V17H795.222V11ZM796.916 11V17H802.916V11H796.916ZM796.916 7.854V1.854H790.916V7.854H796.916ZM799.908 7.854H805.908V1.854H799.908V7.854ZM799.908 11H793.908V17H799.908V11ZM801.602 11V17H807.602V11H801.602ZM801.602 3.3H807.602V-2.7H801.602V3.3ZM799.908 3.3V-2.7H793.908V3.3H799.908ZM799.908 6.358V12.358H805.908V6.358H799.908ZM796.916 6.358H790.916V12.358H796.916V6.358ZM796.916 3.3H802.916V-2.7H796.916V3.3ZM795.222 3.3V-2.7H789.222V3.3H795.222ZM795.222 17H796.916V5H795.222V17ZM802.916 11V7.854H790.916V11H802.916ZM796.916 13.854H799.908V1.854H796.916V13.854ZM793.908 7.854V11H805.908V7.854H793.908ZM799.908 17H801.602V5H799.908V17ZM807.602 11V3.3H795.602V11H807.602ZM801.602 -2.7H799.908V9.3H801.602V-2.7ZM793.908 3.3V6.358H805.908V3.3H793.908ZM799.908 0.358H796.916V12.358H799.908V0.358ZM802.916 6.358V3.3H790.916V6.358H802.916ZM796.916 -2.7H795.222V9.3H796.916V-2.7ZM789.222 3.3V11H801.222V3.3H789.222ZM803.85 11H797.85V17H803.85V11ZM805.544 11V17H811.544V11H805.544ZM805.544 3.3H811.544V-2.7H805.544V3.3ZM803.85 3.3V-2.7H797.85V3.3H803.85ZM803.85 17H805.544V5H803.85V17ZM811.544 11V3.3H799.544V11H811.544ZM805.544 -2.7H803.85V9.3H805.544V-2.7ZM797.85 3.3V11H809.85V3.3H797.85ZM814.296 10.373L817.302 15.5656L820.296 13.8323V10.373H814.296ZM814.296 6.765H820.296V0.765H814.296V6.765ZM810.996 6.765V0.765H804.996V6.765H810.996ZM810.996 8.041H804.996V14.041H810.996V8.041ZM812.745 8.041H818.745V2.041H812.745V8.041ZM812.745 9.482L815.239 14.9388L818.745 13.3364V9.482H812.745ZM813.482 5.225L809.91 10.0463L814.668 13.5707L818.255 8.85994L813.482 5.225ZM814.395 4.026L819.168 7.66094L823.004 2.62425L817.769 -0.935557L814.395 4.026ZM811.37 17.143C813.45 17.143 815.535 16.5887 817.302 15.5656L811.29 5.18044C811.327 5.15893 811.351 5.14842 811.361 5.14441C811.371 5.14031 811.373 5.13998 811.369 5.14103C811.365 5.14204 811.361 5.14289 811.358 5.14331C811.355 5.14373 811.358 5.143 811.37 5.143V17.143ZM820.296 10.373V6.765H808.296V10.373H820.296ZM814.296 0.765H810.996V12.765H814.296V0.765ZM804.996 6.765V8.041H816.996V6.765H804.996ZM810.996 14.041H812.745V2.041H810.996V14.041ZM806.745 8.041V9.482H818.745V8.041H806.745ZM810.25 4.02515C810.721 3.81009 811.12 3.757 811.403 3.757V15.757C812.675 15.757 813.999 15.5059 815.239 14.9388L810.25 4.02515ZM811.403 3.757C812.059 3.757 813.216 4.02173 814.15 5.05715C815.008 6.00879 815.093 6.96362 815.093 7.249H803.093C803.093 9.06338 803.595 11.2722 805.24 13.0956C806.961 15.0028 809.273 15.757 811.403 15.757V3.757ZM815.093 7.249V7.227H803.093V7.249H815.093ZM815.093 7.227C815.093 7.40653 815.048 8.30387 814.233 9.24273C813.309 10.3088 812.138 10.576 811.513 10.576V-1.424C809.282 -1.424 806.901 -0.617832 805.168 1.38051C803.545 3.25163 803.093 5.47447 803.093 7.227H815.093ZM811.513 10.576C811.265 10.576 810.981 10.5383 810.684 10.4417C810.385 10.3446 810.123 10.2042 809.91 10.0463L817.053 0.403654C815.395 -0.824429 813.464 -1.424 811.513 -1.424V10.576ZM818.255 8.85994L819.168 7.66094L809.621 0.39106L808.708 1.59006L818.255 8.85994ZM817.769 -0.935557C815.96 -2.16514 813.808 -2.854 811.502 -2.854V9.146C811.455 9.146 811.373 9.13823 811.272 9.10712C811.173 9.07632 811.087 9.03246 811.021 8.98756L817.769 -0.935557ZM811.502 -2.854C808.882 -2.854 806.213 -1.97641 804.193 0.0704831C802.19 2.10094 801.366 4.73466 801.366 7.238H813.366C813.366 7.32134 813.317 7.90906 812.735 8.49852C812.138 9.1044 811.537 9.146 811.502 9.146V-2.854ZM801.366 7.238V7.26H813.366V7.238H801.366ZM801.366 7.26C801.366 9.78913 802.233 12.3978 804.257 14.3735C806.268 16.3371 808.874 17.143 811.37 17.143V5.143C811.412 5.143 812.016 5.17886 812.639 5.78678C813.274 6.40674 813.366 7.07387 813.366 7.26H801.366ZM816.294 11H810.294V17H816.294V11ZM817.988 11V17H823.988V11H817.988ZM817.988 7.854V1.854H811.988V7.854H817.988ZM820.98 7.854H826.98V1.854H820.98V7.854ZM820.98 11H814.98V17H820.98V11ZM822.674 11V17H828.674V11H822.674ZM822.674 3.3H828.674V-2.7H822.674V3.3ZM820.98 3.3V-2.7H814.98V3.3H820.98ZM820.98 6.358V12.358H826.98V6.358H820.98ZM817.988 6.358H811.988V12.358H817.988V6.358ZM817.988 3.3H823.988V-2.7H817.988V3.3ZM816.294 3.3V-2.7H810.294V3.3H816.294ZM816.294 17H817.988V5H816.294V17ZM823.988 11V7.854H811.988V11H823.988ZM817.988 13.854H820.98V1.854H817.988V13.854ZM814.98 7.854V11H826.98V7.854H814.98ZM820.98 17H822.674V5H820.98V17ZM828.674 11V3.3H816.674V11H828.674ZM822.674 -2.7H820.98V9.3H822.674V-2.7ZM814.98 3.3V6.358H826.98V3.3H814.98ZM820.98 0.358H817.988V12.358H820.98V0.358ZM823.988 6.358V3.3H811.988V6.358H823.988ZM817.988 -2.7H816.294V9.3H817.988V-2.7ZM810.294 3.3V11H822.294V3.3H810.294ZM829.869 11L824.206 12.9821L825.612 17H829.869V11ZM831.574 11V17H835.825L837.234 12.9893L831.574 11ZM834.28 3.3L839.94 5.2893L842.748 -2.7H834.28V3.3ZM832.608 3.3V-2.7H828.238L826.897 1.45862L832.608 3.3ZM830.76 9.031V15.031H835.129L836.47 10.8724L830.76 9.031ZM830.716 9.031L825.009 10.8823L826.354 15.031H830.716V9.031ZM828.857 3.3L834.564 1.4487L833.218 -2.7H828.857V3.3ZM827.174 3.3V-2.7H818.717L821.511 5.2821L827.174 3.3ZM829.869 17H831.574V5H829.869V17ZM837.234 12.9893L839.94 5.2893L828.619 1.31069L825.913 9.01069L837.234 12.9893ZM834.28 -2.7H832.608V9.3H834.28V-2.7ZM826.897 1.45862L825.049 7.18962L836.47 10.8724L838.318 5.14138L826.897 1.45862ZM830.76 3.031H830.716V15.031H830.76V3.031ZM836.423 7.1797L834.564 1.4487L823.15 5.1513L825.009 10.8823L836.423 7.1797ZM828.857 -2.7H827.174V9.3H828.857V-2.7ZM821.511 5.2821L824.206 12.9821L835.532 9.0179L832.837 1.3179L821.511 5.2821ZM838.961 17.154C841.497 17.154 844.079 16.2615 846.029 14.2688C847.972 12.2827 848.811 9.69211 848.811 7.161H836.811C836.811 7.07189 836.863 6.47784 837.45 5.87767C838.044 5.27096 838.701 5.154 838.961 5.154V17.154ZM848.811 7.161V7.139H836.811V7.161H848.811ZM848.811 7.139C848.811 4.60763 847.968 2.02199 846.033 0.0395509C844.09 -1.95089 841.51 -2.854 838.961 -2.854V9.146C838.689 9.146 838.034 9.02389 837.446 8.4222C836.867 7.82851 836.811 7.23938 836.811 7.139H848.811ZM838.961 -2.854C836.412 -2.854 833.832 -1.95089 831.888 0.0395507C829.953 2.02199 829.111 4.60763 829.111 7.139H841.111C841.111 7.23938 841.055 7.82851 840.475 8.4222C839.888 9.02389 839.233 9.146 838.961 9.146V-2.854ZM829.111 7.139V7.161H841.111V7.139H829.111ZM829.111 7.161C829.111 9.69211 829.95 12.2827 831.893 14.2688C833.842 16.2615 836.424 17.154 838.961 17.154V5.154C839.22 5.154 839.877 5.27096 840.471 5.87767C841.058 6.47784 841.111 7.07189 841.111 7.161H829.111ZM838.961 3.746C839.954 3.746 841.194 4.19321 842.064 5.25999C842.817 6.18309 842.849 7.01982 842.849 7.161H830.849C830.849 8.89718 831.282 11.0264 832.764 12.8433C834.362 14.8038 836.659 15.746 838.961 15.746V3.746ZM842.849 7.161V7.139H830.849V7.161H842.849ZM842.849 7.139C842.849 7.29421 842.813 8.12311 842.07 9.03713C841.211 10.0937 839.975 10.554 838.961 10.554V-1.446C836.637 -1.446 834.346 -0.485173 832.758 1.46787C831.286 3.27839 830.849 5.39979 830.849 7.139H842.849ZM838.961 10.554C837.968 10.554 836.733 10.1057 835.868 9.04571C835.12 8.12822 835.084 7.29386 835.084 7.139H847.084C847.084 5.40014 846.646 3.27328 845.166 1.45929C843.57 -0.49721 841.274 -1.446 838.961 -1.446V10.554ZM835.084 7.139V7.161H847.084V7.139H835.084ZM835.084 7.161C835.084 7.0202 835.116 6.17797 835.874 5.25142C836.75 4.18133 837.989 3.746 838.961 3.746V15.746C841.252 15.746 843.553 14.8157 845.16 12.8518C846.65 11.0315 847.084 8.8968 847.084 7.161H835.084ZM844.651 11H838.651V17H844.651V11ZM850.063 11V17H856.063V11H850.063ZM850.063 9.526H856.063V3.526H850.063V9.526ZM846.345 9.526H840.345V15.526H846.345V9.526ZM846.345 3.3H852.345V-2.7H846.345V3.3ZM844.651 3.3V-2.7H838.651V3.3H844.651ZM844.651 17H850.063V5H844.651V17ZM856.063 11V9.526H844.063V11H856.063ZM850.063 3.526H846.345V15.526H850.063V3.526ZM852.345 9.526V3.3H840.345V9.526H852.345ZM846.345 -2.7H844.651V9.3H846.345V-2.7ZM838.651 3.3V11H850.651V3.3H838.651ZM852.494 11H846.494V17H852.494V11ZM854.188 11V17H860.188V11H854.188ZM854.188 4.785V-1.215H848.188V4.785H854.188ZM856.619 4.785V10.785H862.619V4.785H856.619ZM856.619 3.3H862.619V-2.7H856.619V3.3ZM850.052 3.3V-2.7H844.052V3.3H850.052ZM850.052 4.785H844.052V10.785H850.052V4.785ZM852.494 4.785H858.494V-1.215H852.494V4.785ZM852.494 17H854.188V5H852.494V17ZM860.188 11V4.785H848.188V11H860.188ZM854.188 10.785H856.619V-1.215H854.188V10.785ZM862.619 4.785V3.3H850.619V4.785H862.619ZM856.619 -2.7H850.052V9.3H856.619V-2.7ZM844.052 3.3V4.785H856.052V3.3H844.052ZM850.052 10.785H852.494V-1.215H850.052V10.785ZM846.494 4.785V11H858.494V4.785H846.494ZM856.691 11L851.03 9.0107L848.223 17H856.691V11ZM858.363 11V17H862.731L864.073 12.8433L858.363 11ZM858.814 9.603V3.603H854.446L853.104 7.75967L858.814 9.603ZM861.927 9.603L867.637 7.75967L866.295 3.603H861.927V9.603ZM862.378 11L856.668 12.8433L858.01 17H862.378V11ZM864.061 11V17H872.529L869.722 9.01069L864.061 11ZM861.355 3.3L867.016 1.31069L865.606 -2.7H861.355V3.3ZM859.397 3.3V-2.7H855.146L853.736 1.31069L859.397 3.3ZM860.343 4.884V-1.116H855.978L854.634 3.03659L860.343 4.884ZM860.398 4.884L866.106 3.03659L864.763 -1.116H860.398V4.884ZM861.498 8.283V14.283H869.746L867.206 6.43559L861.498 8.283ZM859.243 8.283L853.534 6.43559L850.995 14.283H859.243V8.283ZM856.691 17H858.363V5H856.691V17ZM864.073 12.8433L864.524 11.4463L853.104 7.75967L852.653 9.15667L864.073 12.8433ZM858.814 15.603H861.927V3.603H858.814V15.603ZM856.217 11.4463L856.668 12.8433L868.088 9.15667L867.637 7.75967L856.217 11.4463ZM862.378 17H864.061V5H862.378V17ZM869.722 9.01069L867.016 1.31069L855.694 5.2893L858.4 12.9893L869.722 9.01069ZM861.355 -2.7H859.397V9.3H861.355V-2.7ZM853.736 1.31069L851.03 9.0107L862.352 12.9893L865.058 5.2893L853.736 1.31069ZM860.343 10.884H860.398V-1.116H860.343V10.884ZM854.689 6.73141L855.789 10.1304L867.206 6.43559L866.106 3.03659L854.689 6.73141ZM861.498 2.283H859.243V14.283H861.498V2.283ZM864.951 10.1304L866.051 6.73141L854.634 3.03659L853.534 6.43559L864.951 10.1304ZM871.848 10.373L874.854 15.5656L877.848 13.8323V10.373H871.848ZM871.848 6.765H877.848V0.765H871.848V6.765ZM868.548 6.765V0.765H862.548V6.765H868.548ZM868.548 8.041H862.548V14.041H868.548V8.041ZM870.297 8.041H876.297V2.041H870.297V8.041ZM870.297 9.482L872.792 14.9388L876.297 13.3364V9.482H870.297ZM871.034 5.225L867.463 10.0463L872.221 13.5707L875.808 8.85994L871.034 5.225ZM871.947 4.026L876.721 7.66094L880.556 2.62425L875.321 -0.935557L871.947 4.026ZM868.922 17.143C871.002 17.143 873.087 16.5887 874.854 15.5656L868.842 5.18044C868.879 5.15893 868.903 5.14842 868.913 5.14441C868.923 5.14031 868.925 5.13998 868.921 5.14103C868.918 5.14204 868.913 5.14289 868.91 5.14331C868.907 5.14373 868.91 5.143 868.922 5.143V17.143ZM877.848 10.373V6.765H865.848V10.373H877.848ZM871.848 0.765H868.548V12.765H871.848V0.765ZM862.548 6.765V8.041H874.548V6.765H862.548ZM868.548 14.041H870.297V2.041H868.548V14.041ZM864.297 8.041V9.482H876.297V8.041H864.297ZM867.802 4.02515C868.273 3.81009 868.673 3.757 868.955 3.757V15.757C870.227 15.757 871.551 15.5059 872.792 14.9388L867.802 4.02515ZM868.955 3.757C869.611 3.757 870.768 4.02173 871.702 5.05715C872.561 6.00879 872.645 6.96362 872.645 7.249H860.645C860.645 9.06338 861.147 11.2722 862.792 13.0956C864.513 15.0028 866.825 15.757 868.955 15.757V3.757ZM872.645 7.249V7.227H860.645V7.249H872.645ZM872.645 7.227C872.645 7.40653 872.6 8.30387 871.786 9.24273C870.861 10.3088 869.69 10.576 869.065 10.576V-1.424C866.834 -1.424 864.453 -0.617832 862.72 1.38051C861.097 3.25163 860.645 5.47447 860.645 7.227H872.645ZM869.065 10.576C868.818 10.576 868.533 10.5383 868.236 10.4417C867.937 10.3446 867.676 10.2042 867.463 10.0463L874.605 0.403654C872.948 -0.824429 871.017 -1.424 869.065 -1.424V10.576ZM875.808 8.85994L876.721 7.66094L867.173 0.39106L866.26 1.59006L875.808 8.85994ZM875.321 -0.935557C873.513 -2.16514 871.361 -2.854 869.054 -2.854V9.146C869.007 9.146 868.925 9.13823 868.825 9.10712C868.725 9.07632 868.639 9.03246 868.573 8.98756L875.321 -0.935557ZM869.054 -2.854C866.434 -2.854 863.765 -1.97641 861.746 0.0704831C859.742 2.10094 858.918 4.73466 858.918 7.238H870.918C870.918 7.32134 870.869 7.90906 870.288 8.49852C869.69 9.1044 869.089 9.146 869.054 9.146V-2.854ZM858.918 7.238V7.26H870.918V7.238H858.918ZM858.918 7.26C858.918 9.78913 859.785 12.3978 861.809 14.3735C863.82 16.3371 866.427 17.143 868.922 17.143V5.143C868.964 5.143 869.569 5.17886 870.192 5.78678C870.827 6.40674 870.918 7.07387 870.918 7.26H858.918ZM873.846 11H867.846V17H873.846V11ZM879.368 11V17H885.368V11H879.368ZM879.368 9.548H885.368V3.548H879.368V9.548ZM875.54 9.548H869.54V15.548H875.54V9.548ZM875.54 7.744V1.744H869.54V7.744H875.54ZM878.851 7.744V13.744H884.851V7.744H878.851ZM878.851 6.446H884.851V0.446H878.851V6.446ZM875.54 6.446H869.54V12.446H875.54V6.446ZM875.54 4.752V-1.248H869.54V4.752H875.54ZM879.302 4.752V10.752H885.302V4.752H879.302ZM879.302 3.3H885.302V-2.7H879.302V3.3ZM873.846 3.3V-2.7H867.846V3.3H873.846ZM873.846 17H879.368V5H873.846V17ZM885.368 11V9.548H873.368V11H885.368ZM879.368 3.548H875.54V15.548H879.368V3.548ZM881.54 9.548V7.744H869.54V9.548H881.54ZM875.54 13.744H878.851V1.744H875.54V13.744ZM884.851 7.744V6.446H872.851V7.744H884.851ZM878.851 0.446H875.54V12.446H878.851V0.446ZM881.54 6.446V4.752H869.54V6.446H881.54ZM875.54 10.752H879.302V-1.248H875.54V10.752ZM885.302 4.752V3.3H873.302V4.752H885.302ZM879.302 -2.7H873.846V9.3H879.302V-2.7ZM867.846 3.3V11H879.846V3.3H867.846ZM881.602 8.569L875.648 9.31321L876.305 14.569H881.602V8.569ZM882.416 8.569V14.569H887.712L888.369 9.31321L882.416 8.569ZM882.581 7.249L876.636 6.43312L876.631 6.46893L876.627 6.50479L882.581 7.249ZM882.933 3.3H888.933V-2.7H882.933V3.3ZM881.096 3.3V-2.7H875.096V3.3H881.096ZM881.437 7.249L887.39 6.50479L887.388 6.48552L887.385 6.46627L881.437 7.249ZM881.118 11H875.118V17H881.118V11ZM882.9 11V17H888.9V11H882.9ZM882.9 9.295H888.9V3.295H882.9V9.295ZM881.118 9.295V3.295H875.118V9.295H881.118ZM881.602 14.569H882.416V2.569H881.602V14.569ZM888.369 9.31321L888.534 7.99321L876.627 6.50479L876.462 7.82479L888.369 9.31321ZM888.525 8.06488C888.76 6.34869 888.933 4.90373 888.933 3.3H876.933C876.933 4.02827 876.863 4.78331 876.636 6.43312L888.525 8.06488ZM882.933 -2.7H881.096V9.3H882.933V-2.7ZM875.096 3.3C875.096 4.90501 875.266 6.34604 875.488 8.03173L887.385 6.46627C887.167 4.80796 887.096 4.04899 887.096 3.3H875.096ZM875.483 7.99321L875.648 9.31321L887.555 7.82479L887.39 6.50479L875.483 7.99321ZM881.118 17H882.9V5H881.118V17ZM888.9 11V9.295H876.9V11H888.9ZM882.9 3.295H881.118V15.295H882.9V3.295ZM875.118 9.295V11H887.118V9.295H875.118Z" fill="white"/>
<path d="M74.7218 11H76.4158V7.854H79.4078V11H81.1018V3.3H79.4078V6.358H76.4158V3.3H74.7218V11ZM83.3499 11H85.0439V3.3H83.3499V11ZM90.8697 11.143C91.9147 11.143 92.9597 10.857 93.7957 10.373V6.765H90.4957V8.041H92.2447V9.482C91.8597 9.658 91.3977 9.757 90.9027 9.757C89.4287 9.757 88.5927 8.778 88.5927 7.249V7.227C88.5927 5.654 89.4067 4.576 91.0127 4.576C91.7167 4.576 92.3877 4.785 92.9817 5.225L93.8947 4.026C93.0697 3.465 92.0907 3.146 91.0017 3.146C88.4167 3.146 86.8657 4.818 86.8657 7.238V7.26C86.8657 9.603 88.4167 11.143 90.8697 11.143ZM95.7937 11H97.4877V7.854H100.48V11H102.174V3.3H100.48V6.358H97.4877V3.3H95.7937V11ZM109.369 11H111.074L113.78 3.3H112.108L110.26 9.031H110.216L108.357 3.3H106.674L109.369 11ZM118.461 11.154C120.738 11.154 122.311 9.603 122.311 7.161V7.139C122.311 4.708 120.738 3.146 118.461 3.146C116.184 3.146 114.611 4.708 114.611 7.139V7.161C114.611 9.603 116.184 11.154 118.461 11.154ZM118.461 9.746C117.152 9.746 116.349 8.756 116.349 7.161V7.139C116.349 5.555 117.152 4.554 118.461 4.554C119.781 4.554 120.584 5.555 120.584 7.139V7.161C120.584 8.756 119.781 9.746 118.461 9.746ZM124.151 11H129.563V9.526H125.845V3.3H124.151V11ZM131.994 11H133.688V4.785H136.119V3.3H129.552V4.785H131.994V11ZM136.191 11H137.863L138.314 9.603H141.427L141.878 11H143.561L140.855 3.3H138.897L136.191 11ZM139.843 4.884H139.898L140.998 8.283H138.743L139.843 4.884ZM148.422 11.143C149.467 11.143 150.512 10.857 151.348 10.373V6.765H148.048V8.041H149.797V9.482C149.412 9.658 148.95 9.757 148.455 9.757C146.981 9.757 146.145 8.778 146.145 7.249V7.227C146.145 5.654 146.959 4.576 148.565 4.576C149.269 4.576 149.94 4.785 150.534 5.225L151.447 4.026C150.622 3.465 149.643 3.146 148.554 3.146C145.969 3.146 144.418 4.818 144.418 7.238V7.26C144.418 9.603 145.969 11.143 148.422 11.143ZM153.346 11H158.868V9.548H155.04V7.744H158.351V6.446H155.04V4.752H158.802V3.3H153.346V11ZM161.102 8.569H161.916L162.081 7.249C162.312 5.566 162.433 4.466 162.433 3.3H160.596C160.596 4.477 160.717 5.577 160.937 7.249L161.102 8.569ZM160.618 11H162.4V9.295H160.618V11Z" fill="#BF2E00"/>
<path d="M254.722 11H256.416V7.854H259.408V11H261.102V3.3H259.408V6.358H256.416V3.3H254.722V11ZM263.35 11H265.044V3.3H263.35V11ZM270.87 11.143C271.915 11.143 272.96 10.857 273.796 10.373V6.765H270.496V8.041H272.245V9.482C271.86 9.658 271.398 9.757 270.903 9.757C269.429 9.757 268.593 8.778 268.593 7.249V7.227C268.593 5.654 269.407 4.576 271.013 4.576C271.717 4.576 272.388 4.785 272.982 5.225L273.895 4.026C273.07 3.465 272.091 3.146 271.002 3.146C268.417 3.146 266.866 4.818 266.866 7.238V7.26C266.866 9.603 268.417 11.143 270.87 11.143ZM275.794 11H277.488V7.854H280.48V11H282.174V3.3H280.48V6.358H277.488V3.3H275.794V11ZM289.369 11H291.074L293.78 3.3H292.108L290.26 9.031H290.216L288.357 3.3H286.674L289.369 11ZM298.461 11.154C300.738 11.154 302.311 9.603 302.311 7.161V7.139C302.311 4.708 300.738 3.146 298.461 3.146C296.184 3.146 294.611 4.708 294.611 7.139V7.161C294.611 9.603 296.184 11.154 298.461 11.154ZM298.461 9.746C297.152 9.746 296.349 8.756 296.349 7.161V7.139C296.349 5.555 297.152 4.554 298.461 4.554C299.781 4.554 300.584 5.555 300.584 7.139V7.161C300.584 8.756 299.781 9.746 298.461 9.746ZM304.151 11H309.563V9.526H305.845V3.3H304.151V11ZM311.994 11H313.688V4.785H316.119V3.3H309.552V4.785H311.994V11ZM316.191 11H317.863L318.314 9.603H321.427L321.878 11H323.561L320.855 3.3H318.897L316.191 11ZM319.843 4.884H319.898L320.998 8.283H318.743L319.843 4.884ZM328.422 11.143C329.467 11.143 330.512 10.857 331.348 10.373V6.765H328.048V8.041H329.797V9.482C329.412 9.658 328.95 9.757 328.455 9.757C326.981 9.757 326.145 8.778 326.145 7.249V7.227C326.145 5.654 326.959 4.576 328.565 4.576C329.269 4.576 329.94 4.785 330.534 5.225L331.447 4.026C330.622 3.465 329.643 3.146 328.554 3.146C325.969 3.146 324.418 4.818 324.418 7.238V7.26C324.418 9.603 325.969 11.143 328.422 11.143ZM333.346 11H338.868V9.548H335.04V7.744H338.351V6.446H335.04V4.752H338.802V3.3H333.346V11ZM341.102 8.569H341.916L342.081 7.249C342.312 5.566 342.433 4.466 342.433 3.3H340.596C340.596 4.477 340.717 5.577 340.937 7.249L341.102 8.569ZM340.618 11H342.4V9.295H340.618V11Z" fill="#BF2E00"/>
<path d="M615.722 11H617.416V7.854H620.408V11H622.102V3.3H620.408V6.358H617.416V3.3H615.722V11ZM624.35 11H626.044V3.3H624.35V11ZM631.87 11.143C632.915 11.143 633.96 10.857 634.796 10.373V6.765H631.496V8.041H633.245V9.482C632.86 9.658 632.398 9.757 631.903 9.757C630.429 9.757 629.593 8.778 629.593 7.249V7.227C629.593 5.654 630.407 4.576 632.013 4.576C632.717 4.576 633.388 4.785 633.982 5.225L634.895 4.026C634.07 3.465 633.091 3.146 632.002 3.146C629.417 3.146 627.866 4.818 627.866 7.238V7.26C627.866 9.603 629.417 11.143 631.87 11.143ZM636.794 11H638.488V7.854H641.48V11H643.174V3.3H641.48V6.358H638.488V3.3H636.794V11ZM650.369 11H652.074L654.78 3.3H653.108L651.26 9.031H651.216L649.357 3.3H647.674L650.369 11ZM659.461 11.154C661.738 11.154 663.311 9.603 663.311 7.161V7.139C663.311 4.708 661.738 3.146 659.461 3.146C657.184 3.146 655.611 4.708 655.611 7.139V7.161C655.611 9.603 657.184 11.154 659.461 11.154ZM659.461 9.746C658.152 9.746 657.349 8.756 657.349 7.161V7.139C657.349 5.555 658.152 4.554 659.461 4.554C660.781 4.554 661.584 5.555 661.584 7.139V7.161C661.584 8.756 660.781 9.746 659.461 9.746ZM665.151 11H670.563V9.526H666.845V3.3H665.151V11ZM672.994 11H674.688V4.785H677.119V3.3H670.552V4.785H672.994V11ZM677.191 11H678.863L679.314 9.603H682.427L682.878 11H684.561L681.855 3.3H679.897L677.191 11ZM680.843 4.884H680.898L681.998 8.283H679.743L680.843 4.884ZM689.422 11.143C690.467 11.143 691.512 10.857 692.348 10.373V6.765H689.048V8.041H690.797V9.482C690.412 9.658 689.95 9.757 689.455 9.757C687.981 9.757 687.145 8.778 687.145 7.249V7.227C687.145 5.654 687.959 4.576 689.565 4.576C690.269 4.576 690.94 4.785 691.534 5.225L692.447 4.026C691.622 3.465 690.643 3.146 689.554 3.146C686.969 3.146 685.418 4.818 685.418 7.238V7.26C685.418 9.603 686.969 11.143 689.422 11.143ZM694.346 11H699.868V9.548H696.04V7.744H699.351V6.446H696.04V4.752H699.802V3.3H694.346V11ZM702.102 8.569H702.916L703.081 7.249C703.312 5.566 703.433 4.466 703.433 3.3H701.596C701.596 4.477 701.717 5.577 701.937 7.249L702.102 8.569ZM701.618 11H703.4V9.295H701.618V11Z" fill="#BF2E00"/>
<path d="M795.722 11H797.416V7.854H800.408V11H802.102V3.3H800.408V6.358H797.416V3.3H795.722V11ZM804.35 11H806.044V3.3H804.35V11ZM811.87 11.143C812.915 11.143 813.96 10.857 814.796 10.373V6.765H811.496V8.041H813.245V9.482C812.86 9.658 812.398 9.757 811.903 9.757C810.429 9.757 809.593 8.778 809.593 7.249V7.227C809.593 5.654 810.407 4.576 812.013 4.576C812.717 4.576 813.388 4.785 813.982 5.225L814.895 4.026C814.07 3.465 813.091 3.146 812.002 3.146C809.417 3.146 807.866 4.818 807.866 7.238V7.26C807.866 9.603 809.417 11.143 811.87 11.143ZM816.794 11H818.488V7.854H821.48V11H823.174V3.3H821.48V6.358H818.488V3.3H816.794V11ZM830.369 11H832.074L834.78 3.3H833.108L831.26 9.031H831.216L829.357 3.3H827.674L830.369 11ZM839.461 11.154C841.738 11.154 843.311 9.603 843.311 7.161V7.139C843.311 4.708 841.738 3.146 839.461 3.146C837.184 3.146 835.611 4.708 835.611 7.139V7.161C835.611 9.603 837.184 11.154 839.461 11.154ZM839.461 9.746C838.152 9.746 837.349 8.756 837.349 7.161V7.139C837.349 5.555 838.152 4.554 839.461 4.554C840.781 4.554 841.584 5.555 841.584 7.139V7.161C841.584 8.756 840.781 9.746 839.461 9.746ZM845.151 11H850.563V9.526H846.845V3.3H845.151V11ZM852.994 11H854.688V4.785H857.119V3.3H850.552V4.785H852.994V11ZM857.191 11H858.863L859.314 9.603H862.427L862.878 11H864.561L861.855 3.3H859.897L857.191 11ZM860.843 4.884H860.898L861.998 8.283H859.743L860.843 4.884ZM869.422 11.143C870.467 11.143 871.512 10.857 872.348 10.373V6.765H869.048V8.041H870.797V9.482C870.412 9.658 869.95 9.757 869.455 9.757C867.981 9.757 867.145 8.778 867.145 7.249V7.227C867.145 5.654 867.959 4.576 869.565 4.576C870.269 4.576 870.94 4.785 871.534 5.225L872.447 4.026C871.622 3.465 870.643 3.146 869.554 3.146C866.969 3.146 865.418 4.818 865.418 7.238V7.26C865.418 9.603 866.969 11.143 869.422 11.143ZM874.346 11H879.868V9.548H876.04V7.744H879.351V6.446H876.04V4.752H879.802V3.3H874.346V11ZM882.102 8.569H882.916L883.081 7.249C883.312 5.566 883.433 4.466 883.433 3.3H881.596C881.596 4.477 881.717 5.577 881.937 7.249L882.102 8.569ZM881.618 11H883.4V9.295H881.618V11Z" fill="#BF2E00"/>
<path d="M435.722 11H437.416V7.854H440.408V11H442.102V3.3H440.408V6.358H437.416V3.3H435.722V11ZM444.35 11H446.044V3.3H444.35V11ZM451.87 11.143C452.915 11.143 453.96 10.857 454.796 10.373V6.765H451.496V8.041H453.245V9.482C452.86 9.658 452.398 9.757 451.903 9.757C450.429 9.757 449.593 8.778 449.593 7.249V7.227C449.593 5.654 450.407 4.576 452.013 4.576C452.717 4.576 453.388 4.785 453.982 5.225L454.895 4.026C454.07 3.465 453.091 3.146 452.002 3.146C449.417 3.146 447.866 4.818 447.866 7.238V7.26C447.866 9.603 449.417 11.143 451.87 11.143ZM456.794 11H458.488V7.854H461.48V11H463.174V3.3H461.48V6.358H458.488V3.3H456.794V11ZM470.369 11H472.074L474.78 3.3H473.108L471.26 9.031H471.216L469.357 3.3H467.674L470.369 11ZM479.461 11.154C481.738 11.154 483.311 9.603 483.311 7.161V7.139C483.311 4.708 481.738 3.146 479.461 3.146C477.184 3.146 475.611 4.708 475.611 7.139V7.161C475.611 9.603 477.184 11.154 479.461 11.154ZM479.461 9.746C478.152 9.746 477.349 8.756 477.349 7.161V7.139C477.349 5.555 478.152 4.554 479.461 4.554C480.781 4.554 481.584 5.555 481.584 7.139V7.161C481.584 8.756 480.781 9.746 479.461 9.746ZM485.151 11H490.563V9.526H486.845V3.3H485.151V11ZM492.994 11H494.688V4.785H497.119V3.3H490.552V4.785H492.994V11ZM497.191 11H498.863L499.314 9.603H502.427L502.878 11H504.561L501.855 3.3H499.897L497.191 11ZM500.843 4.884H500.898L501.998 8.283H499.743L500.843 4.884ZM509.422 11.143C510.467 11.143 511.512 10.857 512.348 10.373V6.765H509.048V8.041H510.797V9.482C510.412 9.658 509.95 9.757 509.455 9.757C507.981 9.757 507.145 8.778 507.145 7.249V7.227C507.145 5.654 507.959 4.576 509.565 4.576C510.269 4.576 510.94 4.785 511.534 5.225L512.447 4.026C511.622 3.465 510.643 3.146 509.554 3.146C506.969 3.146 505.418 4.818 505.418 7.238V7.26C505.418 9.603 506.969 11.143 509.422 11.143ZM514.346 11H519.868V9.548H516.04V7.744H519.351V6.446H516.04V4.752H519.802V3.3H514.346V11ZM522.102 8.569H522.916L523.081 7.249C523.312 5.566 523.433 4.466 523.433 3.3H521.596C521.596 4.477 521.717 5.577 521.937 7.249L522.102 8.569ZM521.618 11H523.4V9.295H521.618V11Z" fill="#BF2E00"/>
</g>
</svg>
