<?xml version="1.0" encoding="UTF-8" standalone="no"?>
<!DOCTYPE svg PUBLIC "-//W3C//DTD SVG 1.1//EN" "http://www.w3.org/Graphics/SVG/1.1/DTD/svg11.dtd">
<svg width="24" height="24" viewBox="0 0 24 24" version="1.1" xmlns="http://www.w3.org/2000/svg" xmlns:xlink="http://www.w3.org/1999/xlink" xml:space="preserve" xmlns:serif="http://www.serif.com/" style="fill-rule:evenodd;clip-rule:evenodd;stroke-linejoin:round;stroke-miterlimit:2;">
    <path d="M12,24C18.627,24 24,18.627 24,12C24,5.373 18.627,0 12,0C5.373,0 0,5.373 0,12C0,18.627 5.373,24 12,24Z" style="fill:white;"/>
    <path d="M12,24C18.627,24 24,18.627 24,12C24,5.373 18.627,0 12,0C5.373,0 0,5.373 0,12C0,18.627 5.373,24 12,24ZM14.829,6.303C14.09,6.269 13.869,6.262 12,6.262L12.001,6.261C10.132,6.261 9.911,6.268 9.172,6.302C8.49,6.333 8.119,6.447 7.873,6.543C7.568,6.655 7.293,6.834 7.067,7.067C6.834,7.293 6.655,7.568 6.543,7.872C6.447,8.119 6.333,8.49 6.302,9.172C6.268,9.91 6.261,10.132 6.261,12.001C6.261,13.87 6.268,14.091 6.302,14.829C6.333,15.511 6.447,15.882 6.543,16.129C6.655,16.433 6.834,16.709 7.067,16.935C7.293,17.167 7.568,17.346 7.873,17.458C8.119,17.554 8.49,17.668 9.172,17.699C9.91,17.733 10.132,17.74 12.001,17.74C13.87,17.74 14.092,17.733 14.83,17.699C15.512,17.668 15.883,17.554 16.13,17.458C16.432,17.342 16.706,17.163 16.934,16.935C17.163,16.706 17.342,16.432 17.458,16.13C17.554,15.883 17.668,15.512 17.699,14.83C17.733,14.092 17.74,13.871 17.74,12.002C17.74,10.133 17.733,9.911 17.699,9.173C17.668,8.491 17.554,8.12 17.458,7.873C17.346,7.569 17.167,7.294 16.934,7.068C16.708,6.835 16.433,6.656 16.128,6.544C15.882,6.448 15.511,6.334 14.829,6.303ZM9.115,5.042C9.862,5.008 10.1,5 12.001,5L12,5.001C13.901,5.001 14.141,5.009 14.886,5.043C15.631,5.077 16.14,5.196 16.585,5.368C17.052,5.544 17.475,5.82 17.825,6.176C18.181,6.526 18.457,6.949 18.632,7.416C18.805,7.861 18.924,8.367 18.958,9.114C18.992,9.861 19,10.099 19,12C19,13.901 18.992,14.141 18.958,14.886C18.924,15.631 18.805,16.14 18.632,16.585C18.453,17.05 18.178,17.473 17.825,17.825C17.472,18.178 17.05,18.453 16.585,18.632C16.14,18.805 15.633,18.924 14.887,18.958C14.14,18.992 13.902,19 12.001,19C10.099,19 9.859,18.992 9.114,18.958C8.369,18.924 7.86,18.805 7.415,18.632C6.948,18.457 6.525,18.181 6.175,17.825C5.819,17.475 5.543,17.052 5.367,16.585C5.195,16.14 5.076,15.633 5.042,14.887C5.008,14.14 5,13.902 5,12.001C5,10.1 5.008,9.86 5.042,9.115C5.076,8.37 5.195,7.861 5.367,7.416C5.543,6.949 5.819,6.526 6.175,6.176C6.525,5.82 6.948,5.544 7.415,5.368C7.86,5.196 8.368,5.076 9.115,5.042ZM12,8.5C11.308,8.5 10.631,8.705 10.056,9.09C9.48,9.474 9.031,10.021 8.766,10.661C8.502,11.3 8.432,12.004 8.567,12.683C8.702,13.362 9.036,13.985 9.525,14.475C10.015,14.964 10.638,15.298 11.317,15.433C11.996,15.568 12.7,15.499 13.339,15.234C13.979,14.969 14.526,14.52 14.91,13.945C15.295,13.369 15.5,12.692 15.5,12C15.5,11.54 15.41,11.085 15.234,10.661C15.058,10.236 14.8,9.85 14.475,9.525C14.15,9.2 13.764,8.942 13.339,8.766C12.915,8.59 12.46,8.5 12,8.5ZM12,14.273C11.551,14.273 11.111,14.139 10.737,13.89C10.364,13.64 10.072,13.285 9.9,12.87C9.728,12.454 9.683,11.998 9.771,11.557C9.859,11.116 10.075,10.711 10.393,10.393C10.711,10.075 11.116,9.859 11.557,9.771C11.998,9.683 12.454,9.728 12.87,9.9C13.285,10.072 13.64,10.364 13.89,10.737C14.139,11.111 14.273,11.551 14.273,12C14.273,12.603 14.033,13.181 13.607,13.607C13.181,14.033 12.603,14.273 12,14.273ZM16.667,7.917C16.667,8.239 16.406,8.5 16.083,8.5C15.761,8.5 15.5,8.239 15.5,7.917C15.5,7.595 15.761,7.333 16.083,7.333C16.406,7.333 16.667,7.595 16.667,7.917Z" style="fill:rgb(217,86,92);"/>
</svg>
