<svg width="24" height="24" viewBox="0 0 24 24" fill="none" xmlns="http://www.w3.org/2000/svg">
<path fill-rule="evenodd" clip-rule="evenodd" d="M12 24C18.6274 24 24 18.6274 24 12C24 5.37258 18.6274 0 12 0C5.37258 0 0 5.37258 0 12C0 18.6274 5.37258 24 12 24ZM15.2328 5.48924C14.389 5.45082 14.1362 5.44257 12 5.44257L12.0013 5.4413C9.86504 5.4413 9.61226 5.44955 8.7685 5.48797C7.98857 5.52354 7.56494 5.65373 7.28295 5.76328C6.93504 5.89137 6.62033 6.09591 6.36202 6.36183C6.09608 6.62012 5.89152 6.93481 5.76342 7.28269C5.65386 7.56466 5.52366 7.98825 5.48809 8.76812C5.44967 9.61181 5.44141 9.86457 5.44141 12.0006C5.44141 14.1367 5.44967 14.3895 5.48809 15.2332C5.52366 16.013 5.65386 16.4366 5.76342 16.7186C5.89152 17.0665 6.09608 17.3811 6.36202 17.6394C6.62033 17.9054 6.93504 18.1099 7.28295 18.238C7.56494 18.3475 7.98857 18.4777 8.7685 18.5133C9.61194 18.5517 9.86504 18.56 12.0013 18.56C14.1375 18.56 14.3906 18.5517 15.234 18.5133C16.014 18.4777 16.4376 18.3475 16.7196 18.238C17.0645 18.1048 17.3778 17.9009 17.6392 17.6394C17.9007 17.378 18.1046 17.0648 18.2379 16.7199C18.3474 16.4379 18.4776 16.0143 18.5132 15.2344C18.5516 14.3907 18.5599 14.138 18.5599 12.0019C18.5599 9.86584 18.5516 9.61308 18.5132 8.76939C18.4776 7.98952 18.3474 7.56593 18.2379 7.28396C18.1098 6.93608 17.9052 6.62139 17.6392 6.3631C17.3809 6.09718 17.0662 5.89264 16.7183 5.76455C16.4363 5.655 16.0127 5.52481 15.2328 5.48924ZM8.70276 4.04827C9.55605 4.00921 9.82852 4 12.0013 4L12 4.00127C14.1728 4.00127 14.4465 4.0108 15.2979 4.04954C16.1493 4.08827 16.7317 4.22355 17.2398 4.42105C17.7738 4.62222 18.2575 4.93733 18.6574 5.34445C19.0642 5.74406 19.379 6.22757 19.5799 6.76129C19.7777 7.26935 19.9127 7.84854 19.9517 8.70175C19.9908 9.55497 20 9.82742 20 12C20 14.1726 19.9905 14.4469 19.9517 15.2982C19.913 16.1496 19.7777 16.7319 19.5799 17.24C19.3745 17.7716 19.0602 18.2543 18.6572 18.6573C18.2542 19.0603 17.7714 19.3745 17.2398 19.5799C16.7317 19.7777 16.1524 19.9127 15.2991 19.9517C14.4459 19.9908 14.1734 20 12.0006 20C9.82788 20 9.55351 19.9905 8.70213 19.9517C7.85075 19.913 7.26834 19.7777 6.76024 19.5799C6.22619 19.379 5.74241 19.064 5.34265 18.6568C4.9358 18.2571 4.6209 17.7737 4.41982 17.24C4.22229 16.7319 4.08733 16.1521 4.04827 15.2989C4.00921 14.4457 4 14.1732 4 12.0006C4 9.82805 4.00953 9.55434 4.04827 8.70302C4.08701 7.85171 4.22229 7.26935 4.41982 6.76129C4.62081 6.22739 4.93573 5.74368 5.34265 5.34381C5.74254 4.93692 6.22629 4.62204 6.76024 4.42105C7.26834 4.22355 7.84948 4.08732 8.70276 4.04827ZM12 8C11.2089 8 10.4355 8.2346 9.77772 8.67412C9.11992 9.11365 8.60723 9.73836 8.30448 10.4693C8.00173 11.2002 7.92252 12.0044 8.07686 12.7804C8.2312 13.5563 8.61216 14.269 9.17157 14.8284C9.73098 15.3878 10.4437 15.7688 11.2196 15.9231C11.9956 16.0775 12.7998 15.9983 13.5307 15.6955C14.2616 15.3928 14.8864 14.8801 15.3259 14.2223C15.7654 13.5645 16 12.7911 16 12C16 11.4747 15.8966 10.9545 15.6956 10.4692C15.4946 9.9839 15.2 9.54292 14.8285 9.17148C14.4571 8.80004 14.0161 8.5054 13.5308 8.3044C13.0455 8.10339 12.5253 7.99996 12 8ZM12 14.5974C11.4863 14.5974 10.9841 14.4451 10.557 14.1597C10.1298 13.8743 9.79691 13.4686 9.60031 12.994C9.40372 12.5194 9.35229 11.9971 9.45251 11.4933C9.55273 10.9894 9.80011 10.5266 10.1634 10.1634C10.5266 9.80011 10.9894 9.55273 11.4933 9.45251C11.9971 9.35228 12.5194 9.40372 12.994 9.60031C13.4686 9.7969 13.8743 10.1298 14.1597 10.557C14.4451 10.9841 14.5974 11.4863 14.5974 12C14.5974 12.6889 14.3237 13.3495 13.8366 13.8366C13.3495 14.3237 12.6889 14.5974 12 14.5974ZM17 7.5C17 7.77614 16.7761 8 16.5 8C16.2239 8 16 7.77614 16 7.5C16 7.22386 16.2239 7 16.5 7C16.7761 7 17 7.22386 17 7.5Z" fill="white"/>
</svg>
