<svg width="16" height="16" viewBox="0 0 16 16" fill="none" xmlns="http://www.w3.org/2000/svg">
<path d="M6.30005 7.89966L8.10005 9.69971C6.30805 11.4918 4.28513 13.0369 2.08477 14.2943L1.44094 14.6622C1.37404 14.7005 1.29947 14.6259 1.3377 14.559L1.70561 13.9151C2.96296 11.7147 4.50805 9.69172 6.30005 7.89966Z" fill="#6E6D6D"/>
<path d="M10.6429 1.28112C11.2171 0.63936 12.2125 0.611731 12.8214 1.22065L14.779 3.1783C15.3879 3.78722 15.3603 4.78266 14.7185 5.35686L10.2002 9.3997L6.6002 5.79959L10.6429 1.28112Z" fill="#BF2200"/>
<path d="M3.65481 4.78131C5.09213 4.30219 6.67677 4.67628 7.74808 5.74763L10.252 8.25163C11.3233 9.32298 11.6974 10.9077 11.2183 12.345L11.0559 12.8323C10.9383 13.1849 10.4908 13.2906 10.228 13.0278L2.9721 5.77165C2.70928 5.50882 2.81493 5.06128 3.16754 4.94374L3.65481 4.78131Z" fill="#BF2200"/>
</svg>
