<?xml version="1.0" encoding="UTF-8" standalone="no"?>
<!DOCTYPE svg PUBLIC "-//W3C//DTD SVG 1.1//EN" "http://www.w3.org/Graphics/SVG/1.1/DTD/svg11.dtd">
<svg width="24" height="24" viewBox="0 0 24 24" version="1.1" xmlns="http://www.w3.org/2000/svg" xmlns:xlink="http://www.w3.org/1999/xlink" xml:space="preserve" xmlns:serif="http://www.serif.com/" style="fill-rule:evenodd;clip-rule:evenodd;stroke-linejoin:round;stroke-miterlimit:2;">
    <path d="M12,24C18.627,24 24,18.627 24,12C24,5.373 18.627,0 12,0C5.373,0 0,5.373 0,12C0,18.627 5.373,24 12,24Z" style="fill:white;"/>
    <path d="M12,24C18.627,24 24,18.627 24,12C24,5.373 18.627,0 12,0C5.373,0 0,5.373 0,12C0,18.627 5.373,24 12,24ZM19,8.56C18.83,7.94 18.345,7.46 17.725,7.3C16.61,7 12.14,7 12.14,7C12.14,7 7.675,7 6.56,7.3C5.945,7.465 5.465,7.945 5.3,8.56C5.095,9.695 4.995,10.845 5,12C4.995,13.155 5.095,14.305 5.3,15.44C5.465,16.055 5.945,16.535 6.56,16.7C7.675,17 12.14,17 12.14,17C12.14,17 16.605,17 17.72,16.7C18.34,16.54 18.83,16.06 19,15.44C19.205,14.305 19.305,13.155 19.3,12C19.305,10.845 19.205,9.695 19,8.56ZM10.715,14.145L14.425,12L10.715,9.855L10.715,14.145Z" style="fill:rgb(232,51,35);"/>
</svg>
