<svg width="24" height="24" viewBox="0 0 24 24" fill="none" xmlns="http://www.w3.org/2000/svg">
<path fill-rule="evenodd" clip-rule="evenodd" d="M1.5 12C1.5 6.20105 6.20102 1.5 12 1.5C17.799 1.5 22.5 6.20105 22.5 12C22.5 17.799 17.799 22.5 12 22.5C6.20102 22.5 1.5 17.799 1.5 12ZM6.20466 10.1784C7.17549 7.28849 10.7385 7.41789 11.975 9.7183C13.2115 7.41789 16.7745 7.28849 17.7453 10.1784C18.6246 12.7958 16.8462 14.1288 14.6711 15.7593C13.7873 16.4218 12.8381 17.1333 11.975 18C11.1119 17.1333 10.1626 16.4218 9.27888 15.7593C7.10372 14.1288 5.32538 12.7958 6.20466 10.1784Z" fill="#6E6D6D"/>
</svg>
