<?xml version="1.0" encoding="UTF-8" standalone="no"?>
<!DOCTYPE svg PUBLIC "-//W3C//DTD SVG 1.1//EN" "http://www.w3.org/Graphics/SVG/1.1/DTD/svg11.dtd">
<svg width="24" height="24" viewBox="0 0 24 24" version="1.1" xmlns="http://www.w3.org/2000/svg" xmlns:xlink="http://www.w3.org/1999/xlink" xml:space="preserve" xmlns:serif="http://www.serif.com/" style="fill-rule:evenodd;clip-rule:evenodd;stroke-linejoin:round;stroke-miterlimit:2;">
    <path d="M12,24C18.627,24 24,18.627 24,12C24,5.373 18.627,0 12,0C5.373,0 0,5.373 0,12C0,18.627 5.373,24 12,24Z" style="fill:white;"/>
    <path d="M0,12C0,5.373 5.373,0 12,0C18.627,0 24,5.373 24,12C24,18.627 18.627,24 12,24C5.373,24 0,18.627 0,12ZM18.857,8L9.641,8L5.143,16L14.359,16L18.857,8Z" style="fill:rgb(78,158,191);"/>
</svg>
