<svg width="17" height="18" viewBox="0 0 17 18" fill="none" xmlns="http://www.w3.org/2000/svg">
<path d="M16.1331 0.2042L5.63309 1.86271C5.26857 1.92029 5.00011 2.23449 5.0001 2.60352L5.00001 12.4372C5.00001 12.7436 4.72608 12.9764 4.42096 12.9484C1.34257 12.6649 -0.139158 14.1423 0.656241 16.0407C1.60281 18.3001 7.00001 16.5294 7.00001 13.6418L7.00011 5.48921C7.00011 5.36802 7.08704 5.26428 7.20637 5.24307L14.7064 3.91034C14.8595 3.88312 15.0001 4.00091 15.0001 4.15648V10.6158C15.0001 10.9222 14.7262 11.155 14.4211 11.127C11.3427 10.8435 9.86094 12.3209 10.6563 14.2193C11.6029 16.4787 17.0001 14.708 17.0001 11.8204V0.943309C17.0001 0.48243 16.5883 0.132294 16.1331 0.2042Z" fill="white"/>
</svg>
