<svg width="18" height="18" viewBox="0 0 18 18" fill="none" xmlns="http://www.w3.org/2000/svg">
<path d="M8.99999 0.5C4.30824 0.5 0.5 4.30824 0.5 9C0.5 13.7019 4.30824 17.5 8.99999 17.5C13.7019 17.5 17.5 13.6918 17.5 9C17.5101 4.30824 13.7019 0.5 8.99999 0.5ZM12.8996 12.7676C12.7473 13.0215 12.4223 13.0926 12.1684 12.9403C10.1678 11.7216 7.65949 11.4474 4.69414 12.1177C4.40979 12.1786 4.12544 12.006 4.06451 11.7216C4.00358 11.4373 4.17622 11.1529 4.46057 11.092C7.70011 10.3507 10.4827 10.6655 12.7168 12.0364C12.9809 12.1888 13.0621 12.5137 12.8996 12.7676ZM13.9456 10.4522C13.7527 10.767 13.3465 10.8584 13.0316 10.6756C10.7467 9.26404 7.26343 8.85783 4.56212 9.68041C4.20669 9.78196 3.8411 9.58901 3.73954 9.24373C3.63799 8.88829 3.83094 8.5227 4.18638 8.42115C7.27359 7.48686 11.1123 7.93369 13.7425 9.54839C14.037 9.73118 14.1386 10.1374 13.9456 10.4522ZM14.037 8.03524C11.2951 6.41039 6.77598 6.25806 4.15591 7.05018C3.73954 7.1822 3.29271 6.93847 3.16069 6.5221C3.02867 6.10573 3.2724 5.6589 3.68877 5.52688C6.69474 4.6129 11.6911 4.7957 14.8393 6.66428C15.215 6.88769 15.3369 7.37515 15.1135 7.7509C14.9002 8.1368 14.4128 8.25866 14.037 8.03524Z" fill="white"/>
</svg>
