<svg width="24" height="24" viewBox="0 0 24 24" fill="none" xmlns="http://www.w3.org/2000/svg">
<path fill-rule="evenodd" clip-rule="evenodd" d="M12 24C18.6274 24 24 18.6274 24 12C24 5.37258 18.6274 0 12 0C5.37258 0 0 5.37258 0 12C0 18.6274 5.37258 24 12 24ZM18.0273 9.68535C18.0273 13.4799 15.1399 17.858 9.85467 17.858V17.8557C8.29388 17.858 6.76545 17.4108 5.45195 16.5677C5.6796 16.5951 5.90866 16.6091 6.13795 16.6097C7.43159 16.6111 8.68806 16.1772 9.70515 15.3777C9.10571 15.3666 8.52476 15.1683 8.04359 14.8106C7.56242 14.453 7.2051 13.9538 7.02163 13.383C7.45225 13.4656 7.89603 13.4487 8.31915 13.3337C7.66902 13.2024 7.08435 12.8502 6.66433 12.3369C6.24431 11.8236 6.0148 11.1808 6.01475 10.5175V10.4811C6.41332 10.7034 6.85946 10.8267 7.31563 10.8406C6.70733 10.4345 6.27672 9.8118 6.1115 9.09931C5.94628 8.38681 6.05887 7.63813 6.42635 7.00575C7.14742 7.89339 8.04717 8.6194 9.06714 9.13663C10.0871 9.65385 11.2045 9.9507 12.3467 10.0079C12.2036 9.39209 12.2674 8.74626 12.5284 8.1704C12.7894 7.59454 13.2329 7.12076 13.7903 6.82239C14.3477 6.52402 14.9879 6.4177 15.6118 6.51988C16.2357 6.62207 16.8085 6.92707 17.2416 7.38767C17.8848 7.26046 18.5015 7.02469 19.0655 6.69047C18.8508 7.35559 18.4018 7.92013 17.8022 8.27919C18.3717 8.21194 18.9278 8.05941 19.4519 7.82671C19.0665 8.40373 18.5812 8.9074 18.0189 9.31407C18.0245 9.43727 18.0273 9.56103 18.0273 9.68535Z" fill="#4EA0EB"/>
</svg>
