<svg width="24" height="24" viewBox="0 0 24 24" fill="none" xmlns="http://www.w3.org/2000/svg">
<path fill-rule="evenodd" clip-rule="evenodd" d="M12 24C18.6274 24 24 18.6274 24 12C24 5.37258 18.6274 0 12 0C5.37258 0 0 5.37258 0 12C0 18.6274 5.37258 24 12 24ZM18.0754 10.0158C18.0754 13.8104 15.188 18.1885 9.90272 18.1885V18.1862C8.34193 18.1884 6.8135 17.7413 5.5 16.8982C5.72765 16.9256 5.95671 16.9396 6.186 16.9402C7.47964 16.9416 8.73611 16.5076 9.7532 15.7082C9.15376 15.6971 8.57281 15.4988 8.09164 15.1411C7.61047 14.7834 7.25315 14.2843 7.06968 13.7135C7.5003 13.7961 7.94409 13.7792 8.3672 13.6642C7.71707 13.5329 7.1324 13.1807 6.71238 12.6674C6.29236 12.1541 6.06285 11.5113 6.0628 10.848V10.8116C6.46137 11.0339 6.90752 11.1572 7.36368 11.1711C6.75539 10.765 6.32478 10.1423 6.15955 9.42979C5.99433 8.7173 6.10692 7.96862 6.4744 7.33623C7.19548 8.22387 8.09522 8.94989 9.11519 9.46711C10.1352 9.98433 11.2525 10.2812 12.3947 10.3384C12.2516 9.72257 12.3155 9.07675 12.5764 8.50089C12.8374 7.92503 13.2809 7.45124 13.8383 7.15287C14.3957 6.8545 15.0359 6.74818 15.6598 6.85037C16.2838 6.95256 16.8566 7.25756 17.2897 7.71815C17.9328 7.59094 18.5496 7.35517 19.1136 7.02095C18.8988 7.68607 18.4499 8.25061 17.8502 8.60967C18.4197 8.54242 18.9759 8.38989 19.5 8.15719C19.1145 8.73422 18.6292 9.23789 18.067 9.64455C18.0726 9.76775 18.0754 9.89151 18.0754 10.0158Z" fill="white"/>
</svg>
