<?xml version="1.0" encoding="UTF-8" standalone="no"?>
<!DOCTYPE svg PUBLIC "-//W3C//DTD SVG 1.1//EN" "http://www.w3.org/Graphics/SVG/1.1/DTD/svg11.dtd">
<svg width="24" height="24" viewBox="0 0 24 24" version="1.1" xmlns="http://www.w3.org/2000/svg" xmlns:xlink="http://www.w3.org/1999/xlink" xml:space="preserve" xmlns:serif="http://www.serif.com/" style="fill-rule:evenodd;clip-rule:evenodd;stroke-linejoin:round;stroke-miterlimit:2;">
    <path d="M12,24C18.627,24 24,18.627 24,12C24,5.373 18.627,0 12,0C5.373,0 0,5.373 0,12C0,18.627 5.373,24 12,24Z" style="fill:white;"/>
    <path d="M12,24C18.627,24 24,18.627 24,12C24,5.373 18.627,0 12,0C5.373,0 0,5.373 0,12C0,18.627 5.373,24 12,24ZM9.009,7.125L16.467,5.964C16.922,5.893 17.332,6.245 17.332,6.705L17.332,14.479C17.332,16.603 13.66,17.853 13.011,16.195C12.45,14.762 13.642,13.801 15.768,13.99C15.919,14.003 16.052,13.887 16.052,13.736L16.052,8.913C16.052,8.759 15.914,8.642 15.762,8.667L9.864,9.631C9.743,9.651 9.654,9.755 9.654,9.878L9.654,15.819C9.654,17.944 5.982,19.193 5.333,17.536C4.771,16.102 5.964,15.142 8.09,15.33C8.241,15.343 8.374,15.227 8.374,15.076L8.374,7.867C8.374,7.497 8.644,7.182 9.009,7.125Z" style="fill:rgb(233,70,91);"/>
</svg>
