<?xml version="1.0" encoding="UTF-8" standalone="no"?>
<!DOCTYPE svg PUBLIC "-//W3C//DTD SVG 1.1//EN" "http://www.w3.org/Graphics/SVG/1.1/DTD/svg11.dtd">
<svg width="24" height="24" viewBox="0 0 24 24" version="1.1" xmlns="http://www.w3.org/2000/svg" xmlns:xlink="http://www.w3.org/1999/xlink" xml:space="preserve" xmlns:serif="http://www.serif.com/" style="fill-rule:evenodd;clip-rule:evenodd;stroke-linejoin:round;stroke-miterlimit:2;">
    <path d="M12,24C18.627,24 24,18.627 24,12C24,5.373 18.627,0 12,0C5.373,0 0,5.373 0,12C0,18.627 5.373,24 12,24Z" style="fill:white;"/>
    <path d="M12,24C18.627,24 24,18.627 24,12C24,5.373 18.627,0 12,0C5.373,0 0,5.373 0,12C0,18.627 5.373,24 12,24ZM10.624,14.204C10.4,14.072 10.194,13.912 10.01,13.728L9.911,13.629C9.332,13.051 9.007,12.266 9.007,11.448C9.007,10.63 9.332,9.846 9.911,9.268L12.636,6.542C13.215,5.964 13.999,5.639 14.817,5.639C15.635,5.639 16.419,5.964 16.998,6.542L17.097,6.641C17.675,7.219 18,8.004 18,8.822C18,9.64 17.675,10.424 17.097,11.002L15.362,12.737C15.387,12.556 15.4,12.374 15.4,12.191C15.401,11.71 15.311,11.232 15.135,10.783L16.006,9.912C16.15,9.769 16.263,9.599 16.341,9.412C16.418,9.225 16.458,9.024 16.458,8.822C16.458,8.619 16.418,8.419 16.341,8.232C16.263,8.044 16.15,7.875 16.006,7.731L15.907,7.632C15.618,7.343 15.226,7.181 14.817,7.181C14.408,7.181 14.016,7.343 13.727,7.632L11.001,10.358C10.858,10.501 10.744,10.671 10.667,10.858C10.589,11.045 10.549,11.246 10.549,11.448C10.549,11.651 10.589,11.851 10.667,12.038C10.744,12.226 10.858,12.396 11.001,12.539L11.1,12.638C11.291,12.829 11.53,12.967 11.792,13.036L10.624,14.204ZM6.64,17.098L6.54,16.999C5.962,16.421 5.637,15.636 5.637,14.818C5.637,14.001 5.962,13.216 6.54,12.638L8.275,10.904C8.249,11.084 8.237,11.266 8.236,11.449C8.236,11.931 8.326,12.408 8.502,12.857L7.631,13.728C7.342,14.017 7.18,14.41 7.18,14.818C7.18,15.227 7.342,15.619 7.631,15.909L7.73,16.008C8.019,16.297 8.412,16.459 8.82,16.459C9.229,16.459 9.621,16.297 9.911,16.008L12.636,13.282C12.78,13.139 12.893,12.969 12.971,12.782C13.048,12.595 13.088,12.394 13.088,12.192C13.088,11.989 13.048,11.789 12.971,11.602C12.893,11.415 12.78,11.245 12.636,11.102L12.537,11.002C12.346,10.811 12.107,10.673 11.845,10.604L13.013,9.436C13.237,9.568 13.444,9.728 13.628,9.912L13.727,10.011C14.013,10.298 14.24,10.637 14.395,11.012C14.55,11.386 14.63,11.787 14.63,12.192C14.63,12.597 14.55,12.998 14.395,13.372C14.24,13.746 14.013,14.086 13.727,14.372L11.001,17.098C10.422,17.676 9.638,18 8.82,18C8.003,18 7.218,17.676 6.64,17.098Z" style="fill:rgb(235,123,12);"/>
</svg>
