<?xml version="1.0" encoding="UTF-8" standalone="no"?>
<!DOCTYPE svg PUBLIC "-//W3C//DTD SVG 1.1//EN" "http://www.w3.org/Graphics/SVG/1.1/DTD/svg11.dtd">
<svg width="24" height="24" viewBox="0 0 24 24" version="1.1" xmlns="http://www.w3.org/2000/svg" xmlns:xlink="http://www.w3.org/1999/xlink" xml:space="preserve" xmlns:serif="http://www.serif.com/" style="fill-rule:evenodd;clip-rule:evenodd;stroke-linejoin:round;stroke-miterlimit:2;">
    <path d="M12,24C18.627,24 24,18.627 24,12C24,5.373 18.627,0 12,0C5.373,0 0,5.373 0,12C0,18.627 5.373,24 12,24Z" style="fill:white;"/>
    <path d="M12,24C18.627,24 24,18.627 24,12C24,5.373 18.627,0 12,0C5.373,0 0,5.373 0,12C0,18.627 5.373,24 12,24ZM18.027,9.685C18.027,13.48 15.14,17.858 9.855,17.858L9.855,17.856C8.294,17.858 6.765,17.411 5.452,16.568C5.68,16.595 5.909,16.609 6.138,16.61C7.432,16.611 8.688,16.177 9.705,15.378C9.106,15.367 8.525,15.168 8.044,14.811C7.562,14.453 7.205,13.954 7.022,13.383C7.452,13.466 7.896,13.449 8.319,13.334C7.669,13.202 7.084,12.85 6.664,12.337C6.244,11.824 6.015,11.181 6.015,10.518L6.015,10.481C6.413,10.703 6.859,10.827 7.316,10.841C6.707,10.435 6.277,9.812 6.112,9.099C5.946,8.387 6.059,7.638 6.426,7.006C7.147,7.893 8.047,8.619 9.067,9.137C10.087,9.654 11.205,9.951 12.347,10.008C12.204,9.392 12.267,8.746 12.528,8.17C12.789,7.595 13.233,7.121 13.79,6.822C14.348,6.524 14.988,6.418 15.612,6.52C16.236,6.622 16.809,6.927 17.242,7.388C17.885,7.26 18.502,7.025 19.066,6.69C18.851,7.356 18.402,7.92 17.802,8.279C18.372,8.212 18.928,8.059 19.452,7.827C19.067,8.404 18.581,8.907 18.019,9.314C18.025,9.437 18.027,9.561 18.027,9.685Z" style="fill:rgb(78,160,235);"/>
</svg>
