<svg width="24" height="24" viewBox="0 0 24 24" fill="none" xmlns="http://www.w3.org/2000/svg">
<path fill-rule="evenodd" clip-rule="evenodd" d="M12 24C18.6274 24 24 18.6274 24 12C24 5.37258 18.6274 0 12 0C5.37258 0 0 5.37258 0 12C0 18.6274 5.37258 24 12 24ZM19.0002 8.56C18.8302 7.94 18.3452 7.46 17.7252 7.3C16.6102 7 12.1402 7 12.1402 7C12.1402 7 7.67518 7 6.56018 7.3C5.94518 7.465 5.46518 7.945 5.30018 8.56C5.09518 9.695 4.99518 10.845 5.00018 12C4.99518 13.155 5.09518 14.305 5.30018 15.44C5.46518 16.055 5.94518 16.535 6.56018 16.7C7.67518 17 12.1402 17 12.1402 17C12.1402 17 16.6052 17 17.7202 16.7C18.3402 16.54 18.8302 16.06 19.0002 15.44C19.2052 14.305 19.3052 13.155 19.3002 12C19.3052 10.845 19.2052 9.695 19.0002 8.56ZM10.7152 14.145L14.4252 12L10.7152 9.85501V14.145Z" fill="#E83323"/>
</svg>
