<svg width="24" height="24" viewBox="0 0 24 24" fill="none" xmlns="http://www.w3.org/2000/svg">
<path fill-rule="evenodd" clip-rule="evenodd" d="M12 24C18.6274 24 24 18.6274 24 12C24 5.37258 18.6274 0 12 0C5.37258 0 0 5.37258 0 12C0 18.6274 5.37258 24 12 24ZM14.8287 6.30309C14.0904 6.26947 13.8692 6.26225 12 6.26225L12.0011 6.26113C10.1319 6.26113 9.91073 6.26836 9.17244 6.30198C8.49 6.3331 8.11932 6.44701 7.87258 6.54287C7.56816 6.65495 7.29279 6.83392 7.06677 7.0666C6.83407 7.29261 6.65508 7.56796 6.54299 7.87235C6.44713 8.11908 6.3332 8.48972 6.30208 9.1721C6.26846 9.91034 6.26123 10.1315 6.26123 12.0006C6.26123 13.8696 6.26846 14.0908 6.30208 14.829C6.3332 15.5114 6.44713 15.882 6.54299 16.1288C6.65508 16.4332 6.83407 16.7085 7.06677 16.9345C7.29279 17.1672 7.56816 17.3462 7.87258 17.4582C8.11932 17.5541 8.49 17.668 9.17244 17.6991C9.91045 17.7328 10.1319 17.74 12.0011 17.74C13.8703 17.74 14.0918 17.7328 14.8298 17.6991C15.5122 17.668 15.8829 17.5541 16.1296 17.4582C16.4315 17.3417 16.7056 17.1633 16.9343 16.9345C17.1631 16.7057 17.3415 16.4317 17.4581 16.1299C17.554 15.8831 17.6679 15.5125 17.699 14.8301C17.7327 14.0919 17.7399 13.8707 17.7399 12.0017C17.7399 10.1326 17.7327 9.91145 17.699 9.17322C17.6679 8.49083 17.554 8.12019 17.4581 7.87346C17.346 7.56907 17.167 7.29372 16.9343 7.06771C16.7083 6.83504 16.4329 6.65606 16.1285 6.54398C15.8818 6.44812 15.5111 6.33421 14.8287 6.30309ZM9.11492 5.04223C9.86154 5.00806 10.1 5 12.0011 5L12 5.00111C13.9012 5.00111 14.1407 5.00945 14.8856 5.04334C15.6306 5.07724 16.1402 5.1956 16.5848 5.36842C17.052 5.54444 17.4753 5.82016 17.8252 6.17639C18.1812 6.52605 18.4566 6.94912 18.6324 7.41613C18.8055 7.86068 18.9236 8.36747 18.9578 9.11404C18.9919 9.8606 19 10.099 19 12C19 13.901 18.9917 14.1411 18.9578 14.886C18.9239 15.6309 18.8055 16.1404 18.6324 16.585C18.4527 17.0501 18.1777 17.4725 17.825 17.8251C17.4724 18.1777 17.05 18.4527 16.5848 18.6324C16.1402 18.8055 15.6334 18.9236 14.8868 18.9578C14.1401 18.9919 13.9017 19 12.0006 19C10.0994 19 9.85932 18.9917 9.11436 18.9578C8.3694 18.9239 7.8598 18.8055 7.41521 18.6324C6.94792 18.4566 6.52461 18.181 6.17482 17.8247C5.81883 17.475 5.54328 17.0519 5.36734 16.585C5.19451 16.1404 5.07641 15.6331 5.04224 14.8865C5.00806 14.14 5 13.9016 5 12.0006C5 10.0995 5.00834 9.86005 5.04224 9.11515C5.07614 8.37025 5.19451 7.86068 5.36734 7.41613C5.54321 6.94896 5.81876 6.52572 6.17482 6.17584C6.52473 5.81981 6.94801 5.54428 7.41521 5.36842C7.8598 5.1956 8.36829 5.07641 9.11492 5.04223ZM12 8.5C11.3078 8.5 10.6311 8.70527 10.0555 9.08986C9.47993 9.47444 9.03133 10.0211 8.76642 10.6606C8.50152 11.3001 8.43221 12.0039 8.56725 12.6828C8.7023 13.3617 9.03564 13.9854 9.52513 14.4749C10.0146 14.9644 10.6383 15.2977 11.3172 15.4327C11.9961 15.5678 12.6999 15.4985 13.3394 15.2336C13.9789 14.9687 14.5256 14.5201 14.9101 13.9445C15.2947 13.3689 15.5 12.6922 15.5 12C15.5 11.5404 15.4095 11.0852 15.2337 10.6606C15.0578 10.2359 14.8 9.85006 14.475 9.52505C14.1499 9.20004 13.7641 8.94223 13.3394 8.76635C12.9148 8.59047 12.4596 8.49996 12 8.5ZM12 14.2727C11.5505 14.2727 11.1111 14.1394 10.7373 13.8897C10.3636 13.64 10.0723 13.285 9.90028 12.8697C9.72826 12.4544 9.68325 11.9975 9.77094 11.5566C9.85864 11.1157 10.0751 10.7108 10.3929 10.3929C10.7108 10.0751 11.1157 9.85864 11.5566 9.77094C11.9975 9.68325 12.4544 9.72826 12.8697 9.90027C13.285 10.0723 13.64 10.3636 13.8897 10.7373C14.1394 11.1111 14.2727 11.5505 14.2727 12C14.2727 12.6028 14.0333 13.1808 13.6071 13.6071C13.1808 14.0333 12.6028 14.2727 12 14.2727ZM16.6667 7.91667C16.6667 8.23883 16.4055 8.5 16.0833 8.5C15.7612 8.5 15.5 8.23883 15.5 7.91667C15.5 7.5945 15.7612 7.33333 16.0833 7.33333C16.4055 7.33333 16.6667 7.5945 16.6667 7.91667Z" fill="#D9565C"/>
</svg>
