<?xml version="1.0" encoding="UTF-8" standalone="no"?>
<!DOCTYPE svg PUBLIC "-//W3C//DTD SVG 1.1//EN" "http://www.w3.org/Graphics/SVG/1.1/DTD/svg11.dtd">
<svg width="24" height="24" viewBox="0 0 24 24" version="1.1" xmlns="http://www.w3.org/2000/svg" xmlns:xlink="http://www.w3.org/1999/xlink" xml:space="preserve" xmlns:serif="http://www.serif.com/" style="fill-rule:evenodd;clip-rule:evenodd;stroke-linejoin:round;stroke-miterlimit:2;">
    <path d="M12,24C18.627,24 24,18.627 24,12C24,5.373 18.627,0 12,0C5.373,0 0,5.373 0,12C0,18.627 5.373,24 12,24Z" style="fill:white;"/>
    <path d="M0,12C0,5.373 5.373,0 12,0C18.627,0 24,5.373 24,12C24,18.627 18.627,24 12,24C5.373,24 0,18.627 0,12ZM18.044,10.842C14.754,8.892 9.331,8.71 6.187,9.66C5.687,9.819 5.151,9.526 4.993,9.027C4.834,8.527 5.127,7.991 5.627,7.832C9.234,6.735 15.229,6.955 19.007,9.197C19.458,9.465 19.604,10.05 19.336,10.501C19.08,10.964 18.495,11.11 18.044,10.842ZM16.838,14.011C17.216,14.23 17.703,14.12 17.935,13.743C18.166,13.365 18.044,12.877 17.691,12.658C14.535,10.72 9.928,10.184 6.224,11.305C5.797,11.427 5.566,11.866 5.687,12.293C5.809,12.707 6.248,12.938 6.675,12.817C9.916,11.829 14.096,12.317 16.838,14.011ZM15.802,16.728C16.107,16.911 16.497,16.826 16.68,16.521C16.875,16.217 16.777,15.826 16.46,15.644C13.779,13.999 10.44,13.621 6.553,14.51C6.211,14.584 6.004,14.925 6.077,15.266C6.151,15.607 6.492,15.814 6.833,15.741C10.391,14.937 13.401,15.266 15.802,16.728Z" style="fill:rgb(105,211,110);"/>
</svg>
