<svg width="16" height="16" viewBox="0 0 16 16" fill="none" xmlns="http://www.w3.org/2000/svg">
<path d="M7.875 0C3.52575 0 0 3.52579 0 7.875C0 12.2242 3.52575 15.75 7.875 15.75C12.2242 15.75 15.75 12.2242 15.75 7.875C15.75 3.52579 12.2242 0 7.875 0Z" fill="white"/>
<g clip-path="url(#clip0)">
<path d="M12.7909 5.70752C12.7344 5.50621 12.623 5.32249 12.4678 5.17473C12.3126 5.02697 12.1192 4.92037 11.9068 4.86558C11.125 4.66666 8 4.66666 8 4.66666C8 4.66666 4.875 4.66666 4.09318 4.86558C3.8808 4.92037 3.68736 5.02697 3.5322 5.17473C3.37705 5.32249 3.26563 5.50621 3.20909 5.70752C3 6.45053 3 7.99999 3 7.99999C3 7.99999 3 9.54945 3.20909 10.2925C3.26563 10.4938 3.37705 10.6775 3.5322 10.8253C3.68736 10.973 3.8808 11.0796 4.09318 11.1344C4.875 11.3333 8 11.3333 8 11.3333C8 11.3333 11.125 11.3333 11.9068 11.1344C12.1192 11.0796 12.3126 10.973 12.4678 10.8253C12.623 10.6775 12.7344 10.4938 12.7909 10.2925C13 9.54945 13 7.99999 13 7.99999C13 7.99999 13 6.45053 12.7909 5.70752Z" fill="#282828"/>
<path d="M6.97729 9.40696L9.59093 7.99998L6.97729 6.59299V9.40696Z" fill="white"/>
</g>
<defs>
<clipPath id="clip0">
<rect width="10" height="6.66667" fill="white" transform="translate(3 4.66666)"/>
</clipPath>
</defs>
</svg>
