<svg width="16" height="16" viewBox="0 0 16 16" fill="none" xmlns="http://www.w3.org/2000/svg">
<path d="M7.875 0C3.52575 0 0 3.52579 0 7.875C0 12.2242 3.52575 15.75 7.875 15.75C12.2242 15.75 15.75 12.2242 15.75 7.875C15.75 3.52579 12.2242 0 7.875 0Z" fill="white"/>
<path d="M13.7491 5.24904C13.6813 5.00747 13.5476 4.787 13.3614 4.60969C13.1752 4.43238 12.9431 4.30445 12.6882 4.23871C11.75 4 8.00002 4 8.00002 4C8.00002 4 4.25001 4 3.31182 4.23871C3.05697 4.30445 2.82483 4.43238 2.63865 4.60969C2.45246 4.787 2.31875 5.00747 2.25091 5.24904C2 6.14065 2 8.00001 2 8.00001C2 8.00001 2 9.85937 2.25091 10.751C2.31875 10.9926 2.45246 11.213 2.63865 11.3903C2.82483 11.5676 3.05697 11.6956 3.31182 11.7613C4.25001 12 8.00002 12 8.00002 12C8.00002 12 11.75 12 12.6882 11.7613C12.9431 11.6956 13.1752 11.5676 13.3614 11.3903C13.5476 11.213 13.6813 10.9926 13.7491 10.751C14 9.85937 14 8.00001 14 8.00001C14 8.00001 14 6.14065 13.7491 5.24904Z" fill="#282828"/>
<path d="M6.77271 9.68837L9.90907 7.99998L6.77271 6.31158V9.68837Z" fill="white"/>
</svg>
