<svg width="17" height="17" viewBox="0 0 17 17" fill="none" xmlns="http://www.w3.org/2000/svg">
<circle cx="8.5" cy="8.5" r="8.5" fill="white"/>
<path fill-rule="evenodd" clip-rule="evenodd" d="M4.78515 14C4.83322 13.9849 4.88129 13.9622 4.93737 13.9319L11.9636 10.3006L10.2972 8.73453L4.78515 14ZM12.2761 10.1492L10.5375 8.50757L12.2761 6.85076L14.6636 8.08391C15.2484 8.38652 14.952 8.76479 14.6636 8.91609L12.2761 10.1492ZM11.9636 6.69188L4.93737 3.07565C4.86526 3.03783 4.77713 3.01513 4.68901 3L10.2892 8.28061L11.9636 6.69188ZM4.28041 3.06809L10.0568 8.51513L4.31246 14C4.14421 13.9017 4.05608 13.6823 4.05608 13.4023C4.04807 12.8652 4 4.29367 4 3.65062C4 3.34801 4.12018 3.15887 4.28041 3.06809Z" fill="black"/>
</svg>
