<svg width="24" height="24" viewBox="0 0 24 24" fill="none" xmlns="http://www.w3.org/2000/svg">
<g clip-path="url(#clip0)">
<path fill-rule="evenodd" clip-rule="evenodd" d="M0 12C0 5.37263 5.37258 0 12 0C18.6274 0 24 5.37263 24 12C24 18.6274 18.6274 24 12 24C5.37258 24 0 18.6274 0 12ZM18.0444 10.8423C14.7541 8.89247 9.33115 8.70968 6.18707 9.66022C5.68743 9.81864 5.15123 9.52617 4.99281 9.02652C4.83438 8.52688 5.12686 7.99068 5.6265 7.83226C9.23366 6.73548 15.2294 6.95484 19.0071 9.19713C19.458 9.46523 19.6043 10.0502 19.3362 10.5011C19.0802 10.9642 18.4953 11.1104 18.0444 10.8423ZM16.838 14.0108C17.2157 14.2301 17.7032 14.1204 17.9347 13.7427C18.1663 13.3649 18.0444 12.8774 17.691 12.6581C14.5347 10.7204 9.92828 10.1842 6.22363 11.3054C5.79711 11.4272 5.56557 11.8659 5.68743 12.2925C5.80929 12.7068 6.248 12.9384 6.67452 12.8165C9.9161 11.8294 14.096 12.3168 16.838 14.0108ZM15.8021 16.7283C16.1068 16.9111 16.4967 16.8258 16.6795 16.5211C16.8745 16.2165 16.777 15.8265 16.4602 15.6437C13.7792 13.9986 10.4401 13.6208 6.55266 14.5104C6.21144 14.5835 6.00427 14.9247 6.07739 15.2659C6.15051 15.6072 6.49173 15.8143 6.83295 15.7412C10.3914 14.9369 13.4014 15.266 15.8021 16.7283Z" fill="#69D36E"/>
</g>
<defs>
<clipPath id="clip0">
<rect width="24" height="24" fill="white"/>
</clipPath>
</defs>
</svg>
