<svg width="24" height="24" viewBox="0 0 24 24" fill="none" xmlns="http://www.w3.org/2000/svg">
<g clip-path="url(#clip0)">
<path fill-rule="evenodd" clip-rule="evenodd" d="M12 24C18.6274 24 24 18.6274 24 12C24 5.37258 18.6274 0 12 0C5.37258 0 0 5.37258 0 12C0 18.6274 5.37258 24 12 24ZM9.00909 7.12545L16.4669 5.96418C16.9216 5.89337 17.3323 6.24456 17.3323 6.70478V14.4785C17.3323 16.6034 13.6597 17.8527 13.0108 16.1953C12.4495 14.7615 13.6424 13.8012 15.7684 13.9895C15.9188 14.0028 16.0524 13.8868 16.0524 13.7358V8.9133C16.0524 8.75912 15.9142 8.6417 15.762 8.66657L9.86401 9.63095C9.74311 9.65072 9.65435 9.75517 9.65435 9.87767L9.65429 15.8188C9.65429 17.9438 5.98175 19.193 5.33286 17.5357C4.77149 16.1019 5.96447 15.1415 8.0904 15.3298C8.24082 15.3431 8.37442 15.2271 8.37442 15.0761L8.37448 7.86651C8.37448 7.49685 8.64383 7.18232 9.00909 7.12545Z" fill="#E9465B"/>
</g>
<defs>
<clipPath id="clip0">
<rect width="24" height="24" fill="white"/>
</clipPath>
</defs>
</svg>
