<svg width="24" height="24" viewBox="0 0 24 24" fill="none" xmlns="http://www.w3.org/2000/svg">
<circle cx="12" cy="12" r="12" fill="white"/>
<path fill-rule="evenodd" clip-rule="evenodd" d="M6.75541 19.7647C6.82328 19.7433 6.89114 19.7113 6.97032 19.6686L16.8897 14.5419L14.5371 12.3311L6.75541 19.7647ZM17.3309 14.3283L14.8764 12.0107L17.3309 9.67165L20.7014 11.4126C21.5271 11.8398 21.1086 12.3738 20.7014 12.5874L17.3309 14.3283ZM16.8897 9.44736L6.97032 4.3421C6.86852 4.28869 6.7441 4.25665 6.61969 4.23529L14.5258 11.6903L16.8897 9.44736ZM6.04284 4.33141L14.1978 12.0214L6.08809 19.7647C5.85056 19.6259 5.72615 19.3161 5.72615 18.9209C5.71484 18.1626 5.64697 6.06165 5.64697 5.15381C5.64697 4.72659 5.81663 4.45958 6.04284 4.33141Z" fill="black"/>
</svg>
