<svg id="Layer_1" data-name="Layer 1" xmlns="http://www.w3.org/2000/svg" viewBox="0 0 280 279.42"><title>icon_gear</title><path d="M280,165.67V114.33l-31.5-5.25a97.63,97.63,0,0,0-9.92-23.91L257.25,59.5,221.08,22.75,194.83,40.83a121.79,121.79,0,0,0-23.91-9.91L165.67,0H114.33l-5.25,31.5a108.07,108.07,0,0,0-23.91,9.92L59.5,23.33,22.75,59.5,41.42,85.17a112.85,112.85,0,0,0-9.92,24.5L0,114.33v51.34l31.5,5.25a108.07,108.07,0,0,0,9.92,23.91L22.75,221.08l36.17,36.17,26.25-18.67a112.85,112.85,0,0,0,24.5,9.92l5.25,30.92h51.33l5.25-31.5A122.52,122.52,0,0,0,195.42,238l26.25,18.67,36.16-36.17-18.66-26.25a108.61,108.61,0,0,0,9.91-23.92Zm-140,28A53.67,53.67,0,1,1,193.67,140,53.53,53.53,0,0,1,140,193.67Z" fill="#EB7B0C"/></svg>