<svg width="24" height="24" viewBox="0 0 24 24" fill="none" xmlns="http://www.w3.org/2000/svg">
<path fill-rule="evenodd" clip-rule="evenodd" d="M12 24C18.6273 24 24 18.6273 24 12C24 5.3727 18.6273 0 12 0C5.3727 0 0 5.3727 0 12C0 18.6273 5.3727 24 12 24ZM8.66567 6.60731L16.4393 5.39683C16.7406 5.34995 17.0287 5.4344 17.2493 5.60466C17.4982 5.79699 17.6608 6.09823 17.6608 6.44256V14.7567C17.6608 17.1028 13.6055 18.4825 12.8892 16.6523C12.2771 15.0889 13.5545 14.0353 15.8465 14.2097C16.0595 14.2255 16.2477 14.0622 16.2477 13.8488V8.70221C16.2477 8.48472 16.0526 8.31893 15.8375 8.35375L9.47909 9.39361C9.30813 9.42153 9.18336 9.56905 9.18336 9.74207V16.2367C9.18336 18.5828 5.12799 19.9625 4.41108 18.1324C3.79894 16.5689 5.07629 15.5153 7.36903 15.6897C7.58134 15.7055 7.76953 15.5422 7.76953 15.3288L7.77022 7.65338C7.77022 7.45554 7.82468 7.26873 7.9205 7.1088C8.07767 6.8472 8.34582 6.65728 8.66567 6.60731Z" fill="white"/>
</svg>
