<svg width="24" height="24" viewBox="0 0 24 24" fill="none" xmlns="http://www.w3.org/2000/svg">
<path d="M12 0C5.37634 0 0 5.37634 0 12C0 18.638 5.37634 24 12 24C18.638 24 24 18.6237 24 12C24.0143 5.37634 18.638 0 12 0ZM17.5054 17.319C17.2903 17.6774 16.8315 17.7778 16.4731 17.5627C13.6487 15.8423 10.1075 15.4552 5.92114 16.4014C5.51971 16.4875 5.11827 16.2437 5.03225 15.8423C4.94623 15.4409 5.18996 15.0394 5.59139 14.9534C10.1649 13.9068 14.0932 14.3513 17.2473 16.2867C17.6201 16.5018 17.7347 16.9606 17.5054 17.319ZM18.9821 14.0502C18.7097 14.4946 18.1362 14.6237 17.6917 14.3656C14.4659 12.3728 9.54838 11.7993 5.73476 12.9606C5.23297 13.1039 4.71684 12.8315 4.57347 12.3441C4.4301 11.8423 4.7025 11.3262 5.2043 11.1828C9.56271 9.8638 14.9821 10.4946 18.6953 12.7742C19.1111 13.0323 19.2545 13.6057 18.9821 14.0502ZM19.1111 10.638C15.2401 8.34409 8.8602 8.12903 5.16128 9.24731C4.57347 9.43369 3.94265 9.08961 3.75627 8.50179C3.56989 7.91398 3.91397 7.28315 4.50179 7.09677C8.74551 5.80645 15.7993 6.06452 20.2437 8.70251C20.7742 9.01792 20.9462 9.70609 20.6308 10.2366C20.3297 10.7814 19.6416 10.9534 19.1111 10.638Z" fill="white"/>
</svg>
