<svg width="24" height="24" viewBox="0 0 24 24" fill="none" xmlns="http://www.w3.org/2000/svg">
<path fill-rule="evenodd" clip-rule="evenodd" d="M12 24C18.6274 24 24 18.6274 24 12C24 5.37258 18.6274 0 12 0C5.37258 0 0 5.37258 0 12C0 18.6274 5.37258 24 12 24ZM10.6239 14.2042C10.3999 14.072 10.1935 13.912 10.0097 13.728L9.91068 13.6289C9.33235 13.0505 9.00745 12.2662 9.00745 11.4483C9.00745 10.6304 9.33235 9.846 9.91068 9.26766L12.6363 6.54186C13.2147 5.96353 13.999 5.63863 14.8169 5.63863C15.6348 5.63863 16.4192 5.96353 16.9975 6.54186L17.0968 6.64109C17.6751 7.21943 18 8.00381 18 8.8217C18 9.63959 17.6751 10.424 17.0968 11.0023L15.3615 12.7368C15.3872 12.5561 15.4001 12.3739 15.4003 12.1914C15.4007 11.7095 15.3107 11.2318 15.1349 10.7831L16.0064 9.91209C16.1496 9.7689 16.2632 9.5989 16.3407 9.41181C16.4182 9.22473 16.458 9.0242 16.458 8.8217C16.458 8.6192 16.4182 8.41868 16.3407 8.23159C16.2632 8.0445 16.1496 7.87451 16.0064 7.73131L15.9072 7.63225C15.6178 7.34346 15.2257 7.18127 14.8169 7.18127C14.408 7.18127 14.0159 7.34346 13.7265 7.63225L11.0009 10.3579C10.8577 10.5011 10.7441 10.6711 10.6666 10.8582C10.5891 11.0452 10.5492 11.2458 10.5492 11.4483C10.5492 11.6508 10.5891 11.8513 10.6666 12.0384C10.7441 12.2255 10.8577 12.3955 11.0009 12.5387L11.1001 12.6377C11.2915 12.8294 11.5302 12.9669 11.792 13.0363L10.6239 14.2042ZM6.63969 17.0982L6.54046 16.9989C5.96213 16.4206 5.63723 15.6362 5.63723 14.8183C5.63723 14.0005 5.96213 13.2161 6.54046 12.6377L8.27494 10.9036C8.24946 11.0841 8.23659 11.2662 8.23641 11.4486C8.23601 11.9305 8.32606 12.4082 8.50189 12.8569L7.63084 13.728C7.34208 14.0174 7.17992 14.4095 7.17992 14.8183C7.17992 15.2272 7.34208 15.6193 7.63084 15.9087L7.73007 16.008C8.01948 16.2967 8.41158 16.4588 8.82038 16.4588C9.22917 16.4588 9.62127 16.2967 9.91068 16.008L12.6363 13.2821C12.7795 13.139 12.8931 12.969 12.9706 12.7819C13.0481 12.5948 13.088 12.3943 13.088 12.1918C13.088 11.9894 13.0481 11.7888 12.9706 11.6018C12.8931 11.4147 12.7795 11.2447 12.6363 11.1015L12.5373 11.0023C12.3458 10.8107 12.107 10.6732 11.8452 10.6038L13.0133 9.43585C13.2373 9.56803 13.4437 9.72805 13.6275 9.91209L13.7265 10.0112C14.0129 10.2975 14.2401 10.6374 14.3951 11.0116C14.5501 11.3858 14.6299 11.7868 14.6299 12.1918C14.6299 12.5968 14.5501 12.9978 14.3951 13.3719C14.2401 13.7461 14.0129 14.086 13.7265 14.3724L11.0009 17.0982C10.4221 17.6757 9.6379 18 8.82029 18C8.00268 18 7.21846 17.6757 6.63969 17.0982Z" fill="white"/>
</svg>
