<svg width="24" height="24" viewBox="0 0 24 24" fill="none" xmlns="http://www.w3.org/2000/svg">
<path d="M19.1268 3.2128L8.62681 4.9628C8.26517 5.02308 8.00011 5.33597 8.00011 5.70259L8.00001 16.1468C8.00001 16.4549 7.72329 16.6881 7.41664 16.6585C4.34118 16.3612 2.86122 17.9196 3.65624 19.9219C4.60281 22.3058 10 20.4375 10 17.3906L10.0001 8.77473C10.0001 8.65443 10.0858 8.55119 10.204 8.52902L17.704 7.12277C17.8579 7.09392 18.0001 7.21195 18.0001 7.36848V14.2249C18.0001 14.533 17.7234 14.7662 17.4167 14.7366C14.3413 14.4394 12.8613 15.9977 13.6563 18C14.6029 20.3839 20.0001 18.5156 20.0001 15.4688V3.95115C20.0001 3.48769 19.584 3.13661 19.1268 3.2128Z" fill="white"/>
</svg>
