<svg width="24" height="24" viewBox="0 0 24 24" fill="none" xmlns="http://www.w3.org/2000/svg">
<path d="M12 3.5C7.30824 3.5 3.5 7.30824 3.5 12C3.5 16.7019 7.30824 20.5 12 20.5C16.7019 20.5 20.5 16.6918 20.5 12C20.5101 7.30824 16.7019 3.5 12 3.5ZM15.8996 15.7676C15.7473 16.0215 15.4223 16.0926 15.1684 15.9403C13.1678 14.7216 10.6595 14.4474 7.69414 15.1177C7.40979 15.1786 7.12544 15.006 7.06451 14.7216C7.00358 14.4373 7.17622 14.1529 7.46057 14.092C10.7001 13.3507 13.4827 13.6655 15.7168 15.0364C15.9809 15.1888 16.0621 15.5137 15.8996 15.7676ZM16.9456 13.4522C16.7527 13.767 16.3465 13.8584 16.0316 13.6756C13.7467 12.264 10.2634 11.8578 7.56212 12.6804C7.20669 12.782 6.8411 12.589 6.73954 12.2437C6.63799 11.8883 6.83094 11.5227 7.18638 11.4211C10.2736 10.4869 14.1123 10.9337 16.7425 12.5484C17.037 12.7312 17.1386 13.1374 16.9456 13.4522ZM17.037 11.0352C14.2951 9.41039 9.77598 9.25806 7.15591 10.0502C6.73954 10.1822 6.29271 9.93847 6.16069 9.5221C6.02867 9.10573 6.2724 8.6589 6.68877 8.52688C9.69474 7.6129 14.6911 7.7957 17.8393 9.66428C18.215 9.88769 18.3369 10.3751 18.1135 10.7509C17.9002 11.1368 17.4128 11.2587 17.037 11.0352Z" fill="white"/>
</svg>
